G04 #@! TF.GenerationSoftware,KiCad,Pcbnew,(5.1.10)-1*
G04 #@! TF.CreationDate,2021-09-09T21:29:34+03:00*
G04 #@! TF.ProjectId,Jetson_camera_interposer,4a657473-6f6e-45f6-9361-6d6572615f69,rev?*
G04 #@! TF.SameCoordinates,Original*
G04 #@! TF.FileFunction,Copper,L4,Inr*
G04 #@! TF.FilePolarity,Positive*
%FSLAX46Y46*%
G04 Gerber Fmt 4.6, Leading zero omitted, Abs format (unit mm)*
G04 Created by KiCad (PCBNEW (5.1.10)-1) date 2021-09-09 21:29:34*
%MOMM*%
%LPD*%
G01*
G04 APERTURE LIST*
G04 #@! TA.AperFunction,ComponentPad*
%ADD10C,1.524000*%
G04 #@! TD*
G04 #@! TA.AperFunction,ComponentPad*
%ADD11C,2.000000*%
G04 #@! TD*
G04 #@! TA.AperFunction,ViaPad*
%ADD12C,0.508000*%
G04 #@! TD*
G04 #@! TA.AperFunction,ViaPad*
%ADD13C,0.355600*%
G04 #@! TD*
G04 #@! TA.AperFunction,Conductor*
%ADD14C,0.304800*%
G04 #@! TD*
G04 #@! TA.AperFunction,Conductor*
%ADD15C,0.508000*%
G04 #@! TD*
G04 #@! TA.AperFunction,Conductor*
%ADD16C,0.152400*%
G04 #@! TD*
G04 #@! TA.AperFunction,Conductor*
%ADD17C,0.100000*%
G04 #@! TD*
G04 APERTURE END LIST*
D10*
X110426000Y-126822200D03*
X110400600Y-134899400D03*
X94982800Y-139039600D03*
X94322400Y-131318000D03*
X94234000Y-108026200D03*
X93865200Y-113385600D03*
X94932000Y-120624600D03*
X94551000Y-128651000D03*
X104507800Y-119583200D03*
X105346000Y-123037600D03*
D11*
X93205300Y-72923400D03*
X99364800Y-72923400D03*
X105486200Y-72923400D03*
X111810799Y-72923400D03*
X105486200Y-96342198D03*
X105460800Y-107391200D03*
X137287000Y-70764400D03*
X118237000Y-70764400D03*
X105486200Y-90741500D03*
X93205300Y-102108000D03*
X93205300Y-85471000D03*
X93205300Y-96342198D03*
X93205300Y-79501998D03*
X111810799Y-96342198D03*
X93205300Y-90741500D03*
X99364800Y-90741500D03*
X111810799Y-90741500D03*
X111810799Y-102108000D03*
X99364800Y-85471000D03*
X111810799Y-79501998D03*
X111810799Y-85471000D03*
X105486200Y-85471000D03*
X105486200Y-79501998D03*
X99364800Y-79501998D03*
X105486200Y-102108000D03*
X99364800Y-96342198D03*
X99364800Y-102108000D03*
D12*
X104538571Y-130141329D03*
X107436812Y-133749343D03*
X136714961Y-129076669D03*
X121938061Y-128946978D03*
X133227862Y-127300182D03*
X135790715Y-127320850D03*
X90805000Y-124841000D03*
X117373400Y-128447800D03*
X119100600Y-125349000D03*
X97091000Y-131318000D03*
X97345000Y-128524000D03*
X156083000Y-132080000D03*
X156083000Y-127000000D03*
X130937000Y-135382000D03*
X134112000Y-135509000D03*
X137160000Y-135509000D03*
X140843000Y-135509000D03*
X143256000Y-135382000D03*
X146431000Y-135001000D03*
X149479000Y-134620000D03*
X151130000Y-132969000D03*
X152273000Y-130683000D03*
X152527000Y-128143000D03*
X151638000Y-123444000D03*
X151765000Y-120777000D03*
X156845000Y-117094000D03*
X157353000Y-122301000D03*
X155829000Y-124587000D03*
X126238000Y-115316000D03*
X129159000Y-115443000D03*
X138140000Y-107020000D03*
X137090000Y-116810000D03*
X140790000Y-113980000D03*
X132930000Y-116120000D03*
X131630000Y-106270000D03*
X140230000Y-110050000D03*
X140081000Y-123952000D03*
X144526000Y-127127000D03*
X139954000Y-127254000D03*
X132334000Y-129032000D03*
X140970000Y-129032000D03*
X145288000Y-128651000D03*
X148971000Y-127889000D03*
X148082000Y-131445000D03*
X144653000Y-132588000D03*
X140716000Y-132461000D03*
X136017000Y-132334000D03*
X131445000Y-132588000D03*
X129540000Y-133985000D03*
X105918000Y-127635000D03*
X102044000Y-132969000D03*
X102666800Y-113436400D03*
X106172000Y-113157000D03*
X109270000Y-113520000D03*
X111880000Y-108690000D03*
X127000000Y-107000000D03*
X123367800Y-135407400D03*
X118618000Y-132334000D03*
X122160000Y-132460000D03*
X118999000Y-135636000D03*
X115125000Y-135636000D03*
X112839000Y-135636000D03*
X108267000Y-135509000D03*
X112471200Y-127228600D03*
X121386600Y-125476000D03*
X111569000Y-123444000D03*
X108902000Y-123444000D03*
X101917000Y-118999000D03*
X96710000Y-116967000D03*
X94805000Y-117856000D03*
X91948000Y-136906000D03*
X91884000Y-115824000D03*
X91884000Y-113284000D03*
X91884000Y-110744000D03*
X153924000Y-137795000D03*
X149733000Y-139446000D03*
X144653000Y-139446000D03*
X139573000Y-139446000D03*
X134493000Y-139446000D03*
X129413000Y-139446000D03*
X124333000Y-139446000D03*
X119253000Y-139446000D03*
X113093000Y-139446000D03*
X108013000Y-139446000D03*
X102933000Y-139446000D03*
X97853000Y-139446000D03*
X151384000Y-67564000D03*
X146304000Y-67564000D03*
X141224000Y-67564000D03*
X131064000Y-67564000D03*
X125984000Y-67564000D03*
X120904000Y-67564000D03*
X115824000Y-67564000D03*
X110744000Y-67564000D03*
X105664000Y-67564000D03*
X100584000Y-67564000D03*
X95504000Y-67564000D03*
X134342399Y-67497301D03*
X98996000Y-118999000D03*
X140170000Y-118840000D03*
X127140000Y-102870000D03*
X135280000Y-102120000D03*
X136950000Y-110100000D03*
X99510000Y-106560000D03*
X118390000Y-76490000D03*
X132070000Y-74730000D03*
X147300000Y-74430000D03*
X155020000Y-78540000D03*
X156970000Y-90550000D03*
X157360000Y-97970000D03*
X157270000Y-105200000D03*
X157360000Y-111450000D03*
X133410000Y-112820000D03*
X133940000Y-108670000D03*
X137270000Y-98300000D03*
X129830000Y-98310000D03*
X138180000Y-89890000D03*
X133250000Y-89890000D03*
X139480000Y-85250000D03*
X131670000Y-85020000D03*
D13*
X105699400Y-132510000D03*
X106095800Y-120675400D03*
X105140600Y-132510000D03*
X106095800Y-120116600D03*
X121564400Y-117778610D03*
X95190000Y-111188620D03*
X121564400Y-117219810D03*
X95190000Y-110629820D03*
X92354400Y-132080000D03*
X91795600Y-132080000D03*
X139065000Y-125247400D03*
X151079200Y-117805200D03*
X139065000Y-125806200D03*
X151079200Y-117246400D03*
X118499941Y-94945190D03*
X140411200Y-94869000D03*
X113817400Y-105359200D03*
X121259600Y-100203000D03*
X151257000Y-97256600D03*
X114782600Y-100736400D03*
X121259600Y-96748600D03*
X147193000Y-98882198D03*
X147040600Y-93980000D03*
X141173200Y-93853000D03*
X121285000Y-93218000D03*
X125628400Y-93014800D03*
X114503200Y-94005400D03*
X146743924Y-93200639D03*
X124866400Y-92278200D03*
X151130000Y-92202000D03*
X121310400Y-92202000D03*
X147193000Y-91694000D03*
X130962400Y-89916000D03*
X130302000Y-87706200D03*
X147066000Y-90678000D03*
X115011200Y-80899000D03*
X114985800Y-91059000D03*
X136626600Y-91363800D03*
X118287800Y-90754200D03*
X147091400Y-89865200D03*
X124714000Y-90043000D03*
X114325400Y-90043000D03*
X121158000Y-90627200D03*
X147548600Y-89230200D03*
X147091400Y-107010200D03*
X145135600Y-107035600D03*
X121462800Y-107010200D03*
X118227000Y-107035600D03*
X151003000Y-95504000D03*
X124371260Y-95504000D03*
X115265200Y-95783400D03*
X118618000Y-96494600D03*
X140843002Y-101117400D03*
X139801600Y-100355400D03*
X118821200Y-95453200D03*
X126085600Y-95910400D03*
X124942600Y-99390200D03*
X147066000Y-94742000D03*
X101930200Y-86969600D03*
X141249400Y-88976200D03*
X118214460Y-88976200D03*
X127711200Y-87909400D03*
X147237372Y-88720983D03*
X121183400Y-88163400D03*
X151104600Y-88214200D03*
X127431800Y-85598000D03*
X147244111Y-87693490D03*
X121208800Y-85598000D03*
X151003000Y-86741000D03*
X140306900Y-86515100D03*
X118176200Y-86515100D03*
X149097617Y-84117181D03*
D14*
X118499941Y-94945190D02*
X118248494Y-94945190D01*
X118248494Y-94945190D02*
X118045304Y-94742000D01*
X118045304Y-94742000D02*
X113665000Y-94742000D01*
X113665000Y-94742000D02*
X111810799Y-92887799D01*
X111810799Y-92887799D02*
X111810799Y-90741500D01*
X140411200Y-94869000D02*
X118576131Y-94869000D01*
X118576131Y-94869000D02*
X118499941Y-94945190D01*
X121259600Y-100965000D02*
X116865400Y-105359200D01*
X116865400Y-105359200D02*
X113817400Y-105359200D01*
X121259600Y-100203000D02*
X121259600Y-100965000D01*
X114503200Y-94005400D02*
X124637800Y-94005400D01*
X124637800Y-94005400D02*
X125628400Y-93014800D01*
X93205300Y-72923400D02*
X95745300Y-70383400D01*
X115011200Y-77901800D02*
X115011200Y-80899000D01*
X95745300Y-70383400D02*
X108051600Y-70383400D01*
X108051600Y-70383400D02*
X109042200Y-71374000D01*
X109042200Y-71374000D02*
X109042200Y-74803000D01*
X109042200Y-74803000D02*
X110109000Y-75869800D01*
X110109000Y-75869800D02*
X112979200Y-75869800D01*
X112979200Y-75869800D02*
X115011200Y-77901800D01*
X118287800Y-90754200D02*
X118922800Y-91389200D01*
X118922800Y-91389200D02*
X136601200Y-91389200D01*
X136601200Y-91389200D02*
X136626600Y-91363800D01*
X114576847Y-90043000D02*
X114325400Y-90043000D01*
X121158000Y-90627200D02*
X120573800Y-90043000D01*
X120573800Y-90043000D02*
X114576847Y-90043000D01*
D15*
X121462800Y-107010200D02*
X123342400Y-105130600D01*
X123342400Y-105130600D02*
X143230600Y-105130600D01*
X143230600Y-105130600D02*
X145135600Y-107035600D01*
D14*
X118227000Y-107035600D02*
X110413800Y-107035600D01*
X110413800Y-107035600D02*
X105486200Y-102108000D01*
D15*
X145135600Y-107035600D02*
X147066000Y-107035600D01*
X147066000Y-107035600D02*
X147091400Y-107010200D01*
X118227000Y-107035600D02*
X121437400Y-107035600D01*
X121437400Y-107035600D02*
X121462800Y-107010200D01*
X124371260Y-95504000D02*
X126250860Y-97383600D01*
X126250860Y-97383600D02*
X149123400Y-97383600D01*
X149123400Y-97383600D02*
X151003000Y-95504000D01*
D14*
X118795799Y-96672399D02*
X118618000Y-96494600D01*
X123240800Y-101117400D02*
X118795799Y-96672399D01*
X140843002Y-101117400D02*
X123240800Y-101117400D01*
X118821200Y-95453200D02*
X118475758Y-95453200D01*
X118475758Y-95453200D02*
X114208558Y-99720400D01*
X114208558Y-99720400D02*
X101752400Y-99720400D01*
X100364799Y-101108001D02*
X99364800Y-102108000D01*
X101752400Y-99720400D02*
X100364799Y-101108001D01*
X123723400Y-100355400D02*
X139550153Y-100355400D01*
X118821200Y-95453200D02*
X123723400Y-100355400D01*
X139550153Y-100355400D02*
X139801600Y-100355400D01*
X112496600Y-87884000D02*
X113588800Y-88976200D01*
X113588800Y-88976200D02*
X118214460Y-88976200D01*
X102844600Y-87884000D02*
X112496600Y-87884000D01*
X101930200Y-86969600D02*
X102844600Y-87884000D01*
D15*
X118214460Y-88976200D02*
X141249400Y-88976200D01*
D14*
X99364800Y-79501998D02*
X103098602Y-83235800D01*
X117500400Y-87553800D02*
X127355600Y-87553800D01*
X103098602Y-83235800D02*
X113182400Y-83235800D01*
X113182400Y-83235800D02*
X117500400Y-87553800D01*
X127355600Y-87553800D02*
X127711200Y-87909400D01*
X112810798Y-86496398D02*
X114477800Y-88163400D01*
X114477800Y-88163400D02*
X121183400Y-88163400D01*
X111810799Y-85471000D02*
X112810798Y-86470999D01*
X112810798Y-86470999D02*
X112810798Y-86496398D01*
X109677200Y-81686400D02*
X113347500Y-81686400D01*
X113347500Y-81686400D02*
X118176200Y-86515100D01*
X108788200Y-80797400D02*
X109677200Y-81686400D01*
X108788200Y-77749400D02*
X108788200Y-80797400D01*
X105486200Y-74447400D02*
X108788200Y-77749400D01*
X105486200Y-72923400D02*
X105486200Y-74447400D01*
D15*
X140129101Y-86692899D02*
X140306900Y-86515100D01*
X118176200Y-86515100D02*
X118353999Y-86692899D01*
X118353999Y-86692899D02*
X140129101Y-86692899D01*
X140306900Y-86515100D02*
X140309600Y-86512400D01*
D16*
X159716400Y-140696400D02*
X89203600Y-140696400D01*
X89203600Y-132037471D01*
X91363800Y-132037471D01*
X91363800Y-132122529D01*
X91380394Y-132205951D01*
X91412944Y-132284534D01*
X91460199Y-132355256D01*
X91520344Y-132415401D01*
X91591066Y-132462656D01*
X91669649Y-132495206D01*
X91753071Y-132511800D01*
X91838129Y-132511800D01*
X91921551Y-132495206D01*
X92000134Y-132462656D01*
X92070856Y-132415401D01*
X92075000Y-132411257D01*
X92079144Y-132415401D01*
X92149866Y-132462656D01*
X92228449Y-132495206D01*
X92311871Y-132511800D01*
X92396929Y-132511800D01*
X92480351Y-132495206D01*
X92547309Y-132467471D01*
X104708800Y-132467471D01*
X104708800Y-132552529D01*
X104725394Y-132635951D01*
X104757944Y-132714534D01*
X104805199Y-132785256D01*
X104865344Y-132845401D01*
X104936066Y-132892656D01*
X105014649Y-132925206D01*
X105098071Y-132941800D01*
X105183129Y-132941800D01*
X105266551Y-132925206D01*
X105345134Y-132892656D01*
X105415856Y-132845401D01*
X105420000Y-132841257D01*
X105424144Y-132845401D01*
X105494866Y-132892656D01*
X105573449Y-132925206D01*
X105656871Y-132941800D01*
X105741929Y-132941800D01*
X105825351Y-132925206D01*
X105903934Y-132892656D01*
X105974656Y-132845401D01*
X106034801Y-132785256D01*
X106082056Y-132714534D01*
X106114606Y-132635951D01*
X106131200Y-132552529D01*
X106131200Y-132467471D01*
X106114606Y-132384049D01*
X106082056Y-132305466D01*
X106034801Y-132234744D01*
X105974656Y-132174599D01*
X105903934Y-132127344D01*
X105825351Y-132094794D01*
X105741929Y-132078200D01*
X105656871Y-132078200D01*
X105573449Y-132094794D01*
X105494866Y-132127344D01*
X105424144Y-132174599D01*
X105420000Y-132178743D01*
X105415856Y-132174599D01*
X105345134Y-132127344D01*
X105266551Y-132094794D01*
X105183129Y-132078200D01*
X105098071Y-132078200D01*
X105014649Y-132094794D01*
X104936066Y-132127344D01*
X104865344Y-132174599D01*
X104805199Y-132234744D01*
X104757944Y-132305466D01*
X104725394Y-132384049D01*
X104708800Y-132467471D01*
X92547309Y-132467471D01*
X92558934Y-132462656D01*
X92629656Y-132415401D01*
X92689801Y-132355256D01*
X92737056Y-132284534D01*
X92769606Y-132205951D01*
X92786200Y-132122529D01*
X92786200Y-132037471D01*
X92769606Y-131954049D01*
X92737056Y-131875466D01*
X92689801Y-131804744D01*
X92629656Y-131744599D01*
X92558934Y-131697344D01*
X92480351Y-131664794D01*
X92396929Y-131648200D01*
X92311871Y-131648200D01*
X92228449Y-131664794D01*
X92149866Y-131697344D01*
X92079144Y-131744599D01*
X92075000Y-131748743D01*
X92070856Y-131744599D01*
X92000134Y-131697344D01*
X91921551Y-131664794D01*
X91838129Y-131648200D01*
X91753071Y-131648200D01*
X91669649Y-131664794D01*
X91591066Y-131697344D01*
X91520344Y-131744599D01*
X91460199Y-131804744D01*
X91412944Y-131875466D01*
X91380394Y-131954049D01*
X91363800Y-132037471D01*
X89203600Y-132037471D01*
X89203600Y-125204871D01*
X138633200Y-125204871D01*
X138633200Y-125289929D01*
X138649794Y-125373351D01*
X138682344Y-125451934D01*
X138729599Y-125522656D01*
X138733743Y-125526800D01*
X138729599Y-125530944D01*
X138682344Y-125601666D01*
X138649794Y-125680249D01*
X138633200Y-125763671D01*
X138633200Y-125848729D01*
X138649794Y-125932151D01*
X138682344Y-126010734D01*
X138729599Y-126081456D01*
X138789744Y-126141601D01*
X138860466Y-126188856D01*
X138939049Y-126221406D01*
X139022471Y-126238000D01*
X139107529Y-126238000D01*
X139190951Y-126221406D01*
X139269534Y-126188856D01*
X139340256Y-126141601D01*
X139400401Y-126081456D01*
X139447656Y-126010734D01*
X139480206Y-125932151D01*
X139496800Y-125848729D01*
X139496800Y-125763671D01*
X139480206Y-125680249D01*
X139447656Y-125601666D01*
X139400401Y-125530944D01*
X139396257Y-125526800D01*
X139400401Y-125522656D01*
X139447656Y-125451934D01*
X139480206Y-125373351D01*
X139496800Y-125289929D01*
X139496800Y-125204871D01*
X139480206Y-125121449D01*
X139447656Y-125042866D01*
X139400401Y-124972144D01*
X139340256Y-124911999D01*
X139269534Y-124864744D01*
X139190951Y-124832194D01*
X139107529Y-124815600D01*
X139022471Y-124815600D01*
X138939049Y-124832194D01*
X138860466Y-124864744D01*
X138789744Y-124911999D01*
X138729599Y-124972144D01*
X138682344Y-125042866D01*
X138649794Y-125121449D01*
X138633200Y-125204871D01*
X89203600Y-125204871D01*
X89203600Y-122662784D01*
X121266190Y-122662784D01*
X121266190Y-122813136D01*
X121295522Y-122960598D01*
X121353059Y-123099504D01*
X121436590Y-123224516D01*
X121542904Y-123330830D01*
X121667916Y-123414361D01*
X121806822Y-123471898D01*
X121954284Y-123501230D01*
X122104636Y-123501230D01*
X122156317Y-123490950D01*
X142761000Y-123490950D01*
X142761000Y-123641050D01*
X142790283Y-123788267D01*
X142847724Y-123926942D01*
X142931116Y-124051747D01*
X143037253Y-124157884D01*
X143162058Y-124241276D01*
X143300733Y-124298717D01*
X143447950Y-124328000D01*
X143598050Y-124328000D01*
X143745267Y-124298717D01*
X143883942Y-124241276D01*
X144008747Y-124157884D01*
X144114884Y-124051747D01*
X144198276Y-123926942D01*
X144255717Y-123788267D01*
X144285000Y-123641050D01*
X144285000Y-123490950D01*
X144255717Y-123343733D01*
X144198276Y-123205058D01*
X144114884Y-123080253D01*
X144008747Y-122974116D01*
X143883942Y-122890724D01*
X143745267Y-122833283D01*
X143598050Y-122804000D01*
X143447950Y-122804000D01*
X143300733Y-122833283D01*
X143162058Y-122890724D01*
X143037253Y-122974116D01*
X142931116Y-123080253D01*
X142847724Y-123205058D01*
X142790283Y-123343733D01*
X142761000Y-123490950D01*
X122156317Y-123490950D01*
X122252098Y-123471898D01*
X122391004Y-123414361D01*
X122516016Y-123330830D01*
X122622330Y-123224516D01*
X122705861Y-123099504D01*
X122763398Y-122960598D01*
X122792730Y-122813136D01*
X122792730Y-122662784D01*
X122763398Y-122515322D01*
X122705861Y-122376416D01*
X122622330Y-122251404D01*
X122516016Y-122145090D01*
X122391004Y-122061559D01*
X122252098Y-122004022D01*
X122104636Y-121974690D01*
X121954284Y-121974690D01*
X121806822Y-122004022D01*
X121667916Y-122061559D01*
X121542904Y-122145090D01*
X121436590Y-122251404D01*
X121353059Y-122376416D01*
X121295522Y-122515322D01*
X121266190Y-122662784D01*
X89203600Y-122662784D01*
X89203600Y-120074071D01*
X105664000Y-120074071D01*
X105664000Y-120159129D01*
X105680594Y-120242551D01*
X105713144Y-120321134D01*
X105760399Y-120391856D01*
X105764543Y-120396000D01*
X105760399Y-120400144D01*
X105713144Y-120470866D01*
X105680594Y-120549449D01*
X105664000Y-120632871D01*
X105664000Y-120717929D01*
X105680594Y-120801351D01*
X105713144Y-120879934D01*
X105760399Y-120950656D01*
X105820544Y-121010801D01*
X105891266Y-121058056D01*
X105969849Y-121090606D01*
X106053271Y-121107200D01*
X106138329Y-121107200D01*
X106221751Y-121090606D01*
X106300334Y-121058056D01*
X106371056Y-121010801D01*
X106431201Y-120950656D01*
X106478456Y-120879934D01*
X106511006Y-120801351D01*
X106527600Y-120717929D01*
X106527600Y-120632871D01*
X106511006Y-120549449D01*
X106478456Y-120470866D01*
X106431201Y-120400144D01*
X106427057Y-120396000D01*
X106431201Y-120391856D01*
X106478456Y-120321134D01*
X106511006Y-120242551D01*
X106527600Y-120159129D01*
X106527600Y-120074071D01*
X106511006Y-119990649D01*
X106478456Y-119912066D01*
X106431201Y-119841344D01*
X106371056Y-119781199D01*
X106300334Y-119733944D01*
X106221751Y-119701394D01*
X106138329Y-119684800D01*
X106053271Y-119684800D01*
X105969849Y-119701394D01*
X105891266Y-119733944D01*
X105820544Y-119781199D01*
X105760399Y-119841344D01*
X105713144Y-119912066D01*
X105680594Y-119990649D01*
X105664000Y-120074071D01*
X89203600Y-120074071D01*
X89203600Y-117177281D01*
X121132600Y-117177281D01*
X121132600Y-117262339D01*
X121149194Y-117345761D01*
X121181744Y-117424344D01*
X121228999Y-117495066D01*
X121233143Y-117499210D01*
X121228999Y-117503354D01*
X121181744Y-117574076D01*
X121149194Y-117652659D01*
X121132600Y-117736081D01*
X121132600Y-117821139D01*
X121149194Y-117904561D01*
X121181744Y-117983144D01*
X121228999Y-118053866D01*
X121289144Y-118114011D01*
X121359866Y-118161266D01*
X121438449Y-118193816D01*
X121521871Y-118210410D01*
X121606929Y-118210410D01*
X121690351Y-118193816D01*
X121768934Y-118161266D01*
X121839656Y-118114011D01*
X121899801Y-118053866D01*
X121947056Y-117983144D01*
X121979606Y-117904561D01*
X121996200Y-117821139D01*
X121996200Y-117736081D01*
X121979606Y-117652659D01*
X121947056Y-117574076D01*
X121899801Y-117503354D01*
X121895657Y-117499210D01*
X121899801Y-117495066D01*
X121947056Y-117424344D01*
X121979606Y-117345761D01*
X121996200Y-117262339D01*
X121996200Y-117203871D01*
X150647400Y-117203871D01*
X150647400Y-117288929D01*
X150663994Y-117372351D01*
X150696544Y-117450934D01*
X150743799Y-117521656D01*
X150747943Y-117525800D01*
X150743799Y-117529944D01*
X150696544Y-117600666D01*
X150663994Y-117679249D01*
X150647400Y-117762671D01*
X150647400Y-117847729D01*
X150663994Y-117931151D01*
X150696544Y-118009734D01*
X150743799Y-118080456D01*
X150803944Y-118140601D01*
X150874666Y-118187856D01*
X150953249Y-118220406D01*
X151036671Y-118237000D01*
X151121729Y-118237000D01*
X151205151Y-118220406D01*
X151283734Y-118187856D01*
X151354456Y-118140601D01*
X151414601Y-118080456D01*
X151461856Y-118009734D01*
X151494406Y-117931151D01*
X151511000Y-117847729D01*
X151511000Y-117762671D01*
X151494406Y-117679249D01*
X151461856Y-117600666D01*
X151414601Y-117529944D01*
X151410457Y-117525800D01*
X151414601Y-117521656D01*
X151461856Y-117450934D01*
X151494406Y-117372351D01*
X151511000Y-117288929D01*
X151511000Y-117203871D01*
X151494406Y-117120449D01*
X151461856Y-117041866D01*
X151414601Y-116971144D01*
X151354456Y-116910999D01*
X151283734Y-116863744D01*
X151205151Y-116831194D01*
X151121729Y-116814600D01*
X151036671Y-116814600D01*
X150953249Y-116831194D01*
X150874666Y-116863744D01*
X150803944Y-116910999D01*
X150743799Y-116971144D01*
X150696544Y-117041866D01*
X150663994Y-117120449D01*
X150647400Y-117203871D01*
X121996200Y-117203871D01*
X121996200Y-117177281D01*
X121979606Y-117093859D01*
X121947056Y-117015276D01*
X121899801Y-116944554D01*
X121839656Y-116884409D01*
X121768934Y-116837154D01*
X121690351Y-116804604D01*
X121606929Y-116788010D01*
X121521871Y-116788010D01*
X121438449Y-116804604D01*
X121359866Y-116837154D01*
X121289144Y-116884409D01*
X121228999Y-116944554D01*
X121181744Y-117015276D01*
X121149194Y-117093859D01*
X121132600Y-117177281D01*
X89203600Y-117177281D01*
X89203600Y-110587291D01*
X94758200Y-110587291D01*
X94758200Y-110672349D01*
X94774794Y-110755771D01*
X94807344Y-110834354D01*
X94854599Y-110905076D01*
X94858743Y-110909220D01*
X94854599Y-110913364D01*
X94807344Y-110984086D01*
X94774794Y-111062669D01*
X94758200Y-111146091D01*
X94758200Y-111231149D01*
X94774794Y-111314571D01*
X94807344Y-111393154D01*
X94854599Y-111463876D01*
X94914744Y-111524021D01*
X94985466Y-111571276D01*
X95064049Y-111603826D01*
X95147471Y-111620420D01*
X95232529Y-111620420D01*
X95315951Y-111603826D01*
X95394534Y-111571276D01*
X95465256Y-111524021D01*
X95525401Y-111463876D01*
X95572656Y-111393154D01*
X95605206Y-111314571D01*
X95621800Y-111231149D01*
X95621800Y-111146091D01*
X95605206Y-111062669D01*
X95572656Y-110984086D01*
X95525401Y-110913364D01*
X95521257Y-110909220D01*
X95525401Y-110905076D01*
X95572656Y-110834354D01*
X95605206Y-110755771D01*
X95621800Y-110672349D01*
X95621800Y-110587291D01*
X95605206Y-110503869D01*
X95572656Y-110425286D01*
X95525401Y-110354564D01*
X95465256Y-110294419D01*
X95394534Y-110247164D01*
X95315951Y-110214614D01*
X95232529Y-110198020D01*
X95147471Y-110198020D01*
X95064049Y-110214614D01*
X94985466Y-110247164D01*
X94914744Y-110294419D01*
X94854599Y-110354564D01*
X94807344Y-110425286D01*
X94774794Y-110503869D01*
X94758200Y-110587291D01*
X89203600Y-110587291D01*
X89203600Y-101984492D01*
X91951300Y-101984492D01*
X91951300Y-102231508D01*
X91999490Y-102473778D01*
X92094019Y-102701992D01*
X92231254Y-102907379D01*
X92405921Y-103082046D01*
X92611308Y-103219281D01*
X92839522Y-103313810D01*
X93081792Y-103362000D01*
X93328808Y-103362000D01*
X93571078Y-103313810D01*
X93799292Y-103219281D01*
X94004679Y-103082046D01*
X94179346Y-102907379D01*
X94316581Y-102701992D01*
X94411110Y-102473778D01*
X94459300Y-102231508D01*
X94459300Y-101984492D01*
X98110800Y-101984492D01*
X98110800Y-102231508D01*
X98158990Y-102473778D01*
X98253519Y-102701992D01*
X98390754Y-102907379D01*
X98565421Y-103082046D01*
X98770808Y-103219281D01*
X98999022Y-103313810D01*
X99241292Y-103362000D01*
X99488308Y-103362000D01*
X99730578Y-103313810D01*
X99958792Y-103219281D01*
X100164179Y-103082046D01*
X100338846Y-102907379D01*
X100476081Y-102701992D01*
X100570610Y-102473778D01*
X100618800Y-102231508D01*
X100618800Y-101984492D01*
X104232200Y-101984492D01*
X104232200Y-102231508D01*
X104280390Y-102473778D01*
X104374919Y-102701992D01*
X104512154Y-102907379D01*
X104686821Y-103082046D01*
X104892208Y-103219281D01*
X105120422Y-103313810D01*
X105362692Y-103362000D01*
X105609708Y-103362000D01*
X105851978Y-103313810D01*
X106039571Y-103236107D01*
X110112323Y-107308860D01*
X110125042Y-107324358D01*
X110140540Y-107337077D01*
X110140545Y-107337082D01*
X110150926Y-107345601D01*
X110186924Y-107375144D01*
X110256719Y-107412450D01*
X110257525Y-107412881D01*
X110334131Y-107436119D01*
X110341404Y-107436835D01*
X110393840Y-107442000D01*
X110393847Y-107442000D01*
X110413800Y-107443965D01*
X110433753Y-107442000D01*
X117921436Y-107442000D01*
X117943405Y-107460029D01*
X118031657Y-107507201D01*
X118127415Y-107536249D01*
X118202053Y-107543600D01*
X121412456Y-107543600D01*
X121437400Y-107546057D01*
X121462344Y-107543600D01*
X121462347Y-107543600D01*
X121536985Y-107536249D01*
X121632743Y-107507201D01*
X121720995Y-107460029D01*
X121798348Y-107396548D01*
X121814255Y-107377165D01*
X123552820Y-105638600D01*
X143020180Y-105638600D01*
X144758745Y-107377165D01*
X144774652Y-107396548D01*
X144852005Y-107460029D01*
X144940257Y-107507201D01*
X145036015Y-107536249D01*
X145110653Y-107543600D01*
X145110656Y-107543600D01*
X145135600Y-107546057D01*
X145160544Y-107543600D01*
X147041056Y-107543600D01*
X147066000Y-107546057D01*
X147090944Y-107543600D01*
X147090947Y-107543600D01*
X147165585Y-107536249D01*
X147261343Y-107507201D01*
X147349595Y-107460029D01*
X147426948Y-107396548D01*
X147442855Y-107377165D01*
X147468250Y-107351770D01*
X147515829Y-107293795D01*
X147563000Y-107205543D01*
X147592048Y-107109784D01*
X147601857Y-107010201D01*
X147592048Y-106910616D01*
X147563000Y-106814857D01*
X147515829Y-106726605D01*
X147452347Y-106649253D01*
X147374995Y-106585771D01*
X147286743Y-106538600D01*
X147190984Y-106509552D01*
X147091399Y-106499743D01*
X146991816Y-106509552D01*
X146932319Y-106527600D01*
X145346020Y-106527600D01*
X143607455Y-104789035D01*
X143591548Y-104769652D01*
X143514195Y-104706171D01*
X143425943Y-104658999D01*
X143330185Y-104629951D01*
X143255547Y-104622600D01*
X143255544Y-104622600D01*
X143230600Y-104620143D01*
X143205656Y-104622600D01*
X123367344Y-104622600D01*
X123342400Y-104620143D01*
X123317456Y-104622600D01*
X123317453Y-104622600D01*
X123242815Y-104629951D01*
X123147057Y-104658999D01*
X123058805Y-104706171D01*
X122981452Y-104769652D01*
X122965545Y-104789035D01*
X121226980Y-106527600D01*
X118202053Y-106527600D01*
X118127415Y-106534951D01*
X118031657Y-106563999D01*
X117943405Y-106611171D01*
X117921436Y-106629200D01*
X110582137Y-106629200D01*
X106614307Y-102661371D01*
X106692010Y-102473778D01*
X106740200Y-102231508D01*
X106740200Y-101984492D01*
X110556799Y-101984492D01*
X110556799Y-102231508D01*
X110604989Y-102473778D01*
X110699518Y-102701992D01*
X110836753Y-102907379D01*
X111011420Y-103082046D01*
X111216807Y-103219281D01*
X111445021Y-103313810D01*
X111687291Y-103362000D01*
X111934307Y-103362000D01*
X112176577Y-103313810D01*
X112404791Y-103219281D01*
X112610178Y-103082046D01*
X112784845Y-102907379D01*
X112922080Y-102701992D01*
X113016609Y-102473778D01*
X113064799Y-102231508D01*
X113064799Y-101984492D01*
X113016609Y-101742222D01*
X112922080Y-101514008D01*
X112784845Y-101308621D01*
X112610178Y-101133954D01*
X112404791Y-100996719D01*
X112176577Y-100902190D01*
X111934307Y-100854000D01*
X111687291Y-100854000D01*
X111445021Y-100902190D01*
X111216807Y-100996719D01*
X111011420Y-101133954D01*
X110836753Y-101308621D01*
X110699518Y-101514008D01*
X110604989Y-101742222D01*
X110556799Y-101984492D01*
X106740200Y-101984492D01*
X106692010Y-101742222D01*
X106597481Y-101514008D01*
X106460246Y-101308621D01*
X106285579Y-101133954D01*
X106080192Y-100996719D01*
X105851978Y-100902190D01*
X105609708Y-100854000D01*
X105362692Y-100854000D01*
X105120422Y-100902190D01*
X104892208Y-100996719D01*
X104686821Y-101133954D01*
X104512154Y-101308621D01*
X104374919Y-101514008D01*
X104280390Y-101742222D01*
X104232200Y-101984492D01*
X100618800Y-101984492D01*
X100570610Y-101742222D01*
X100492907Y-101554629D01*
X101353665Y-100693871D01*
X114350800Y-100693871D01*
X114350800Y-100778929D01*
X114367394Y-100862351D01*
X114399944Y-100940934D01*
X114447199Y-101011656D01*
X114507344Y-101071801D01*
X114578066Y-101119056D01*
X114656649Y-101151606D01*
X114740071Y-101168200D01*
X114825129Y-101168200D01*
X114908551Y-101151606D01*
X114987134Y-101119056D01*
X115057856Y-101071801D01*
X115118001Y-101011656D01*
X115165256Y-100940934D01*
X115197806Y-100862351D01*
X115214400Y-100778929D01*
X115214400Y-100693871D01*
X115197806Y-100610449D01*
X115165256Y-100531866D01*
X115118001Y-100461144D01*
X115057856Y-100400999D01*
X114987134Y-100353744D01*
X114908551Y-100321194D01*
X114825129Y-100304600D01*
X114740071Y-100304600D01*
X114656649Y-100321194D01*
X114578066Y-100353744D01*
X114507344Y-100400999D01*
X114447199Y-100461144D01*
X114399944Y-100531866D01*
X114367394Y-100610449D01*
X114350800Y-100693871D01*
X101353665Y-100693871D01*
X101920736Y-100126800D01*
X114188605Y-100126800D01*
X114208558Y-100128765D01*
X114228511Y-100126800D01*
X114228518Y-100126800D01*
X114288226Y-100120919D01*
X114364833Y-100097681D01*
X114435434Y-100059944D01*
X114497316Y-100009158D01*
X114510040Y-99993654D01*
X118279073Y-96224621D01*
X118235344Y-96290066D01*
X118202794Y-96368649D01*
X118186200Y-96452071D01*
X118186200Y-96537129D01*
X118202794Y-96620551D01*
X118235344Y-96699134D01*
X118282599Y-96769856D01*
X118342744Y-96830001D01*
X118413466Y-96877256D01*
X118434726Y-96886062D01*
X118494317Y-96945653D01*
X121324267Y-99775604D01*
X121302129Y-99771200D01*
X121217071Y-99771200D01*
X121133649Y-99787794D01*
X121055066Y-99820344D01*
X120984344Y-99867599D01*
X120924199Y-99927744D01*
X120876944Y-99998466D01*
X120844394Y-100077049D01*
X120827800Y-100160471D01*
X120827800Y-100245529D01*
X120844394Y-100328951D01*
X120853200Y-100350211D01*
X120853201Y-100796663D01*
X116697064Y-104952800D01*
X113964611Y-104952800D01*
X113943351Y-104943994D01*
X113859929Y-104927400D01*
X113774871Y-104927400D01*
X113691449Y-104943994D01*
X113612866Y-104976544D01*
X113542144Y-105023799D01*
X113481999Y-105083944D01*
X113434744Y-105154666D01*
X113402194Y-105233249D01*
X113385600Y-105316671D01*
X113385600Y-105401729D01*
X113402194Y-105485151D01*
X113434744Y-105563734D01*
X113481999Y-105634456D01*
X113542144Y-105694601D01*
X113612866Y-105741856D01*
X113691449Y-105774406D01*
X113774871Y-105791000D01*
X113859929Y-105791000D01*
X113943351Y-105774406D01*
X113964611Y-105765600D01*
X116845447Y-105765600D01*
X116865400Y-105767565D01*
X116885353Y-105765600D01*
X116885360Y-105765600D01*
X116945068Y-105759719D01*
X117021675Y-105736481D01*
X117092276Y-105698744D01*
X117154158Y-105647958D01*
X117166882Y-105632454D01*
X121532854Y-101266482D01*
X121548358Y-101253758D01*
X121599144Y-101191876D01*
X121636881Y-101121275D01*
X121660119Y-101044668D01*
X121666000Y-100984960D01*
X121666000Y-100984954D01*
X121667965Y-100965001D01*
X121666000Y-100945048D01*
X121666000Y-100350211D01*
X121674806Y-100328951D01*
X121691400Y-100245529D01*
X121691400Y-100160471D01*
X121686996Y-100138333D01*
X122939323Y-101390660D01*
X122952042Y-101406158D01*
X122967540Y-101418877D01*
X122967545Y-101418882D01*
X122988546Y-101436117D01*
X123013924Y-101456944D01*
X123066941Y-101485282D01*
X123084525Y-101494681D01*
X123161131Y-101517919D01*
X123168404Y-101518635D01*
X123220840Y-101523800D01*
X123220847Y-101523800D01*
X123240800Y-101525765D01*
X123260753Y-101523800D01*
X140695791Y-101523800D01*
X140717051Y-101532606D01*
X140800473Y-101549200D01*
X140885531Y-101549200D01*
X140968953Y-101532606D01*
X141047536Y-101500056D01*
X141118258Y-101452801D01*
X141178403Y-101392656D01*
X141225658Y-101321934D01*
X141258208Y-101243351D01*
X141274802Y-101159929D01*
X141274802Y-101074871D01*
X141258208Y-100991449D01*
X141225658Y-100912866D01*
X141178403Y-100842144D01*
X141118258Y-100781999D01*
X141047536Y-100734744D01*
X140968953Y-100702194D01*
X140885531Y-100685600D01*
X140800473Y-100685600D01*
X140717051Y-100702194D01*
X140695791Y-100711000D01*
X140046626Y-100711000D01*
X140076856Y-100690801D01*
X140137001Y-100630656D01*
X140184256Y-100559934D01*
X140216806Y-100481351D01*
X140233400Y-100397929D01*
X140233400Y-100312871D01*
X140216806Y-100229449D01*
X140184256Y-100150866D01*
X140137001Y-100080144D01*
X140076856Y-100019999D01*
X140006134Y-99972744D01*
X139927551Y-99940194D01*
X139844129Y-99923600D01*
X139759071Y-99923600D01*
X139675649Y-99940194D01*
X139654389Y-99949000D01*
X123891737Y-99949000D01*
X123290408Y-99347671D01*
X124510800Y-99347671D01*
X124510800Y-99432729D01*
X124527394Y-99516151D01*
X124559944Y-99594734D01*
X124607199Y-99665456D01*
X124667344Y-99725601D01*
X124738066Y-99772856D01*
X124816649Y-99805406D01*
X124900071Y-99822000D01*
X124985129Y-99822000D01*
X125068551Y-99805406D01*
X125147134Y-99772856D01*
X125217856Y-99725601D01*
X125278001Y-99665456D01*
X125325256Y-99594734D01*
X125357806Y-99516151D01*
X125374400Y-99432729D01*
X125374400Y-99347671D01*
X125357806Y-99264249D01*
X125325256Y-99185666D01*
X125278001Y-99114944D01*
X125217856Y-99054799D01*
X125147134Y-99007544D01*
X125068551Y-98974994D01*
X124985129Y-98958400D01*
X124900071Y-98958400D01*
X124816649Y-98974994D01*
X124738066Y-99007544D01*
X124667344Y-99054799D01*
X124607199Y-99114944D01*
X124559944Y-99185666D01*
X124527394Y-99264249D01*
X124510800Y-99347671D01*
X123290408Y-99347671D01*
X122782406Y-98839669D01*
X146761200Y-98839669D01*
X146761200Y-98924727D01*
X146777794Y-99008149D01*
X146810344Y-99086732D01*
X146857599Y-99157454D01*
X146917744Y-99217599D01*
X146988466Y-99264854D01*
X147067049Y-99297404D01*
X147150471Y-99313998D01*
X147235529Y-99313998D01*
X147318951Y-99297404D01*
X147397534Y-99264854D01*
X147468256Y-99217599D01*
X147528401Y-99157454D01*
X147575656Y-99086732D01*
X147608206Y-99008149D01*
X147624800Y-98924727D01*
X147624800Y-98839669D01*
X147608206Y-98756247D01*
X147575656Y-98677664D01*
X147528401Y-98606942D01*
X147468256Y-98546797D01*
X147397534Y-98499542D01*
X147318951Y-98466992D01*
X147235529Y-98450398D01*
X147150471Y-98450398D01*
X147067049Y-98466992D01*
X146988466Y-98499542D01*
X146917744Y-98546797D01*
X146857599Y-98606942D01*
X146810344Y-98677664D01*
X146777794Y-98756247D01*
X146761200Y-98839669D01*
X122782406Y-98839669D01*
X121087375Y-97144639D01*
X121133649Y-97163806D01*
X121217071Y-97180400D01*
X121302129Y-97180400D01*
X121385551Y-97163806D01*
X121464134Y-97131256D01*
X121534856Y-97084001D01*
X121595001Y-97023856D01*
X121642256Y-96953134D01*
X121674806Y-96874551D01*
X121691400Y-96791129D01*
X121691400Y-96706071D01*
X121674806Y-96622649D01*
X121642256Y-96544066D01*
X121595001Y-96473344D01*
X121534856Y-96413199D01*
X121464134Y-96365944D01*
X121385551Y-96333394D01*
X121302129Y-96316800D01*
X121217071Y-96316800D01*
X121133649Y-96333394D01*
X121055066Y-96365944D01*
X120984344Y-96413199D01*
X120924199Y-96473344D01*
X120876944Y-96544066D01*
X120844394Y-96622649D01*
X120827800Y-96706071D01*
X120827800Y-96791129D01*
X120844394Y-96874551D01*
X120863561Y-96920825D01*
X119218136Y-95275400D01*
X123917436Y-95275400D01*
X123899660Y-95308657D01*
X123870612Y-95404416D01*
X123860803Y-95504000D01*
X123870612Y-95603584D01*
X123899660Y-95699343D01*
X123946831Y-95787595D01*
X123994410Y-95845570D01*
X125874005Y-97725165D01*
X125889912Y-97744548D01*
X125967265Y-97808029D01*
X126055517Y-97855201D01*
X126151275Y-97884249D01*
X126225913Y-97891600D01*
X126225916Y-97891600D01*
X126250860Y-97894057D01*
X126275804Y-97891600D01*
X149098456Y-97891600D01*
X149123400Y-97894057D01*
X149148344Y-97891600D01*
X149148347Y-97891600D01*
X149222985Y-97884249D01*
X149318743Y-97855201D01*
X149406995Y-97808029D01*
X149484348Y-97744548D01*
X149500255Y-97725165D01*
X150011349Y-97214071D01*
X150825200Y-97214071D01*
X150825200Y-97299129D01*
X150841794Y-97382551D01*
X150874344Y-97461134D01*
X150921599Y-97531856D01*
X150981744Y-97592001D01*
X151052466Y-97639256D01*
X151131049Y-97671806D01*
X151214471Y-97688400D01*
X151299529Y-97688400D01*
X151382951Y-97671806D01*
X151461534Y-97639256D01*
X151532256Y-97592001D01*
X151592401Y-97531856D01*
X151639656Y-97461134D01*
X151672206Y-97382551D01*
X151688800Y-97299129D01*
X151688800Y-97214071D01*
X151672206Y-97130649D01*
X151639656Y-97052066D01*
X151592401Y-96981344D01*
X151532256Y-96921199D01*
X151461534Y-96873944D01*
X151382951Y-96841394D01*
X151299529Y-96824800D01*
X151214471Y-96824800D01*
X151131049Y-96841394D01*
X151052466Y-96873944D01*
X150981744Y-96921199D01*
X150921599Y-96981344D01*
X150874344Y-97052066D01*
X150841794Y-97130649D01*
X150825200Y-97214071D01*
X150011349Y-97214071D01*
X151379850Y-95845570D01*
X151427429Y-95787595D01*
X151474600Y-95699344D01*
X151503648Y-95603585D01*
X151513457Y-95504000D01*
X151503648Y-95404416D01*
X151474600Y-95308656D01*
X151427429Y-95220405D01*
X151363947Y-95143053D01*
X151286595Y-95079571D01*
X151198344Y-95032400D01*
X151102584Y-95003352D01*
X151003000Y-94993543D01*
X150903415Y-95003352D01*
X150807656Y-95032400D01*
X150719405Y-95079571D01*
X150661430Y-95127150D01*
X148912980Y-96875600D01*
X126461280Y-96875600D01*
X125874044Y-96288364D01*
X125881066Y-96293056D01*
X125959649Y-96325606D01*
X126043071Y-96342200D01*
X126128129Y-96342200D01*
X126211551Y-96325606D01*
X126290134Y-96293056D01*
X126360856Y-96245801D01*
X126421001Y-96185656D01*
X126468256Y-96114934D01*
X126500806Y-96036351D01*
X126517400Y-95952929D01*
X126517400Y-95867871D01*
X126500806Y-95784449D01*
X126468256Y-95705866D01*
X126421001Y-95635144D01*
X126360856Y-95574999D01*
X126290134Y-95527744D01*
X126211551Y-95495194D01*
X126128129Y-95478600D01*
X126043071Y-95478600D01*
X125959649Y-95495194D01*
X125881066Y-95527744D01*
X125810344Y-95574999D01*
X125750199Y-95635144D01*
X125702944Y-95705866D01*
X125670394Y-95784449D01*
X125653800Y-95867871D01*
X125653800Y-95952929D01*
X125670394Y-96036351D01*
X125702944Y-96114934D01*
X125707636Y-96121956D01*
X124861080Y-95275400D01*
X140263989Y-95275400D01*
X140285249Y-95284206D01*
X140368671Y-95300800D01*
X140453729Y-95300800D01*
X140537151Y-95284206D01*
X140615734Y-95251656D01*
X140686456Y-95204401D01*
X140746601Y-95144256D01*
X140793856Y-95073534D01*
X140826406Y-94994951D01*
X140843000Y-94911529D01*
X140843000Y-94826471D01*
X140826406Y-94743049D01*
X140793856Y-94664466D01*
X140746601Y-94593744D01*
X140686456Y-94533599D01*
X140615734Y-94486344D01*
X140537151Y-94453794D01*
X140453729Y-94437200D01*
X140368671Y-94437200D01*
X140285249Y-94453794D01*
X140263989Y-94462600D01*
X118596084Y-94462600D01*
X118576131Y-94460635D01*
X118556178Y-94462600D01*
X118556171Y-94462600D01*
X118496463Y-94468481D01*
X118419856Y-94491719D01*
X118387209Y-94509169D01*
X118346785Y-94468745D01*
X118334062Y-94453242D01*
X118283566Y-94411800D01*
X124617847Y-94411800D01*
X124637800Y-94413765D01*
X124657753Y-94411800D01*
X124657760Y-94411800D01*
X124717468Y-94405919D01*
X124794075Y-94382681D01*
X124864676Y-94344944D01*
X124926558Y-94294158D01*
X124939282Y-94278654D01*
X125407465Y-93810471D01*
X140741400Y-93810471D01*
X140741400Y-93895529D01*
X140757994Y-93978951D01*
X140790544Y-94057534D01*
X140837799Y-94128256D01*
X140897944Y-94188401D01*
X140968666Y-94235656D01*
X141047249Y-94268206D01*
X141130671Y-94284800D01*
X141215729Y-94284800D01*
X141299151Y-94268206D01*
X141377734Y-94235656D01*
X141448456Y-94188401D01*
X141508601Y-94128256D01*
X141555856Y-94057534D01*
X141588406Y-93978951D01*
X141605000Y-93895529D01*
X141605000Y-93810471D01*
X141588406Y-93727049D01*
X141555856Y-93648466D01*
X141508601Y-93577744D01*
X141448456Y-93517599D01*
X141377734Y-93470344D01*
X141299151Y-93437794D01*
X141215729Y-93421200D01*
X141130671Y-93421200D01*
X141047249Y-93437794D01*
X140968666Y-93470344D01*
X140897944Y-93517599D01*
X140837799Y-93577744D01*
X140790544Y-93648466D01*
X140757994Y-93727049D01*
X140741400Y-93810471D01*
X125407465Y-93810471D01*
X125811675Y-93406262D01*
X125832934Y-93397456D01*
X125903656Y-93350201D01*
X125963801Y-93290056D01*
X126011056Y-93219334D01*
X126036415Y-93158110D01*
X146312124Y-93158110D01*
X146312124Y-93243168D01*
X146328718Y-93326590D01*
X146361268Y-93405173D01*
X146408523Y-93475895D01*
X146468668Y-93536040D01*
X146539390Y-93583295D01*
X146617973Y-93615845D01*
X146701395Y-93632439D01*
X146783543Y-93632439D01*
X146765344Y-93644599D01*
X146705199Y-93704744D01*
X146657944Y-93775466D01*
X146625394Y-93854049D01*
X146608800Y-93937471D01*
X146608800Y-94022529D01*
X146625394Y-94105951D01*
X146657944Y-94184534D01*
X146705199Y-94255256D01*
X146765344Y-94315401D01*
X146836066Y-94362656D01*
X146848686Y-94367883D01*
X146790744Y-94406599D01*
X146730599Y-94466744D01*
X146683344Y-94537466D01*
X146650794Y-94616049D01*
X146634200Y-94699471D01*
X146634200Y-94784529D01*
X146650794Y-94867951D01*
X146683344Y-94946534D01*
X146730599Y-95017256D01*
X146790744Y-95077401D01*
X146861466Y-95124656D01*
X146940049Y-95157206D01*
X147023471Y-95173800D01*
X147108529Y-95173800D01*
X147191951Y-95157206D01*
X147270534Y-95124656D01*
X147341256Y-95077401D01*
X147401401Y-95017256D01*
X147448656Y-94946534D01*
X147481206Y-94867951D01*
X147497800Y-94784529D01*
X147497800Y-94699471D01*
X147481206Y-94616049D01*
X147448656Y-94537466D01*
X147401401Y-94466744D01*
X147341256Y-94406599D01*
X147270534Y-94359344D01*
X147257914Y-94354117D01*
X147315856Y-94315401D01*
X147376001Y-94255256D01*
X147423256Y-94184534D01*
X147455806Y-94105951D01*
X147472400Y-94022529D01*
X147472400Y-93937471D01*
X147455806Y-93854049D01*
X147423256Y-93775466D01*
X147376001Y-93704744D01*
X147315856Y-93644599D01*
X147245134Y-93597344D01*
X147166551Y-93564794D01*
X147083129Y-93548200D01*
X147000981Y-93548200D01*
X147019180Y-93536040D01*
X147079325Y-93475895D01*
X147126580Y-93405173D01*
X147159130Y-93326590D01*
X147175724Y-93243168D01*
X147175724Y-93158110D01*
X147159130Y-93074688D01*
X147126580Y-92996105D01*
X147079325Y-92925383D01*
X147019180Y-92865238D01*
X146948458Y-92817983D01*
X146869875Y-92785433D01*
X146786453Y-92768839D01*
X146701395Y-92768839D01*
X146617973Y-92785433D01*
X146539390Y-92817983D01*
X146468668Y-92865238D01*
X146408523Y-92925383D01*
X146361268Y-92996105D01*
X146328718Y-93074688D01*
X146312124Y-93158110D01*
X126036415Y-93158110D01*
X126043606Y-93140751D01*
X126060200Y-93057329D01*
X126060200Y-92972271D01*
X126043606Y-92888849D01*
X126011056Y-92810266D01*
X125963801Y-92739544D01*
X125903656Y-92679399D01*
X125832934Y-92632144D01*
X125754351Y-92599594D01*
X125670929Y-92583000D01*
X125585871Y-92583000D01*
X125502449Y-92599594D01*
X125423866Y-92632144D01*
X125353144Y-92679399D01*
X125292999Y-92739544D01*
X125245744Y-92810266D01*
X125236938Y-92831525D01*
X124469464Y-93599000D01*
X121492012Y-93599000D01*
X121560256Y-93553401D01*
X121620401Y-93493256D01*
X121667656Y-93422534D01*
X121700206Y-93343951D01*
X121716800Y-93260529D01*
X121716800Y-93175471D01*
X121700206Y-93092049D01*
X121667656Y-93013466D01*
X121620401Y-92942744D01*
X121560256Y-92882599D01*
X121489534Y-92835344D01*
X121410951Y-92802794D01*
X121327529Y-92786200D01*
X121242471Y-92786200D01*
X121159049Y-92802794D01*
X121080466Y-92835344D01*
X121009744Y-92882599D01*
X120949599Y-92942744D01*
X120902344Y-93013466D01*
X120869794Y-93092049D01*
X120853200Y-93175471D01*
X120853200Y-93260529D01*
X120869794Y-93343951D01*
X120902344Y-93422534D01*
X120949599Y-93493256D01*
X121009744Y-93553401D01*
X121077988Y-93599000D01*
X114650411Y-93599000D01*
X114629151Y-93590194D01*
X114545729Y-93573600D01*
X114460671Y-93573600D01*
X114377249Y-93590194D01*
X114298666Y-93622744D01*
X114227944Y-93669999D01*
X114167799Y-93730144D01*
X114120544Y-93800866D01*
X114087994Y-93879449D01*
X114071400Y-93962871D01*
X114071400Y-94047929D01*
X114087994Y-94131351D01*
X114120544Y-94209934D01*
X114167799Y-94280656D01*
X114222743Y-94335600D01*
X113833336Y-94335600D01*
X112217199Y-92719463D01*
X112217199Y-91930484D01*
X112404791Y-91852781D01*
X112610178Y-91715546D01*
X112784845Y-91540879D01*
X112922080Y-91335492D01*
X113016609Y-91107278D01*
X113034671Y-91016471D01*
X114554000Y-91016471D01*
X114554000Y-91101529D01*
X114570594Y-91184951D01*
X114603144Y-91263534D01*
X114650399Y-91334256D01*
X114710544Y-91394401D01*
X114781266Y-91441656D01*
X114859849Y-91474206D01*
X114943271Y-91490800D01*
X115028329Y-91490800D01*
X115111751Y-91474206D01*
X115190334Y-91441656D01*
X115261056Y-91394401D01*
X115321201Y-91334256D01*
X115368456Y-91263534D01*
X115401006Y-91184951D01*
X115417600Y-91101529D01*
X115417600Y-91016471D01*
X115401006Y-90933049D01*
X115368456Y-90854466D01*
X115321201Y-90783744D01*
X115261056Y-90723599D01*
X115190334Y-90676344D01*
X115111751Y-90643794D01*
X115028329Y-90627200D01*
X114943271Y-90627200D01*
X114859849Y-90643794D01*
X114781266Y-90676344D01*
X114710544Y-90723599D01*
X114650399Y-90783744D01*
X114603144Y-90854466D01*
X114570594Y-90933049D01*
X114554000Y-91016471D01*
X113034671Y-91016471D01*
X113064799Y-90865008D01*
X113064799Y-90617992D01*
X113016609Y-90375722D01*
X112922080Y-90147508D01*
X112823834Y-90000471D01*
X113893600Y-90000471D01*
X113893600Y-90085529D01*
X113910194Y-90168951D01*
X113942744Y-90247534D01*
X113989999Y-90318256D01*
X114050144Y-90378401D01*
X114120866Y-90425656D01*
X114199449Y-90458206D01*
X114282871Y-90474800D01*
X114367929Y-90474800D01*
X114451351Y-90458206D01*
X114472611Y-90449400D01*
X117981943Y-90449400D01*
X117952399Y-90478944D01*
X117905144Y-90549666D01*
X117872594Y-90628249D01*
X117856000Y-90711671D01*
X117856000Y-90796729D01*
X117872594Y-90880151D01*
X117905144Y-90958734D01*
X117952399Y-91029456D01*
X118012544Y-91089601D01*
X118083266Y-91136856D01*
X118104526Y-91145662D01*
X118621322Y-91662459D01*
X118634042Y-91677958D01*
X118649540Y-91690677D01*
X118649545Y-91690682D01*
X118659926Y-91699201D01*
X118695924Y-91728744D01*
X118766525Y-91766481D01*
X118843131Y-91789719D01*
X118850404Y-91790435D01*
X118902840Y-91795600D01*
X118902847Y-91795600D01*
X118922800Y-91797565D01*
X118942753Y-91795600D01*
X121163189Y-91795600D01*
X121105866Y-91819344D01*
X121035144Y-91866599D01*
X120974999Y-91926744D01*
X120927744Y-91997466D01*
X120895194Y-92076049D01*
X120878600Y-92159471D01*
X120878600Y-92244529D01*
X120895194Y-92327951D01*
X120927744Y-92406534D01*
X120974999Y-92477256D01*
X121035144Y-92537401D01*
X121105866Y-92584656D01*
X121184449Y-92617206D01*
X121267871Y-92633800D01*
X121352929Y-92633800D01*
X121436351Y-92617206D01*
X121514934Y-92584656D01*
X121585656Y-92537401D01*
X121645801Y-92477256D01*
X121693056Y-92406534D01*
X121725606Y-92327951D01*
X121742200Y-92244529D01*
X121742200Y-92235671D01*
X124434600Y-92235671D01*
X124434600Y-92320729D01*
X124451194Y-92404151D01*
X124483744Y-92482734D01*
X124530999Y-92553456D01*
X124591144Y-92613601D01*
X124661866Y-92660856D01*
X124740449Y-92693406D01*
X124823871Y-92710000D01*
X124908929Y-92710000D01*
X124992351Y-92693406D01*
X125070934Y-92660856D01*
X125141656Y-92613601D01*
X125201801Y-92553456D01*
X125249056Y-92482734D01*
X125281606Y-92404151D01*
X125298200Y-92320729D01*
X125298200Y-92235671D01*
X125283043Y-92159471D01*
X150698200Y-92159471D01*
X150698200Y-92244529D01*
X150714794Y-92327951D01*
X150747344Y-92406534D01*
X150794599Y-92477256D01*
X150854744Y-92537401D01*
X150925466Y-92584656D01*
X151004049Y-92617206D01*
X151087471Y-92633800D01*
X151172529Y-92633800D01*
X151255951Y-92617206D01*
X151334534Y-92584656D01*
X151405256Y-92537401D01*
X151465401Y-92477256D01*
X151512656Y-92406534D01*
X151545206Y-92327951D01*
X151561800Y-92244529D01*
X151561800Y-92159471D01*
X151545206Y-92076049D01*
X151512656Y-91997466D01*
X151465401Y-91926744D01*
X151405256Y-91866599D01*
X151334534Y-91819344D01*
X151255951Y-91786794D01*
X151172529Y-91770200D01*
X151087471Y-91770200D01*
X151004049Y-91786794D01*
X150925466Y-91819344D01*
X150854744Y-91866599D01*
X150794599Y-91926744D01*
X150747344Y-91997466D01*
X150714794Y-92076049D01*
X150698200Y-92159471D01*
X125283043Y-92159471D01*
X125281606Y-92152249D01*
X125249056Y-92073666D01*
X125201801Y-92002944D01*
X125141656Y-91942799D01*
X125070934Y-91895544D01*
X124992351Y-91862994D01*
X124908929Y-91846400D01*
X124823871Y-91846400D01*
X124740449Y-91862994D01*
X124661866Y-91895544D01*
X124591144Y-91942799D01*
X124530999Y-92002944D01*
X124483744Y-92073666D01*
X124451194Y-92152249D01*
X124434600Y-92235671D01*
X121742200Y-92235671D01*
X121742200Y-92159471D01*
X121725606Y-92076049D01*
X121693056Y-91997466D01*
X121645801Y-91926744D01*
X121585656Y-91866599D01*
X121514934Y-91819344D01*
X121457611Y-91795600D01*
X136581247Y-91795600D01*
X136601200Y-91797565D01*
X136621153Y-91795600D01*
X136669129Y-91795600D01*
X136752551Y-91779006D01*
X136831134Y-91746456D01*
X136901856Y-91699201D01*
X136949586Y-91651471D01*
X146761200Y-91651471D01*
X146761200Y-91736529D01*
X146777794Y-91819951D01*
X146810344Y-91898534D01*
X146857599Y-91969256D01*
X146917744Y-92029401D01*
X146988466Y-92076656D01*
X147067049Y-92109206D01*
X147150471Y-92125800D01*
X147235529Y-92125800D01*
X147318951Y-92109206D01*
X147397534Y-92076656D01*
X147468256Y-92029401D01*
X147528401Y-91969256D01*
X147575656Y-91898534D01*
X147608206Y-91819951D01*
X147624800Y-91736529D01*
X147624800Y-91651471D01*
X147608206Y-91568049D01*
X147575656Y-91489466D01*
X147528401Y-91418744D01*
X147468256Y-91358599D01*
X147397534Y-91311344D01*
X147318951Y-91278794D01*
X147235529Y-91262200D01*
X147150471Y-91262200D01*
X147067049Y-91278794D01*
X146988466Y-91311344D01*
X146917744Y-91358599D01*
X146857599Y-91418744D01*
X146810344Y-91489466D01*
X146777794Y-91568049D01*
X146761200Y-91651471D01*
X136949586Y-91651471D01*
X136962001Y-91639056D01*
X137009256Y-91568334D01*
X137041806Y-91489751D01*
X137058400Y-91406329D01*
X137058400Y-91321271D01*
X137041806Y-91237849D01*
X137009256Y-91159266D01*
X136962001Y-91088544D01*
X136901856Y-91028399D01*
X136831134Y-90981144D01*
X136752551Y-90948594D01*
X136669129Y-90932000D01*
X136584071Y-90932000D01*
X136500649Y-90948594D01*
X136422066Y-90981144D01*
X136419588Y-90982800D01*
X121403026Y-90982800D01*
X121433256Y-90962601D01*
X121493401Y-90902456D01*
X121540656Y-90831734D01*
X121573206Y-90753151D01*
X121589800Y-90669729D01*
X121589800Y-90635471D01*
X146634200Y-90635471D01*
X146634200Y-90720529D01*
X146650794Y-90803951D01*
X146683344Y-90882534D01*
X146730599Y-90953256D01*
X146790744Y-91013401D01*
X146861466Y-91060656D01*
X146940049Y-91093206D01*
X147023471Y-91109800D01*
X147108529Y-91109800D01*
X147191951Y-91093206D01*
X147270534Y-91060656D01*
X147341256Y-91013401D01*
X147401401Y-90953256D01*
X147448656Y-90882534D01*
X147481206Y-90803951D01*
X147497800Y-90720529D01*
X147497800Y-90635471D01*
X147481206Y-90552049D01*
X147448656Y-90473466D01*
X147401401Y-90402744D01*
X147341256Y-90342599D01*
X147270534Y-90295344D01*
X147225911Y-90276860D01*
X147295934Y-90247856D01*
X147366656Y-90200601D01*
X147426801Y-90140456D01*
X147474056Y-90069734D01*
X147506606Y-89991151D01*
X147523200Y-89907729D01*
X147523200Y-89822671D01*
X147506606Y-89739249D01*
X147474056Y-89660666D01*
X147470177Y-89654860D01*
X147506071Y-89662000D01*
X147591129Y-89662000D01*
X147674551Y-89645406D01*
X147753134Y-89612856D01*
X147823856Y-89565601D01*
X147884001Y-89505456D01*
X147931256Y-89434734D01*
X147963806Y-89356151D01*
X147980400Y-89272729D01*
X147980400Y-89187671D01*
X147963806Y-89104249D01*
X147931256Y-89025666D01*
X147884001Y-88954944D01*
X147823856Y-88894799D01*
X147753134Y-88847544D01*
X147674551Y-88814994D01*
X147659526Y-88812005D01*
X147669172Y-88763512D01*
X147669172Y-88678454D01*
X147652578Y-88595032D01*
X147620028Y-88516449D01*
X147572773Y-88445727D01*
X147512628Y-88385582D01*
X147441906Y-88338327D01*
X147363323Y-88305777D01*
X147279901Y-88289183D01*
X147194843Y-88289183D01*
X147111421Y-88305777D01*
X147032838Y-88338327D01*
X146962116Y-88385582D01*
X146901971Y-88445727D01*
X146854716Y-88516449D01*
X146822166Y-88595032D01*
X146805572Y-88678454D01*
X146805572Y-88763512D01*
X146822166Y-88846934D01*
X146854716Y-88925517D01*
X146901971Y-88996239D01*
X146962116Y-89056384D01*
X147032838Y-89103639D01*
X147111421Y-89136189D01*
X147126446Y-89139178D01*
X147116800Y-89187671D01*
X147116800Y-89272729D01*
X147133394Y-89356151D01*
X147165944Y-89434734D01*
X147169823Y-89440540D01*
X147133929Y-89433400D01*
X147048871Y-89433400D01*
X146965449Y-89449994D01*
X146886866Y-89482544D01*
X146816144Y-89529799D01*
X146755999Y-89589944D01*
X146708744Y-89660666D01*
X146676194Y-89739249D01*
X146659600Y-89822671D01*
X146659600Y-89907729D01*
X146676194Y-89991151D01*
X146708744Y-90069734D01*
X146755999Y-90140456D01*
X146816144Y-90200601D01*
X146886866Y-90247856D01*
X146931489Y-90266340D01*
X146861466Y-90295344D01*
X146790744Y-90342599D01*
X146730599Y-90402744D01*
X146683344Y-90473466D01*
X146650794Y-90552049D01*
X146634200Y-90635471D01*
X121589800Y-90635471D01*
X121589800Y-90584671D01*
X121573206Y-90501249D01*
X121540656Y-90422666D01*
X121493401Y-90351944D01*
X121433256Y-90291799D01*
X121362534Y-90244544D01*
X121341275Y-90235738D01*
X121106008Y-90000471D01*
X124282200Y-90000471D01*
X124282200Y-90085529D01*
X124298794Y-90168951D01*
X124331344Y-90247534D01*
X124378599Y-90318256D01*
X124438744Y-90378401D01*
X124509466Y-90425656D01*
X124588049Y-90458206D01*
X124671471Y-90474800D01*
X124756529Y-90474800D01*
X124839951Y-90458206D01*
X124918534Y-90425656D01*
X124989256Y-90378401D01*
X125049401Y-90318256D01*
X125096656Y-90247534D01*
X125129206Y-90168951D01*
X125145800Y-90085529D01*
X125145800Y-90000471D01*
X125129206Y-89917049D01*
X125096656Y-89838466D01*
X125049401Y-89767744D01*
X124989256Y-89707599D01*
X124918534Y-89660344D01*
X124839951Y-89627794D01*
X124756529Y-89611200D01*
X124671471Y-89611200D01*
X124588049Y-89627794D01*
X124509466Y-89660344D01*
X124438744Y-89707599D01*
X124378599Y-89767744D01*
X124331344Y-89838466D01*
X124298794Y-89917049D01*
X124282200Y-90000471D01*
X121106008Y-90000471D01*
X120875282Y-89769746D01*
X120862558Y-89754242D01*
X120800676Y-89703456D01*
X120730075Y-89665719D01*
X120653468Y-89642481D01*
X120593760Y-89636600D01*
X120593753Y-89636600D01*
X120573800Y-89634635D01*
X120553847Y-89636600D01*
X114472611Y-89636600D01*
X114451351Y-89627794D01*
X114367929Y-89611200D01*
X114282871Y-89611200D01*
X114199449Y-89627794D01*
X114120866Y-89660344D01*
X114050144Y-89707599D01*
X113989999Y-89767744D01*
X113942744Y-89838466D01*
X113910194Y-89917049D01*
X113893600Y-90000471D01*
X112823834Y-90000471D01*
X112784845Y-89942121D01*
X112610178Y-89767454D01*
X112404791Y-89630219D01*
X112176577Y-89535690D01*
X111934307Y-89487500D01*
X111687291Y-89487500D01*
X111445021Y-89535690D01*
X111216807Y-89630219D01*
X111011420Y-89767454D01*
X110836753Y-89942121D01*
X110699518Y-90147508D01*
X110604989Y-90375722D01*
X110556799Y-90617992D01*
X110556799Y-90865008D01*
X110604989Y-91107278D01*
X110699518Y-91335492D01*
X110836753Y-91540879D01*
X111011420Y-91715546D01*
X111216807Y-91852781D01*
X111404399Y-91930484D01*
X111404399Y-92867846D01*
X111402434Y-92887799D01*
X111404399Y-92907752D01*
X111404399Y-92907758D01*
X111407845Y-92942744D01*
X111410280Y-92967467D01*
X111418967Y-92996105D01*
X111433518Y-93044073D01*
X111471255Y-93114674D01*
X111522041Y-93176557D01*
X111537545Y-93189281D01*
X113363518Y-95015254D01*
X113376242Y-95030758D01*
X113438124Y-95081544D01*
X113508725Y-95119281D01*
X113567502Y-95137110D01*
X113585331Y-95142519D01*
X113593335Y-95143307D01*
X113645040Y-95148400D01*
X113645046Y-95148400D01*
X113664999Y-95150365D01*
X113684952Y-95148400D01*
X117876968Y-95148400D01*
X117947012Y-95218444D01*
X117959736Y-95233948D01*
X118021618Y-95284734D01*
X118052814Y-95301408D01*
X114040222Y-99314000D01*
X101772352Y-99314000D01*
X101752399Y-99312035D01*
X101732446Y-99314000D01*
X101732440Y-99314000D01*
X101680735Y-99319093D01*
X101672731Y-99319881D01*
X101654902Y-99325290D01*
X101596125Y-99343119D01*
X101525524Y-99380856D01*
X101463642Y-99431642D01*
X101450918Y-99447146D01*
X99918171Y-100979893D01*
X99730578Y-100902190D01*
X99488308Y-100854000D01*
X99241292Y-100854000D01*
X98999022Y-100902190D01*
X98770808Y-100996719D01*
X98565421Y-101133954D01*
X98390754Y-101308621D01*
X98253519Y-101514008D01*
X98158990Y-101742222D01*
X98110800Y-101984492D01*
X94459300Y-101984492D01*
X94411110Y-101742222D01*
X94316581Y-101514008D01*
X94179346Y-101308621D01*
X94004679Y-101133954D01*
X93799292Y-100996719D01*
X93571078Y-100902190D01*
X93328808Y-100854000D01*
X93081792Y-100854000D01*
X92839522Y-100902190D01*
X92611308Y-100996719D01*
X92405921Y-101133954D01*
X92231254Y-101308621D01*
X92094019Y-101514008D01*
X91999490Y-101742222D01*
X91951300Y-101984492D01*
X89203600Y-101984492D01*
X89203600Y-96218690D01*
X91951300Y-96218690D01*
X91951300Y-96465706D01*
X91999490Y-96707976D01*
X92094019Y-96936190D01*
X92231254Y-97141577D01*
X92405921Y-97316244D01*
X92611308Y-97453479D01*
X92839522Y-97548008D01*
X93081792Y-97596198D01*
X93328808Y-97596198D01*
X93571078Y-97548008D01*
X93799292Y-97453479D01*
X94004679Y-97316244D01*
X94179346Y-97141577D01*
X94316581Y-96936190D01*
X94411110Y-96707976D01*
X94459300Y-96465706D01*
X94459300Y-96218690D01*
X98110800Y-96218690D01*
X98110800Y-96465706D01*
X98158990Y-96707976D01*
X98253519Y-96936190D01*
X98390754Y-97141577D01*
X98565421Y-97316244D01*
X98770808Y-97453479D01*
X98999022Y-97548008D01*
X99241292Y-97596198D01*
X99488308Y-97596198D01*
X99730578Y-97548008D01*
X99958792Y-97453479D01*
X100164179Y-97316244D01*
X100338846Y-97141577D01*
X100476081Y-96936190D01*
X100570610Y-96707976D01*
X100618800Y-96465706D01*
X100618800Y-96218690D01*
X110556799Y-96218690D01*
X110556799Y-96465706D01*
X110604989Y-96707976D01*
X110699518Y-96936190D01*
X110836753Y-97141577D01*
X111011420Y-97316244D01*
X111216807Y-97453479D01*
X111445021Y-97548008D01*
X111687291Y-97596198D01*
X111934307Y-97596198D01*
X112176577Y-97548008D01*
X112404791Y-97453479D01*
X112610178Y-97316244D01*
X112784845Y-97141577D01*
X112922080Y-96936190D01*
X113016609Y-96707976D01*
X113064799Y-96465706D01*
X113064799Y-96218690D01*
X113016609Y-95976420D01*
X112922080Y-95748206D01*
X112917179Y-95740871D01*
X114833400Y-95740871D01*
X114833400Y-95825929D01*
X114849994Y-95909351D01*
X114882544Y-95987934D01*
X114929799Y-96058656D01*
X114989944Y-96118801D01*
X115060666Y-96166056D01*
X115139249Y-96198606D01*
X115222671Y-96215200D01*
X115307729Y-96215200D01*
X115391151Y-96198606D01*
X115469734Y-96166056D01*
X115540456Y-96118801D01*
X115600601Y-96058656D01*
X115647856Y-95987934D01*
X115680406Y-95909351D01*
X115697000Y-95825929D01*
X115697000Y-95740871D01*
X115680406Y-95657449D01*
X115647856Y-95578866D01*
X115600601Y-95508144D01*
X115540456Y-95447999D01*
X115469734Y-95400744D01*
X115391151Y-95368194D01*
X115307729Y-95351600D01*
X115222671Y-95351600D01*
X115139249Y-95368194D01*
X115060666Y-95400744D01*
X114989944Y-95447999D01*
X114929799Y-95508144D01*
X114882544Y-95578866D01*
X114849994Y-95657449D01*
X114833400Y-95740871D01*
X112917179Y-95740871D01*
X112784845Y-95542819D01*
X112610178Y-95368152D01*
X112404791Y-95230917D01*
X112176577Y-95136388D01*
X111934307Y-95088198D01*
X111687291Y-95088198D01*
X111445021Y-95136388D01*
X111216807Y-95230917D01*
X111011420Y-95368152D01*
X110836753Y-95542819D01*
X110699518Y-95748206D01*
X110604989Y-95976420D01*
X110556799Y-96218690D01*
X100618800Y-96218690D01*
X100570610Y-95976420D01*
X100476081Y-95748206D01*
X100338846Y-95542819D01*
X100164179Y-95368152D01*
X99958792Y-95230917D01*
X99730578Y-95136388D01*
X99488308Y-95088198D01*
X99241292Y-95088198D01*
X98999022Y-95136388D01*
X98770808Y-95230917D01*
X98565421Y-95368152D01*
X98390754Y-95542819D01*
X98253519Y-95748206D01*
X98158990Y-95976420D01*
X98110800Y-96218690D01*
X94459300Y-96218690D01*
X94411110Y-95976420D01*
X94316581Y-95748206D01*
X94179346Y-95542819D01*
X94004679Y-95368152D01*
X93799292Y-95230917D01*
X93571078Y-95136388D01*
X93328808Y-95088198D01*
X93081792Y-95088198D01*
X92839522Y-95136388D01*
X92611308Y-95230917D01*
X92405921Y-95368152D01*
X92231254Y-95542819D01*
X92094019Y-95748206D01*
X91999490Y-95976420D01*
X91951300Y-96218690D01*
X89203600Y-96218690D01*
X89203600Y-90617992D01*
X91951300Y-90617992D01*
X91951300Y-90865008D01*
X91999490Y-91107278D01*
X92094019Y-91335492D01*
X92231254Y-91540879D01*
X92405921Y-91715546D01*
X92611308Y-91852781D01*
X92839522Y-91947310D01*
X93081792Y-91995500D01*
X93328808Y-91995500D01*
X93571078Y-91947310D01*
X93799292Y-91852781D01*
X94004679Y-91715546D01*
X94179346Y-91540879D01*
X94316581Y-91335492D01*
X94411110Y-91107278D01*
X94459300Y-90865008D01*
X94459300Y-90617992D01*
X98110800Y-90617992D01*
X98110800Y-90865008D01*
X98158990Y-91107278D01*
X98253519Y-91335492D01*
X98390754Y-91540879D01*
X98565421Y-91715546D01*
X98770808Y-91852781D01*
X98999022Y-91947310D01*
X99241292Y-91995500D01*
X99488308Y-91995500D01*
X99730578Y-91947310D01*
X99958792Y-91852781D01*
X100164179Y-91715546D01*
X100338846Y-91540879D01*
X100476081Y-91335492D01*
X100570610Y-91107278D01*
X100618800Y-90865008D01*
X100618800Y-90617992D01*
X104232200Y-90617992D01*
X104232200Y-90865008D01*
X104280390Y-91107278D01*
X104374919Y-91335492D01*
X104512154Y-91540879D01*
X104686821Y-91715546D01*
X104892208Y-91852781D01*
X105120422Y-91947310D01*
X105362692Y-91995500D01*
X105609708Y-91995500D01*
X105851978Y-91947310D01*
X106080192Y-91852781D01*
X106285579Y-91715546D01*
X106460246Y-91540879D01*
X106597481Y-91335492D01*
X106692010Y-91107278D01*
X106740200Y-90865008D01*
X106740200Y-90617992D01*
X106692010Y-90375722D01*
X106597481Y-90147508D01*
X106460246Y-89942121D01*
X106285579Y-89767454D01*
X106080192Y-89630219D01*
X105851978Y-89535690D01*
X105609708Y-89487500D01*
X105362692Y-89487500D01*
X105120422Y-89535690D01*
X104892208Y-89630219D01*
X104686821Y-89767454D01*
X104512154Y-89942121D01*
X104374919Y-90147508D01*
X104280390Y-90375722D01*
X104232200Y-90617992D01*
X100618800Y-90617992D01*
X100570610Y-90375722D01*
X100476081Y-90147508D01*
X100338846Y-89942121D01*
X100164179Y-89767454D01*
X99958792Y-89630219D01*
X99730578Y-89535690D01*
X99488308Y-89487500D01*
X99241292Y-89487500D01*
X98999022Y-89535690D01*
X98770808Y-89630219D01*
X98565421Y-89767454D01*
X98390754Y-89942121D01*
X98253519Y-90147508D01*
X98158990Y-90375722D01*
X98110800Y-90617992D01*
X94459300Y-90617992D01*
X94411110Y-90375722D01*
X94316581Y-90147508D01*
X94179346Y-89942121D01*
X94004679Y-89767454D01*
X93799292Y-89630219D01*
X93571078Y-89535690D01*
X93328808Y-89487500D01*
X93081792Y-89487500D01*
X92839522Y-89535690D01*
X92611308Y-89630219D01*
X92405921Y-89767454D01*
X92231254Y-89942121D01*
X92094019Y-90147508D01*
X91999490Y-90375722D01*
X91951300Y-90617992D01*
X89203600Y-90617992D01*
X89203600Y-85347492D01*
X91951300Y-85347492D01*
X91951300Y-85594508D01*
X91999490Y-85836778D01*
X92094019Y-86064992D01*
X92231254Y-86270379D01*
X92405921Y-86445046D01*
X92611308Y-86582281D01*
X92839522Y-86676810D01*
X93081792Y-86725000D01*
X93328808Y-86725000D01*
X93571078Y-86676810D01*
X93799292Y-86582281D01*
X94004679Y-86445046D01*
X94179346Y-86270379D01*
X94316581Y-86064992D01*
X94411110Y-85836778D01*
X94459300Y-85594508D01*
X94459300Y-85347492D01*
X98110800Y-85347492D01*
X98110800Y-85594508D01*
X98158990Y-85836778D01*
X98253519Y-86064992D01*
X98390754Y-86270379D01*
X98565421Y-86445046D01*
X98770808Y-86582281D01*
X98999022Y-86676810D01*
X99241292Y-86725000D01*
X99488308Y-86725000D01*
X99730578Y-86676810D01*
X99958792Y-86582281D01*
X100164179Y-86445046D01*
X100338846Y-86270379D01*
X100476081Y-86064992D01*
X100570610Y-85836778D01*
X100618800Y-85594508D01*
X100618800Y-85347492D01*
X104232200Y-85347492D01*
X104232200Y-85594508D01*
X104280390Y-85836778D01*
X104374919Y-86064992D01*
X104512154Y-86270379D01*
X104686821Y-86445046D01*
X104892208Y-86582281D01*
X105120422Y-86676810D01*
X105362692Y-86725000D01*
X105609708Y-86725000D01*
X105851978Y-86676810D01*
X106080192Y-86582281D01*
X106285579Y-86445046D01*
X106460246Y-86270379D01*
X106597481Y-86064992D01*
X106692010Y-85836778D01*
X106740200Y-85594508D01*
X106740200Y-85347492D01*
X106692010Y-85105222D01*
X106597481Y-84877008D01*
X106460246Y-84671621D01*
X106285579Y-84496954D01*
X106080192Y-84359719D01*
X105851978Y-84265190D01*
X105609708Y-84217000D01*
X105362692Y-84217000D01*
X105120422Y-84265190D01*
X104892208Y-84359719D01*
X104686821Y-84496954D01*
X104512154Y-84671621D01*
X104374919Y-84877008D01*
X104280390Y-85105222D01*
X104232200Y-85347492D01*
X100618800Y-85347492D01*
X100570610Y-85105222D01*
X100476081Y-84877008D01*
X100338846Y-84671621D01*
X100164179Y-84496954D01*
X99958792Y-84359719D01*
X99730578Y-84265190D01*
X99488308Y-84217000D01*
X99241292Y-84217000D01*
X98999022Y-84265190D01*
X98770808Y-84359719D01*
X98565421Y-84496954D01*
X98390754Y-84671621D01*
X98253519Y-84877008D01*
X98158990Y-85105222D01*
X98110800Y-85347492D01*
X94459300Y-85347492D01*
X94411110Y-85105222D01*
X94316581Y-84877008D01*
X94179346Y-84671621D01*
X94004679Y-84496954D01*
X93799292Y-84359719D01*
X93571078Y-84265190D01*
X93328808Y-84217000D01*
X93081792Y-84217000D01*
X92839522Y-84265190D01*
X92611308Y-84359719D01*
X92405921Y-84496954D01*
X92231254Y-84671621D01*
X92094019Y-84877008D01*
X91999490Y-85105222D01*
X91951300Y-85347492D01*
X89203600Y-85347492D01*
X89203600Y-79378490D01*
X91951300Y-79378490D01*
X91951300Y-79625506D01*
X91999490Y-79867776D01*
X92094019Y-80095990D01*
X92231254Y-80301377D01*
X92405921Y-80476044D01*
X92611308Y-80613279D01*
X92839522Y-80707808D01*
X93081792Y-80755998D01*
X93328808Y-80755998D01*
X93571078Y-80707808D01*
X93799292Y-80613279D01*
X94004679Y-80476044D01*
X94179346Y-80301377D01*
X94316581Y-80095990D01*
X94411110Y-79867776D01*
X94459300Y-79625506D01*
X94459300Y-79378490D01*
X98110800Y-79378490D01*
X98110800Y-79625506D01*
X98158990Y-79867776D01*
X98253519Y-80095990D01*
X98390754Y-80301377D01*
X98565421Y-80476044D01*
X98770808Y-80613279D01*
X98999022Y-80707808D01*
X99241292Y-80755998D01*
X99488308Y-80755998D01*
X99730578Y-80707808D01*
X99918171Y-80630105D01*
X102797120Y-83509054D01*
X102809844Y-83524558D01*
X102871726Y-83575344D01*
X102942327Y-83613081D01*
X102995695Y-83629270D01*
X103018933Y-83636319D01*
X103026937Y-83637107D01*
X103078642Y-83642200D01*
X103078648Y-83642200D01*
X103098601Y-83644165D01*
X103118554Y-83642200D01*
X113014064Y-83642200D01*
X117128864Y-87757000D01*
X114646137Y-87757000D01*
X113169958Y-86280822D01*
X113150342Y-86244123D01*
X113099556Y-86182241D01*
X113084053Y-86169518D01*
X112938906Y-86024371D01*
X113016609Y-85836778D01*
X113064799Y-85594508D01*
X113064799Y-85347492D01*
X113016609Y-85105222D01*
X112922080Y-84877008D01*
X112784845Y-84671621D01*
X112610178Y-84496954D01*
X112404791Y-84359719D01*
X112176577Y-84265190D01*
X111934307Y-84217000D01*
X111687291Y-84217000D01*
X111445021Y-84265190D01*
X111216807Y-84359719D01*
X111011420Y-84496954D01*
X110836753Y-84671621D01*
X110699518Y-84877008D01*
X110604989Y-85105222D01*
X110556799Y-85347492D01*
X110556799Y-85594508D01*
X110604989Y-85836778D01*
X110699518Y-86064992D01*
X110836753Y-86270379D01*
X111011420Y-86445046D01*
X111216807Y-86582281D01*
X111445021Y-86676810D01*
X111687291Y-86725000D01*
X111934307Y-86725000D01*
X112176577Y-86676810D01*
X112364170Y-86599107D01*
X112451638Y-86686575D01*
X112471254Y-86723274D01*
X112522040Y-86785156D01*
X112537543Y-86797879D01*
X114176323Y-88436660D01*
X114189042Y-88452158D01*
X114204540Y-88464877D01*
X114204545Y-88464882D01*
X114217546Y-88475551D01*
X114250924Y-88502944D01*
X114321525Y-88540681D01*
X114398131Y-88563919D01*
X114405404Y-88564635D01*
X114457840Y-88569800D01*
X113757137Y-88569800D01*
X112798081Y-87610745D01*
X112785358Y-87595242D01*
X112723476Y-87544456D01*
X112652875Y-87506719D01*
X112576268Y-87483481D01*
X112516560Y-87477600D01*
X112516553Y-87477600D01*
X112496600Y-87475635D01*
X112476647Y-87477600D01*
X103012937Y-87477600D01*
X102321662Y-86786326D01*
X102312856Y-86765066D01*
X102265601Y-86694344D01*
X102205456Y-86634199D01*
X102134734Y-86586944D01*
X102056151Y-86554394D01*
X101972729Y-86537800D01*
X101887671Y-86537800D01*
X101804249Y-86554394D01*
X101725666Y-86586944D01*
X101654944Y-86634199D01*
X101594799Y-86694344D01*
X101547544Y-86765066D01*
X101514994Y-86843649D01*
X101498400Y-86927071D01*
X101498400Y-87012129D01*
X101514994Y-87095551D01*
X101547544Y-87174134D01*
X101594799Y-87244856D01*
X101654944Y-87305001D01*
X101725666Y-87352256D01*
X101746926Y-87361062D01*
X102543122Y-88157259D01*
X102555842Y-88172758D01*
X102571340Y-88185477D01*
X102571345Y-88185482D01*
X102592346Y-88202717D01*
X102617724Y-88223544D01*
X102679809Y-88256729D01*
X102688325Y-88261281D01*
X102764931Y-88284519D01*
X102772204Y-88285235D01*
X102824640Y-88290400D01*
X102824647Y-88290400D01*
X102844600Y-88292365D01*
X102864553Y-88290400D01*
X112328264Y-88290400D01*
X113287322Y-89249459D01*
X113300042Y-89264958D01*
X113315540Y-89277677D01*
X113315545Y-89277682D01*
X113336546Y-89294917D01*
X113361924Y-89315744D01*
X113432525Y-89353481D01*
X113509131Y-89376719D01*
X113517135Y-89377507D01*
X113568840Y-89382600D01*
X113568846Y-89382600D01*
X113588799Y-89384565D01*
X113608752Y-89382600D01*
X117908896Y-89382600D01*
X117930865Y-89400629D01*
X118019117Y-89447801D01*
X118114875Y-89476849D01*
X118189513Y-89484200D01*
X130919871Y-89484200D01*
X130836449Y-89500794D01*
X130757866Y-89533344D01*
X130687144Y-89580599D01*
X130626999Y-89640744D01*
X130579744Y-89711466D01*
X130547194Y-89790049D01*
X130530600Y-89873471D01*
X130530600Y-89958529D01*
X130547194Y-90041951D01*
X130579744Y-90120534D01*
X130626999Y-90191256D01*
X130687144Y-90251401D01*
X130757866Y-90298656D01*
X130836449Y-90331206D01*
X130919871Y-90347800D01*
X131004929Y-90347800D01*
X131088351Y-90331206D01*
X131166934Y-90298656D01*
X131237656Y-90251401D01*
X131297801Y-90191256D01*
X131345056Y-90120534D01*
X131377606Y-90041951D01*
X131394200Y-89958529D01*
X131394200Y-89873471D01*
X131377606Y-89790049D01*
X131345056Y-89711466D01*
X131297801Y-89640744D01*
X131237656Y-89580599D01*
X131166934Y-89533344D01*
X131088351Y-89500794D01*
X131004929Y-89484200D01*
X141274347Y-89484200D01*
X141348985Y-89476849D01*
X141444743Y-89447801D01*
X141532995Y-89400629D01*
X141610348Y-89337148D01*
X141673829Y-89259795D01*
X141721001Y-89171543D01*
X141750049Y-89075785D01*
X141759857Y-88976200D01*
X141750049Y-88876615D01*
X141721001Y-88780857D01*
X141673829Y-88692605D01*
X141610348Y-88615252D01*
X141532995Y-88551771D01*
X141444743Y-88504599D01*
X141348985Y-88475551D01*
X141274347Y-88468200D01*
X121489257Y-88468200D01*
X121518801Y-88438656D01*
X121566056Y-88367934D01*
X121598606Y-88289351D01*
X121615200Y-88205929D01*
X121615200Y-88120871D01*
X121598606Y-88037449D01*
X121566609Y-87960200D01*
X127187264Y-87960200D01*
X127319738Y-88092674D01*
X127328544Y-88113934D01*
X127375799Y-88184656D01*
X127435944Y-88244801D01*
X127506666Y-88292056D01*
X127585249Y-88324606D01*
X127668671Y-88341200D01*
X127753729Y-88341200D01*
X127837151Y-88324606D01*
X127915734Y-88292056D01*
X127986456Y-88244801D01*
X128046601Y-88184656D01*
X128055277Y-88171671D01*
X150672800Y-88171671D01*
X150672800Y-88256729D01*
X150689394Y-88340151D01*
X150721944Y-88418734D01*
X150769199Y-88489456D01*
X150829344Y-88549601D01*
X150900066Y-88596856D01*
X150978649Y-88629406D01*
X151062071Y-88646000D01*
X151147129Y-88646000D01*
X151230551Y-88629406D01*
X151309134Y-88596856D01*
X151379856Y-88549601D01*
X151440001Y-88489456D01*
X151487256Y-88418734D01*
X151519806Y-88340151D01*
X151536400Y-88256729D01*
X151536400Y-88171671D01*
X151519806Y-88088249D01*
X151487256Y-88009666D01*
X151440001Y-87938944D01*
X151379856Y-87878799D01*
X151309134Y-87831544D01*
X151230551Y-87798994D01*
X151147129Y-87782400D01*
X151062071Y-87782400D01*
X150978649Y-87798994D01*
X150900066Y-87831544D01*
X150829344Y-87878799D01*
X150769199Y-87938944D01*
X150721944Y-88009666D01*
X150689394Y-88088249D01*
X150672800Y-88171671D01*
X128055277Y-88171671D01*
X128093856Y-88113934D01*
X128126406Y-88035351D01*
X128143000Y-87951929D01*
X128143000Y-87866871D01*
X128126406Y-87783449D01*
X128093856Y-87704866D01*
X128066331Y-87663671D01*
X129870200Y-87663671D01*
X129870200Y-87748729D01*
X129886794Y-87832151D01*
X129919344Y-87910734D01*
X129966599Y-87981456D01*
X130026744Y-88041601D01*
X130097466Y-88088856D01*
X130176049Y-88121406D01*
X130259471Y-88138000D01*
X130344529Y-88138000D01*
X130427951Y-88121406D01*
X130506534Y-88088856D01*
X130577256Y-88041601D01*
X130637401Y-87981456D01*
X130684656Y-87910734D01*
X130717206Y-87832151D01*
X130733800Y-87748729D01*
X130733800Y-87663671D01*
X130731272Y-87650961D01*
X146812311Y-87650961D01*
X146812311Y-87736019D01*
X146828905Y-87819441D01*
X146861455Y-87898024D01*
X146908710Y-87968746D01*
X146968855Y-88028891D01*
X147039577Y-88076146D01*
X147118160Y-88108696D01*
X147201582Y-88125290D01*
X147286640Y-88125290D01*
X147370062Y-88108696D01*
X147448645Y-88076146D01*
X147519367Y-88028891D01*
X147579512Y-87968746D01*
X147626767Y-87898024D01*
X147659317Y-87819441D01*
X147675911Y-87736019D01*
X147675911Y-87650961D01*
X147659317Y-87567539D01*
X147626767Y-87488956D01*
X147579512Y-87418234D01*
X147519367Y-87358089D01*
X147448645Y-87310834D01*
X147370062Y-87278284D01*
X147286640Y-87261690D01*
X147201582Y-87261690D01*
X147118160Y-87278284D01*
X147039577Y-87310834D01*
X146968855Y-87358089D01*
X146908710Y-87418234D01*
X146861455Y-87488956D01*
X146828905Y-87567539D01*
X146812311Y-87650961D01*
X130731272Y-87650961D01*
X130717206Y-87580249D01*
X130684656Y-87501666D01*
X130637401Y-87430944D01*
X130577256Y-87370799D01*
X130506534Y-87323544D01*
X130427951Y-87290994D01*
X130344529Y-87274400D01*
X130259471Y-87274400D01*
X130176049Y-87290994D01*
X130097466Y-87323544D01*
X130026744Y-87370799D01*
X129966599Y-87430944D01*
X129919344Y-87501666D01*
X129886794Y-87580249D01*
X129870200Y-87663671D01*
X128066331Y-87663671D01*
X128046601Y-87634144D01*
X127986456Y-87573999D01*
X127915734Y-87526744D01*
X127894474Y-87517938D01*
X127657081Y-87280545D01*
X127644358Y-87265042D01*
X127582476Y-87214256D01*
X127557487Y-87200899D01*
X140104157Y-87200899D01*
X140129101Y-87203356D01*
X140154045Y-87200899D01*
X140154048Y-87200899D01*
X140228686Y-87193548D01*
X140324444Y-87164500D01*
X140412696Y-87117328D01*
X140490049Y-87053847D01*
X140505957Y-87034463D01*
X140648465Y-86891954D01*
X140648470Y-86891950D01*
X140686450Y-86853970D01*
X140734029Y-86795995D01*
X140781200Y-86707744D01*
X140784012Y-86698471D01*
X150571200Y-86698471D01*
X150571200Y-86783529D01*
X150587794Y-86866951D01*
X150620344Y-86945534D01*
X150667599Y-87016256D01*
X150727744Y-87076401D01*
X150798466Y-87123656D01*
X150877049Y-87156206D01*
X150960471Y-87172800D01*
X151045529Y-87172800D01*
X151128951Y-87156206D01*
X151207534Y-87123656D01*
X151278256Y-87076401D01*
X151338401Y-87016256D01*
X151385656Y-86945534D01*
X151418206Y-86866951D01*
X151434800Y-86783529D01*
X151434800Y-86698471D01*
X151418206Y-86615049D01*
X151385656Y-86536466D01*
X151338401Y-86465744D01*
X151278256Y-86405599D01*
X151207534Y-86358344D01*
X151128951Y-86325794D01*
X151045529Y-86309200D01*
X150960471Y-86309200D01*
X150877049Y-86325794D01*
X150798466Y-86358344D01*
X150727744Y-86405599D01*
X150667599Y-86465744D01*
X150620344Y-86536466D01*
X150587794Y-86615049D01*
X150571200Y-86698471D01*
X140784012Y-86698471D01*
X140810248Y-86611984D01*
X140820057Y-86512401D01*
X140810248Y-86412816D01*
X140781200Y-86317057D01*
X140734029Y-86228806D01*
X140670547Y-86151453D01*
X140593194Y-86087971D01*
X140504943Y-86040800D01*
X140409184Y-86011752D01*
X140309599Y-86001943D01*
X140210016Y-86011752D01*
X140114256Y-86040800D01*
X140026005Y-86087971D01*
X139968030Y-86135550D01*
X139930050Y-86173530D01*
X139930046Y-86173535D01*
X139918682Y-86184899D01*
X118564419Y-86184899D01*
X118517770Y-86138250D01*
X118459795Y-86090671D01*
X118371543Y-86043500D01*
X118275784Y-86014452D01*
X118247503Y-86011666D01*
X117791308Y-85555471D01*
X120777000Y-85555471D01*
X120777000Y-85640529D01*
X120793594Y-85723951D01*
X120826144Y-85802534D01*
X120873399Y-85873256D01*
X120933544Y-85933401D01*
X121004266Y-85980656D01*
X121082849Y-86013206D01*
X121166271Y-86029800D01*
X121251329Y-86029800D01*
X121334751Y-86013206D01*
X121413334Y-85980656D01*
X121484056Y-85933401D01*
X121544201Y-85873256D01*
X121591456Y-85802534D01*
X121624006Y-85723951D01*
X121640600Y-85640529D01*
X121640600Y-85555471D01*
X127000000Y-85555471D01*
X127000000Y-85640529D01*
X127016594Y-85723951D01*
X127049144Y-85802534D01*
X127096399Y-85873256D01*
X127156544Y-85933401D01*
X127227266Y-85980656D01*
X127305849Y-86013206D01*
X127389271Y-86029800D01*
X127474329Y-86029800D01*
X127557751Y-86013206D01*
X127636334Y-85980656D01*
X127707056Y-85933401D01*
X127767201Y-85873256D01*
X127814456Y-85802534D01*
X127847006Y-85723951D01*
X127863600Y-85640529D01*
X127863600Y-85555471D01*
X127847006Y-85472049D01*
X127814456Y-85393466D01*
X127767201Y-85322744D01*
X127707056Y-85262599D01*
X127636334Y-85215344D01*
X127557751Y-85182794D01*
X127474329Y-85166200D01*
X127389271Y-85166200D01*
X127305849Y-85182794D01*
X127227266Y-85215344D01*
X127156544Y-85262599D01*
X127096399Y-85322744D01*
X127049144Y-85393466D01*
X127016594Y-85472049D01*
X127000000Y-85555471D01*
X121640600Y-85555471D01*
X121624006Y-85472049D01*
X121591456Y-85393466D01*
X121544201Y-85322744D01*
X121484056Y-85262599D01*
X121413334Y-85215344D01*
X121334751Y-85182794D01*
X121251329Y-85166200D01*
X121166271Y-85166200D01*
X121082849Y-85182794D01*
X121004266Y-85215344D01*
X120933544Y-85262599D01*
X120873399Y-85322744D01*
X120826144Y-85393466D01*
X120793594Y-85472049D01*
X120777000Y-85555471D01*
X117791308Y-85555471D01*
X116422701Y-84186864D01*
X121266190Y-84186864D01*
X121266190Y-84337216D01*
X121295522Y-84484678D01*
X121353059Y-84623584D01*
X121436590Y-84748596D01*
X121542904Y-84854910D01*
X121667916Y-84938441D01*
X121806822Y-84995978D01*
X121954284Y-85025310D01*
X122104636Y-85025310D01*
X122252098Y-84995978D01*
X122391004Y-84938441D01*
X122516016Y-84854910D01*
X122622330Y-84748596D01*
X122705861Y-84623584D01*
X122763398Y-84484678D01*
X122792730Y-84337216D01*
X122792730Y-84186864D01*
X122763398Y-84039402D01*
X122705861Y-83900496D01*
X122622330Y-83775484D01*
X122516016Y-83669170D01*
X122391004Y-83585639D01*
X122252098Y-83528102D01*
X122104636Y-83498770D01*
X121954284Y-83498770D01*
X121806822Y-83528102D01*
X121667916Y-83585639D01*
X121542904Y-83669170D01*
X121436590Y-83775484D01*
X121353059Y-83900496D01*
X121295522Y-84039402D01*
X121266190Y-84186864D01*
X116422701Y-84186864D01*
X115594787Y-83358950D01*
X142761000Y-83358950D01*
X142761000Y-83509050D01*
X142790283Y-83656267D01*
X142847724Y-83794942D01*
X142931116Y-83919747D01*
X143037253Y-84025884D01*
X143162058Y-84109276D01*
X143300733Y-84166717D01*
X143447950Y-84196000D01*
X143598050Y-84196000D01*
X143745267Y-84166717D01*
X143883942Y-84109276D01*
X143935760Y-84074652D01*
X148665817Y-84074652D01*
X148665817Y-84159710D01*
X148682411Y-84243132D01*
X148714961Y-84321715D01*
X148762216Y-84392437D01*
X148822361Y-84452582D01*
X148893083Y-84499837D01*
X148971666Y-84532387D01*
X149055088Y-84548981D01*
X149140146Y-84548981D01*
X149223568Y-84532387D01*
X149302151Y-84499837D01*
X149372873Y-84452582D01*
X149433018Y-84392437D01*
X149480273Y-84321715D01*
X149512823Y-84243132D01*
X149529417Y-84159710D01*
X149529417Y-84074652D01*
X149512823Y-83991230D01*
X149480273Y-83912647D01*
X149433018Y-83841925D01*
X149372873Y-83781780D01*
X149302151Y-83734525D01*
X149223568Y-83701975D01*
X149140146Y-83685381D01*
X149055088Y-83685381D01*
X148971666Y-83701975D01*
X148893083Y-83734525D01*
X148822361Y-83781780D01*
X148762216Y-83841925D01*
X148714961Y-83912647D01*
X148682411Y-83991230D01*
X148665817Y-84074652D01*
X143935760Y-84074652D01*
X144008747Y-84025884D01*
X144114884Y-83919747D01*
X144198276Y-83794942D01*
X144255717Y-83656267D01*
X144285000Y-83509050D01*
X144285000Y-83358950D01*
X144255717Y-83211733D01*
X144198276Y-83073058D01*
X144114884Y-82948253D01*
X144008747Y-82842116D01*
X143883942Y-82758724D01*
X143745267Y-82701283D01*
X143598050Y-82672000D01*
X143447950Y-82672000D01*
X143300733Y-82701283D01*
X143162058Y-82758724D01*
X143037253Y-82842116D01*
X142931116Y-82948253D01*
X142847724Y-83073058D01*
X142790283Y-83211733D01*
X142761000Y-83358950D01*
X115594787Y-83358950D01*
X113648981Y-81413145D01*
X113636258Y-81397642D01*
X113574376Y-81346856D01*
X113503775Y-81309119D01*
X113427168Y-81285881D01*
X113367460Y-81280000D01*
X113367453Y-81280000D01*
X113347500Y-81278035D01*
X113327547Y-81280000D01*
X109845537Y-81280000D01*
X109194600Y-80629064D01*
X109194600Y-79378490D01*
X110556799Y-79378490D01*
X110556799Y-79625506D01*
X110604989Y-79867776D01*
X110699518Y-80095990D01*
X110836753Y-80301377D01*
X111011420Y-80476044D01*
X111216807Y-80613279D01*
X111445021Y-80707808D01*
X111687291Y-80755998D01*
X111934307Y-80755998D01*
X112176577Y-80707808D01*
X112404791Y-80613279D01*
X112610178Y-80476044D01*
X112784845Y-80301377D01*
X112922080Y-80095990D01*
X113016609Y-79867776D01*
X113064799Y-79625506D01*
X113064799Y-79378490D01*
X113016609Y-79136220D01*
X112922080Y-78908006D01*
X112784845Y-78702619D01*
X112610178Y-78527952D01*
X112404791Y-78390717D01*
X112176577Y-78296188D01*
X111934307Y-78247998D01*
X111687291Y-78247998D01*
X111445021Y-78296188D01*
X111216807Y-78390717D01*
X111011420Y-78527952D01*
X110836753Y-78702619D01*
X110699518Y-78908006D01*
X110604989Y-79136220D01*
X110556799Y-79378490D01*
X109194600Y-79378490D01*
X109194600Y-77769352D01*
X109196565Y-77749399D01*
X109194600Y-77729446D01*
X109194600Y-77729440D01*
X109189507Y-77677735D01*
X109188719Y-77669731D01*
X109176225Y-77628545D01*
X109165481Y-77593125D01*
X109127744Y-77522524D01*
X109076958Y-77460642D01*
X109061455Y-77447919D01*
X105892600Y-74279064D01*
X105892600Y-74112384D01*
X106080192Y-74034681D01*
X106285579Y-73897446D01*
X106460246Y-73722779D01*
X106597481Y-73517392D01*
X106692010Y-73289178D01*
X106740200Y-73046908D01*
X106740200Y-72799892D01*
X106692010Y-72557622D01*
X106597481Y-72329408D01*
X106460246Y-72124021D01*
X106285579Y-71949354D01*
X106080192Y-71812119D01*
X105851978Y-71717590D01*
X105609708Y-71669400D01*
X105362692Y-71669400D01*
X105120422Y-71717590D01*
X104892208Y-71812119D01*
X104686821Y-71949354D01*
X104512154Y-72124021D01*
X104374919Y-72329408D01*
X104280390Y-72557622D01*
X104232200Y-72799892D01*
X104232200Y-73046908D01*
X104280390Y-73289178D01*
X104374919Y-73517392D01*
X104512154Y-73722779D01*
X104686821Y-73897446D01*
X104892208Y-74034681D01*
X105079801Y-74112384D01*
X105079801Y-74427438D01*
X105077835Y-74447400D01*
X105085681Y-74527068D01*
X105108919Y-74603674D01*
X105108920Y-74603675D01*
X105146657Y-74674276D01*
X105163749Y-74695102D01*
X105184718Y-74720654D01*
X105184724Y-74720660D01*
X105197443Y-74736158D01*
X105212941Y-74748877D01*
X108381800Y-77917736D01*
X108381801Y-80777437D01*
X108379835Y-80797400D01*
X108387681Y-80877068D01*
X108410919Y-80953674D01*
X108410920Y-80953675D01*
X108448657Y-81024276D01*
X108465749Y-81045102D01*
X108486718Y-81070654D01*
X108486724Y-81070660D01*
X108499443Y-81086158D01*
X108514941Y-81098877D01*
X109375722Y-81959659D01*
X109388442Y-81975158D01*
X109403940Y-81987877D01*
X109403945Y-81987882D01*
X109424946Y-82005117D01*
X109450324Y-82025944D01*
X109520925Y-82063681D01*
X109597531Y-82086919D01*
X109604804Y-82087635D01*
X109657240Y-82092800D01*
X109657247Y-82092800D01*
X109677200Y-82094765D01*
X109697153Y-82092800D01*
X113179164Y-82092800D01*
X117672766Y-86586403D01*
X117675552Y-86614684D01*
X117704600Y-86710443D01*
X117751771Y-86798695D01*
X117799350Y-86856670D01*
X117977140Y-87034459D01*
X117993051Y-87053847D01*
X118070404Y-87117328D01*
X118126664Y-87147400D01*
X117668736Y-87147400D01*
X113483881Y-82962545D01*
X113471158Y-82947042D01*
X113409276Y-82896256D01*
X113338675Y-82858519D01*
X113262068Y-82835281D01*
X113202360Y-82829400D01*
X113202353Y-82829400D01*
X113182400Y-82827435D01*
X113162447Y-82829400D01*
X103266938Y-82829400D01*
X100492907Y-80055369D01*
X100570610Y-79867776D01*
X100618800Y-79625506D01*
X100618800Y-79378490D01*
X104232200Y-79378490D01*
X104232200Y-79625506D01*
X104280390Y-79867776D01*
X104374919Y-80095990D01*
X104512154Y-80301377D01*
X104686821Y-80476044D01*
X104892208Y-80613279D01*
X105120422Y-80707808D01*
X105362692Y-80755998D01*
X105609708Y-80755998D01*
X105851978Y-80707808D01*
X106080192Y-80613279D01*
X106285579Y-80476044D01*
X106460246Y-80301377D01*
X106597481Y-80095990D01*
X106692010Y-79867776D01*
X106740200Y-79625506D01*
X106740200Y-79378490D01*
X106692010Y-79136220D01*
X106597481Y-78908006D01*
X106460246Y-78702619D01*
X106285579Y-78527952D01*
X106080192Y-78390717D01*
X105851978Y-78296188D01*
X105609708Y-78247998D01*
X105362692Y-78247998D01*
X105120422Y-78296188D01*
X104892208Y-78390717D01*
X104686821Y-78527952D01*
X104512154Y-78702619D01*
X104374919Y-78908006D01*
X104280390Y-79136220D01*
X104232200Y-79378490D01*
X100618800Y-79378490D01*
X100570610Y-79136220D01*
X100476081Y-78908006D01*
X100338846Y-78702619D01*
X100164179Y-78527952D01*
X99958792Y-78390717D01*
X99730578Y-78296188D01*
X99488308Y-78247998D01*
X99241292Y-78247998D01*
X98999022Y-78296188D01*
X98770808Y-78390717D01*
X98565421Y-78527952D01*
X98390754Y-78702619D01*
X98253519Y-78908006D01*
X98158990Y-79136220D01*
X98110800Y-79378490D01*
X94459300Y-79378490D01*
X94411110Y-79136220D01*
X94316581Y-78908006D01*
X94179346Y-78702619D01*
X94004679Y-78527952D01*
X93799292Y-78390717D01*
X93571078Y-78296188D01*
X93328808Y-78247998D01*
X93081792Y-78247998D01*
X92839522Y-78296188D01*
X92611308Y-78390717D01*
X92405921Y-78527952D01*
X92231254Y-78702619D01*
X92094019Y-78908006D01*
X91999490Y-79136220D01*
X91951300Y-79378490D01*
X89203600Y-79378490D01*
X89203600Y-72799892D01*
X91951300Y-72799892D01*
X91951300Y-73046908D01*
X91999490Y-73289178D01*
X92094019Y-73517392D01*
X92231254Y-73722779D01*
X92405921Y-73897446D01*
X92611308Y-74034681D01*
X92839522Y-74129210D01*
X93081792Y-74177400D01*
X93328808Y-74177400D01*
X93571078Y-74129210D01*
X93799292Y-74034681D01*
X94004679Y-73897446D01*
X94179346Y-73722779D01*
X94316581Y-73517392D01*
X94411110Y-73289178D01*
X94459300Y-73046908D01*
X94459300Y-72799892D01*
X98110800Y-72799892D01*
X98110800Y-73046908D01*
X98158990Y-73289178D01*
X98253519Y-73517392D01*
X98390754Y-73722779D01*
X98565421Y-73897446D01*
X98770808Y-74034681D01*
X98999022Y-74129210D01*
X99241292Y-74177400D01*
X99488308Y-74177400D01*
X99730578Y-74129210D01*
X99958792Y-74034681D01*
X100164179Y-73897446D01*
X100338846Y-73722779D01*
X100476081Y-73517392D01*
X100570610Y-73289178D01*
X100618800Y-73046908D01*
X100618800Y-72799892D01*
X100570610Y-72557622D01*
X100476081Y-72329408D01*
X100338846Y-72124021D01*
X100164179Y-71949354D01*
X99958792Y-71812119D01*
X99730578Y-71717590D01*
X99488308Y-71669400D01*
X99241292Y-71669400D01*
X98999022Y-71717590D01*
X98770808Y-71812119D01*
X98565421Y-71949354D01*
X98390754Y-72124021D01*
X98253519Y-72329408D01*
X98158990Y-72557622D01*
X98110800Y-72799892D01*
X94459300Y-72799892D01*
X94411110Y-72557622D01*
X94333407Y-72370029D01*
X95913636Y-70789800D01*
X107883264Y-70789800D01*
X108635800Y-71542337D01*
X108635801Y-74783037D01*
X108633835Y-74803000D01*
X108641681Y-74882668D01*
X108664919Y-74959274D01*
X108664920Y-74959275D01*
X108702657Y-75029876D01*
X108719749Y-75050702D01*
X108740718Y-75076254D01*
X108740724Y-75076260D01*
X108753443Y-75091758D01*
X108768941Y-75104477D01*
X109807522Y-76143059D01*
X109820242Y-76158558D01*
X109835740Y-76171277D01*
X109835745Y-76171282D01*
X109856746Y-76188517D01*
X109882124Y-76209344D01*
X109952725Y-76247081D01*
X110029331Y-76270319D01*
X110037335Y-76271107D01*
X110089040Y-76276200D01*
X110089046Y-76276200D01*
X110108999Y-76278165D01*
X110128952Y-76276200D01*
X112810864Y-76276200D01*
X114604800Y-78070137D01*
X114604801Y-80751787D01*
X114595994Y-80773049D01*
X114579400Y-80856471D01*
X114579400Y-80941529D01*
X114595994Y-81024951D01*
X114628544Y-81103534D01*
X114675799Y-81174256D01*
X114735944Y-81234401D01*
X114806666Y-81281656D01*
X114885249Y-81314206D01*
X114968671Y-81330800D01*
X115053729Y-81330800D01*
X115137151Y-81314206D01*
X115215734Y-81281656D01*
X115286456Y-81234401D01*
X115346601Y-81174256D01*
X115393856Y-81103534D01*
X115426406Y-81024951D01*
X115443000Y-80941529D01*
X115443000Y-80856471D01*
X115426406Y-80773049D01*
X115417600Y-80751789D01*
X115417600Y-77921753D01*
X115419565Y-77901800D01*
X115417600Y-77881847D01*
X115417600Y-77881840D01*
X115411719Y-77822132D01*
X115388481Y-77745525D01*
X115350744Y-77674924D01*
X115329917Y-77649546D01*
X115312682Y-77628545D01*
X115312677Y-77628540D01*
X115299958Y-77613042D01*
X115284461Y-77600324D01*
X113280681Y-75596545D01*
X113267958Y-75581042D01*
X113206076Y-75530256D01*
X113135475Y-75492519D01*
X113058868Y-75469281D01*
X112999160Y-75463400D01*
X112999153Y-75463400D01*
X112979200Y-75461435D01*
X112959247Y-75463400D01*
X110277337Y-75463400D01*
X109448600Y-74634664D01*
X109448600Y-72799892D01*
X110556799Y-72799892D01*
X110556799Y-73046908D01*
X110604989Y-73289178D01*
X110699518Y-73517392D01*
X110836753Y-73722779D01*
X111011420Y-73897446D01*
X111216807Y-74034681D01*
X111445021Y-74129210D01*
X111687291Y-74177400D01*
X111934307Y-74177400D01*
X112176577Y-74129210D01*
X112404791Y-74034681D01*
X112610178Y-73897446D01*
X112784845Y-73722779D01*
X112922080Y-73517392D01*
X113016609Y-73289178D01*
X113064799Y-73046908D01*
X113064799Y-72799892D01*
X113016609Y-72557622D01*
X112922080Y-72329408D01*
X112784845Y-72124021D01*
X112610178Y-71949354D01*
X112404791Y-71812119D01*
X112176577Y-71717590D01*
X111934307Y-71669400D01*
X111687291Y-71669400D01*
X111445021Y-71717590D01*
X111216807Y-71812119D01*
X111011420Y-71949354D01*
X110836753Y-72124021D01*
X110699518Y-72329408D01*
X110604989Y-72557622D01*
X110556799Y-72799892D01*
X109448600Y-72799892D01*
X109448600Y-71393953D01*
X109450565Y-71374000D01*
X109448600Y-71354047D01*
X109448600Y-71354040D01*
X109442719Y-71294332D01*
X109419481Y-71217725D01*
X109381744Y-71147124D01*
X109360917Y-71121746D01*
X109343682Y-71100745D01*
X109343677Y-71100740D01*
X109330958Y-71085242D01*
X109315461Y-71072524D01*
X108353082Y-70110146D01*
X108340358Y-70094642D01*
X108278476Y-70043856D01*
X108207875Y-70006119D01*
X108131268Y-69982881D01*
X108071560Y-69977000D01*
X108071553Y-69977000D01*
X108051600Y-69975035D01*
X108031647Y-69977000D01*
X95765252Y-69977000D01*
X95745299Y-69975035D01*
X95725346Y-69977000D01*
X95725340Y-69977000D01*
X95673635Y-69982093D01*
X95665631Y-69982881D01*
X95642393Y-69989930D01*
X95589025Y-70006119D01*
X95518424Y-70043856D01*
X95456542Y-70094642D01*
X95443818Y-70110146D01*
X93758671Y-71795293D01*
X93571078Y-71717590D01*
X93328808Y-71669400D01*
X93081792Y-71669400D01*
X92839522Y-71717590D01*
X92611308Y-71812119D01*
X92405921Y-71949354D01*
X92231254Y-72124021D01*
X92094019Y-72329408D01*
X91999490Y-72557622D01*
X91951300Y-72799892D01*
X89203600Y-72799892D01*
X89203600Y-66303600D01*
X159716401Y-66303600D01*
X159716400Y-140696400D01*
G04 #@! TA.AperFunction,Conductor*
D17*
G36*
X159716400Y-140696400D02*
G01*
X89203600Y-140696400D01*
X89203600Y-132037471D01*
X91363800Y-132037471D01*
X91363800Y-132122529D01*
X91380394Y-132205951D01*
X91412944Y-132284534D01*
X91460199Y-132355256D01*
X91520344Y-132415401D01*
X91591066Y-132462656D01*
X91669649Y-132495206D01*
X91753071Y-132511800D01*
X91838129Y-132511800D01*
X91921551Y-132495206D01*
X92000134Y-132462656D01*
X92070856Y-132415401D01*
X92075000Y-132411257D01*
X92079144Y-132415401D01*
X92149866Y-132462656D01*
X92228449Y-132495206D01*
X92311871Y-132511800D01*
X92396929Y-132511800D01*
X92480351Y-132495206D01*
X92547309Y-132467471D01*
X104708800Y-132467471D01*
X104708800Y-132552529D01*
X104725394Y-132635951D01*
X104757944Y-132714534D01*
X104805199Y-132785256D01*
X104865344Y-132845401D01*
X104936066Y-132892656D01*
X105014649Y-132925206D01*
X105098071Y-132941800D01*
X105183129Y-132941800D01*
X105266551Y-132925206D01*
X105345134Y-132892656D01*
X105415856Y-132845401D01*
X105420000Y-132841257D01*
X105424144Y-132845401D01*
X105494866Y-132892656D01*
X105573449Y-132925206D01*
X105656871Y-132941800D01*
X105741929Y-132941800D01*
X105825351Y-132925206D01*
X105903934Y-132892656D01*
X105974656Y-132845401D01*
X106034801Y-132785256D01*
X106082056Y-132714534D01*
X106114606Y-132635951D01*
X106131200Y-132552529D01*
X106131200Y-132467471D01*
X106114606Y-132384049D01*
X106082056Y-132305466D01*
X106034801Y-132234744D01*
X105974656Y-132174599D01*
X105903934Y-132127344D01*
X105825351Y-132094794D01*
X105741929Y-132078200D01*
X105656871Y-132078200D01*
X105573449Y-132094794D01*
X105494866Y-132127344D01*
X105424144Y-132174599D01*
X105420000Y-132178743D01*
X105415856Y-132174599D01*
X105345134Y-132127344D01*
X105266551Y-132094794D01*
X105183129Y-132078200D01*
X105098071Y-132078200D01*
X105014649Y-132094794D01*
X104936066Y-132127344D01*
X104865344Y-132174599D01*
X104805199Y-132234744D01*
X104757944Y-132305466D01*
X104725394Y-132384049D01*
X104708800Y-132467471D01*
X92547309Y-132467471D01*
X92558934Y-132462656D01*
X92629656Y-132415401D01*
X92689801Y-132355256D01*
X92737056Y-132284534D01*
X92769606Y-132205951D01*
X92786200Y-132122529D01*
X92786200Y-132037471D01*
X92769606Y-131954049D01*
X92737056Y-131875466D01*
X92689801Y-131804744D01*
X92629656Y-131744599D01*
X92558934Y-131697344D01*
X92480351Y-131664794D01*
X92396929Y-131648200D01*
X92311871Y-131648200D01*
X92228449Y-131664794D01*
X92149866Y-131697344D01*
X92079144Y-131744599D01*
X92075000Y-131748743D01*
X92070856Y-131744599D01*
X92000134Y-131697344D01*
X91921551Y-131664794D01*
X91838129Y-131648200D01*
X91753071Y-131648200D01*
X91669649Y-131664794D01*
X91591066Y-131697344D01*
X91520344Y-131744599D01*
X91460199Y-131804744D01*
X91412944Y-131875466D01*
X91380394Y-131954049D01*
X91363800Y-132037471D01*
X89203600Y-132037471D01*
X89203600Y-125204871D01*
X138633200Y-125204871D01*
X138633200Y-125289929D01*
X138649794Y-125373351D01*
X138682344Y-125451934D01*
X138729599Y-125522656D01*
X138733743Y-125526800D01*
X138729599Y-125530944D01*
X138682344Y-125601666D01*
X138649794Y-125680249D01*
X138633200Y-125763671D01*
X138633200Y-125848729D01*
X138649794Y-125932151D01*
X138682344Y-126010734D01*
X138729599Y-126081456D01*
X138789744Y-126141601D01*
X138860466Y-126188856D01*
X138939049Y-126221406D01*
X139022471Y-126238000D01*
X139107529Y-126238000D01*
X139190951Y-126221406D01*
X139269534Y-126188856D01*
X139340256Y-126141601D01*
X139400401Y-126081456D01*
X139447656Y-126010734D01*
X139480206Y-125932151D01*
X139496800Y-125848729D01*
X139496800Y-125763671D01*
X139480206Y-125680249D01*
X139447656Y-125601666D01*
X139400401Y-125530944D01*
X139396257Y-125526800D01*
X139400401Y-125522656D01*
X139447656Y-125451934D01*
X139480206Y-125373351D01*
X139496800Y-125289929D01*
X139496800Y-125204871D01*
X139480206Y-125121449D01*
X139447656Y-125042866D01*
X139400401Y-124972144D01*
X139340256Y-124911999D01*
X139269534Y-124864744D01*
X139190951Y-124832194D01*
X139107529Y-124815600D01*
X139022471Y-124815600D01*
X138939049Y-124832194D01*
X138860466Y-124864744D01*
X138789744Y-124911999D01*
X138729599Y-124972144D01*
X138682344Y-125042866D01*
X138649794Y-125121449D01*
X138633200Y-125204871D01*
X89203600Y-125204871D01*
X89203600Y-122662784D01*
X121266190Y-122662784D01*
X121266190Y-122813136D01*
X121295522Y-122960598D01*
X121353059Y-123099504D01*
X121436590Y-123224516D01*
X121542904Y-123330830D01*
X121667916Y-123414361D01*
X121806822Y-123471898D01*
X121954284Y-123501230D01*
X122104636Y-123501230D01*
X122156317Y-123490950D01*
X142761000Y-123490950D01*
X142761000Y-123641050D01*
X142790283Y-123788267D01*
X142847724Y-123926942D01*
X142931116Y-124051747D01*
X143037253Y-124157884D01*
X143162058Y-124241276D01*
X143300733Y-124298717D01*
X143447950Y-124328000D01*
X143598050Y-124328000D01*
X143745267Y-124298717D01*
X143883942Y-124241276D01*
X144008747Y-124157884D01*
X144114884Y-124051747D01*
X144198276Y-123926942D01*
X144255717Y-123788267D01*
X144285000Y-123641050D01*
X144285000Y-123490950D01*
X144255717Y-123343733D01*
X144198276Y-123205058D01*
X144114884Y-123080253D01*
X144008747Y-122974116D01*
X143883942Y-122890724D01*
X143745267Y-122833283D01*
X143598050Y-122804000D01*
X143447950Y-122804000D01*
X143300733Y-122833283D01*
X143162058Y-122890724D01*
X143037253Y-122974116D01*
X142931116Y-123080253D01*
X142847724Y-123205058D01*
X142790283Y-123343733D01*
X142761000Y-123490950D01*
X122156317Y-123490950D01*
X122252098Y-123471898D01*
X122391004Y-123414361D01*
X122516016Y-123330830D01*
X122622330Y-123224516D01*
X122705861Y-123099504D01*
X122763398Y-122960598D01*
X122792730Y-122813136D01*
X122792730Y-122662784D01*
X122763398Y-122515322D01*
X122705861Y-122376416D01*
X122622330Y-122251404D01*
X122516016Y-122145090D01*
X122391004Y-122061559D01*
X122252098Y-122004022D01*
X122104636Y-121974690D01*
X121954284Y-121974690D01*
X121806822Y-122004022D01*
X121667916Y-122061559D01*
X121542904Y-122145090D01*
X121436590Y-122251404D01*
X121353059Y-122376416D01*
X121295522Y-122515322D01*
X121266190Y-122662784D01*
X89203600Y-122662784D01*
X89203600Y-120074071D01*
X105664000Y-120074071D01*
X105664000Y-120159129D01*
X105680594Y-120242551D01*
X105713144Y-120321134D01*
X105760399Y-120391856D01*
X105764543Y-120396000D01*
X105760399Y-120400144D01*
X105713144Y-120470866D01*
X105680594Y-120549449D01*
X105664000Y-120632871D01*
X105664000Y-120717929D01*
X105680594Y-120801351D01*
X105713144Y-120879934D01*
X105760399Y-120950656D01*
X105820544Y-121010801D01*
X105891266Y-121058056D01*
X105969849Y-121090606D01*
X106053271Y-121107200D01*
X106138329Y-121107200D01*
X106221751Y-121090606D01*
X106300334Y-121058056D01*
X106371056Y-121010801D01*
X106431201Y-120950656D01*
X106478456Y-120879934D01*
X106511006Y-120801351D01*
X106527600Y-120717929D01*
X106527600Y-120632871D01*
X106511006Y-120549449D01*
X106478456Y-120470866D01*
X106431201Y-120400144D01*
X106427057Y-120396000D01*
X106431201Y-120391856D01*
X106478456Y-120321134D01*
X106511006Y-120242551D01*
X106527600Y-120159129D01*
X106527600Y-120074071D01*
X106511006Y-119990649D01*
X106478456Y-119912066D01*
X106431201Y-119841344D01*
X106371056Y-119781199D01*
X106300334Y-119733944D01*
X106221751Y-119701394D01*
X106138329Y-119684800D01*
X106053271Y-119684800D01*
X105969849Y-119701394D01*
X105891266Y-119733944D01*
X105820544Y-119781199D01*
X105760399Y-119841344D01*
X105713144Y-119912066D01*
X105680594Y-119990649D01*
X105664000Y-120074071D01*
X89203600Y-120074071D01*
X89203600Y-117177281D01*
X121132600Y-117177281D01*
X121132600Y-117262339D01*
X121149194Y-117345761D01*
X121181744Y-117424344D01*
X121228999Y-117495066D01*
X121233143Y-117499210D01*
X121228999Y-117503354D01*
X121181744Y-117574076D01*
X121149194Y-117652659D01*
X121132600Y-117736081D01*
X121132600Y-117821139D01*
X121149194Y-117904561D01*
X121181744Y-117983144D01*
X121228999Y-118053866D01*
X121289144Y-118114011D01*
X121359866Y-118161266D01*
X121438449Y-118193816D01*
X121521871Y-118210410D01*
X121606929Y-118210410D01*
X121690351Y-118193816D01*
X121768934Y-118161266D01*
X121839656Y-118114011D01*
X121899801Y-118053866D01*
X121947056Y-117983144D01*
X121979606Y-117904561D01*
X121996200Y-117821139D01*
X121996200Y-117736081D01*
X121979606Y-117652659D01*
X121947056Y-117574076D01*
X121899801Y-117503354D01*
X121895657Y-117499210D01*
X121899801Y-117495066D01*
X121947056Y-117424344D01*
X121979606Y-117345761D01*
X121996200Y-117262339D01*
X121996200Y-117203871D01*
X150647400Y-117203871D01*
X150647400Y-117288929D01*
X150663994Y-117372351D01*
X150696544Y-117450934D01*
X150743799Y-117521656D01*
X150747943Y-117525800D01*
X150743799Y-117529944D01*
X150696544Y-117600666D01*
X150663994Y-117679249D01*
X150647400Y-117762671D01*
X150647400Y-117847729D01*
X150663994Y-117931151D01*
X150696544Y-118009734D01*
X150743799Y-118080456D01*
X150803944Y-118140601D01*
X150874666Y-118187856D01*
X150953249Y-118220406D01*
X151036671Y-118237000D01*
X151121729Y-118237000D01*
X151205151Y-118220406D01*
X151283734Y-118187856D01*
X151354456Y-118140601D01*
X151414601Y-118080456D01*
X151461856Y-118009734D01*
X151494406Y-117931151D01*
X151511000Y-117847729D01*
X151511000Y-117762671D01*
X151494406Y-117679249D01*
X151461856Y-117600666D01*
X151414601Y-117529944D01*
X151410457Y-117525800D01*
X151414601Y-117521656D01*
X151461856Y-117450934D01*
X151494406Y-117372351D01*
X151511000Y-117288929D01*
X151511000Y-117203871D01*
X151494406Y-117120449D01*
X151461856Y-117041866D01*
X151414601Y-116971144D01*
X151354456Y-116910999D01*
X151283734Y-116863744D01*
X151205151Y-116831194D01*
X151121729Y-116814600D01*
X151036671Y-116814600D01*
X150953249Y-116831194D01*
X150874666Y-116863744D01*
X150803944Y-116910999D01*
X150743799Y-116971144D01*
X150696544Y-117041866D01*
X150663994Y-117120449D01*
X150647400Y-117203871D01*
X121996200Y-117203871D01*
X121996200Y-117177281D01*
X121979606Y-117093859D01*
X121947056Y-117015276D01*
X121899801Y-116944554D01*
X121839656Y-116884409D01*
X121768934Y-116837154D01*
X121690351Y-116804604D01*
X121606929Y-116788010D01*
X121521871Y-116788010D01*
X121438449Y-116804604D01*
X121359866Y-116837154D01*
X121289144Y-116884409D01*
X121228999Y-116944554D01*
X121181744Y-117015276D01*
X121149194Y-117093859D01*
X121132600Y-117177281D01*
X89203600Y-117177281D01*
X89203600Y-110587291D01*
X94758200Y-110587291D01*
X94758200Y-110672349D01*
X94774794Y-110755771D01*
X94807344Y-110834354D01*
X94854599Y-110905076D01*
X94858743Y-110909220D01*
X94854599Y-110913364D01*
X94807344Y-110984086D01*
X94774794Y-111062669D01*
X94758200Y-111146091D01*
X94758200Y-111231149D01*
X94774794Y-111314571D01*
X94807344Y-111393154D01*
X94854599Y-111463876D01*
X94914744Y-111524021D01*
X94985466Y-111571276D01*
X95064049Y-111603826D01*
X95147471Y-111620420D01*
X95232529Y-111620420D01*
X95315951Y-111603826D01*
X95394534Y-111571276D01*
X95465256Y-111524021D01*
X95525401Y-111463876D01*
X95572656Y-111393154D01*
X95605206Y-111314571D01*
X95621800Y-111231149D01*
X95621800Y-111146091D01*
X95605206Y-111062669D01*
X95572656Y-110984086D01*
X95525401Y-110913364D01*
X95521257Y-110909220D01*
X95525401Y-110905076D01*
X95572656Y-110834354D01*
X95605206Y-110755771D01*
X95621800Y-110672349D01*
X95621800Y-110587291D01*
X95605206Y-110503869D01*
X95572656Y-110425286D01*
X95525401Y-110354564D01*
X95465256Y-110294419D01*
X95394534Y-110247164D01*
X95315951Y-110214614D01*
X95232529Y-110198020D01*
X95147471Y-110198020D01*
X95064049Y-110214614D01*
X94985466Y-110247164D01*
X94914744Y-110294419D01*
X94854599Y-110354564D01*
X94807344Y-110425286D01*
X94774794Y-110503869D01*
X94758200Y-110587291D01*
X89203600Y-110587291D01*
X89203600Y-101984492D01*
X91951300Y-101984492D01*
X91951300Y-102231508D01*
X91999490Y-102473778D01*
X92094019Y-102701992D01*
X92231254Y-102907379D01*
X92405921Y-103082046D01*
X92611308Y-103219281D01*
X92839522Y-103313810D01*
X93081792Y-103362000D01*
X93328808Y-103362000D01*
X93571078Y-103313810D01*
X93799292Y-103219281D01*
X94004679Y-103082046D01*
X94179346Y-102907379D01*
X94316581Y-102701992D01*
X94411110Y-102473778D01*
X94459300Y-102231508D01*
X94459300Y-101984492D01*
X98110800Y-101984492D01*
X98110800Y-102231508D01*
X98158990Y-102473778D01*
X98253519Y-102701992D01*
X98390754Y-102907379D01*
X98565421Y-103082046D01*
X98770808Y-103219281D01*
X98999022Y-103313810D01*
X99241292Y-103362000D01*
X99488308Y-103362000D01*
X99730578Y-103313810D01*
X99958792Y-103219281D01*
X100164179Y-103082046D01*
X100338846Y-102907379D01*
X100476081Y-102701992D01*
X100570610Y-102473778D01*
X100618800Y-102231508D01*
X100618800Y-101984492D01*
X104232200Y-101984492D01*
X104232200Y-102231508D01*
X104280390Y-102473778D01*
X104374919Y-102701992D01*
X104512154Y-102907379D01*
X104686821Y-103082046D01*
X104892208Y-103219281D01*
X105120422Y-103313810D01*
X105362692Y-103362000D01*
X105609708Y-103362000D01*
X105851978Y-103313810D01*
X106039571Y-103236107D01*
X110112323Y-107308860D01*
X110125042Y-107324358D01*
X110140540Y-107337077D01*
X110140545Y-107337082D01*
X110150926Y-107345601D01*
X110186924Y-107375144D01*
X110256719Y-107412450D01*
X110257525Y-107412881D01*
X110334131Y-107436119D01*
X110341404Y-107436835D01*
X110393840Y-107442000D01*
X110393847Y-107442000D01*
X110413800Y-107443965D01*
X110433753Y-107442000D01*
X117921436Y-107442000D01*
X117943405Y-107460029D01*
X118031657Y-107507201D01*
X118127415Y-107536249D01*
X118202053Y-107543600D01*
X121412456Y-107543600D01*
X121437400Y-107546057D01*
X121462344Y-107543600D01*
X121462347Y-107543600D01*
X121536985Y-107536249D01*
X121632743Y-107507201D01*
X121720995Y-107460029D01*
X121798348Y-107396548D01*
X121814255Y-107377165D01*
X123552820Y-105638600D01*
X143020180Y-105638600D01*
X144758745Y-107377165D01*
X144774652Y-107396548D01*
X144852005Y-107460029D01*
X144940257Y-107507201D01*
X145036015Y-107536249D01*
X145110653Y-107543600D01*
X145110656Y-107543600D01*
X145135600Y-107546057D01*
X145160544Y-107543600D01*
X147041056Y-107543600D01*
X147066000Y-107546057D01*
X147090944Y-107543600D01*
X147090947Y-107543600D01*
X147165585Y-107536249D01*
X147261343Y-107507201D01*
X147349595Y-107460029D01*
X147426948Y-107396548D01*
X147442855Y-107377165D01*
X147468250Y-107351770D01*
X147515829Y-107293795D01*
X147563000Y-107205543D01*
X147592048Y-107109784D01*
X147601857Y-107010201D01*
X147592048Y-106910616D01*
X147563000Y-106814857D01*
X147515829Y-106726605D01*
X147452347Y-106649253D01*
X147374995Y-106585771D01*
X147286743Y-106538600D01*
X147190984Y-106509552D01*
X147091399Y-106499743D01*
X146991816Y-106509552D01*
X146932319Y-106527600D01*
X145346020Y-106527600D01*
X143607455Y-104789035D01*
X143591548Y-104769652D01*
X143514195Y-104706171D01*
X143425943Y-104658999D01*
X143330185Y-104629951D01*
X143255547Y-104622600D01*
X143255544Y-104622600D01*
X143230600Y-104620143D01*
X143205656Y-104622600D01*
X123367344Y-104622600D01*
X123342400Y-104620143D01*
X123317456Y-104622600D01*
X123317453Y-104622600D01*
X123242815Y-104629951D01*
X123147057Y-104658999D01*
X123058805Y-104706171D01*
X122981452Y-104769652D01*
X122965545Y-104789035D01*
X121226980Y-106527600D01*
X118202053Y-106527600D01*
X118127415Y-106534951D01*
X118031657Y-106563999D01*
X117943405Y-106611171D01*
X117921436Y-106629200D01*
X110582137Y-106629200D01*
X106614307Y-102661371D01*
X106692010Y-102473778D01*
X106740200Y-102231508D01*
X106740200Y-101984492D01*
X110556799Y-101984492D01*
X110556799Y-102231508D01*
X110604989Y-102473778D01*
X110699518Y-102701992D01*
X110836753Y-102907379D01*
X111011420Y-103082046D01*
X111216807Y-103219281D01*
X111445021Y-103313810D01*
X111687291Y-103362000D01*
X111934307Y-103362000D01*
X112176577Y-103313810D01*
X112404791Y-103219281D01*
X112610178Y-103082046D01*
X112784845Y-102907379D01*
X112922080Y-102701992D01*
X113016609Y-102473778D01*
X113064799Y-102231508D01*
X113064799Y-101984492D01*
X113016609Y-101742222D01*
X112922080Y-101514008D01*
X112784845Y-101308621D01*
X112610178Y-101133954D01*
X112404791Y-100996719D01*
X112176577Y-100902190D01*
X111934307Y-100854000D01*
X111687291Y-100854000D01*
X111445021Y-100902190D01*
X111216807Y-100996719D01*
X111011420Y-101133954D01*
X110836753Y-101308621D01*
X110699518Y-101514008D01*
X110604989Y-101742222D01*
X110556799Y-101984492D01*
X106740200Y-101984492D01*
X106692010Y-101742222D01*
X106597481Y-101514008D01*
X106460246Y-101308621D01*
X106285579Y-101133954D01*
X106080192Y-100996719D01*
X105851978Y-100902190D01*
X105609708Y-100854000D01*
X105362692Y-100854000D01*
X105120422Y-100902190D01*
X104892208Y-100996719D01*
X104686821Y-101133954D01*
X104512154Y-101308621D01*
X104374919Y-101514008D01*
X104280390Y-101742222D01*
X104232200Y-101984492D01*
X100618800Y-101984492D01*
X100570610Y-101742222D01*
X100492907Y-101554629D01*
X101353665Y-100693871D01*
X114350800Y-100693871D01*
X114350800Y-100778929D01*
X114367394Y-100862351D01*
X114399944Y-100940934D01*
X114447199Y-101011656D01*
X114507344Y-101071801D01*
X114578066Y-101119056D01*
X114656649Y-101151606D01*
X114740071Y-101168200D01*
X114825129Y-101168200D01*
X114908551Y-101151606D01*
X114987134Y-101119056D01*
X115057856Y-101071801D01*
X115118001Y-101011656D01*
X115165256Y-100940934D01*
X115197806Y-100862351D01*
X115214400Y-100778929D01*
X115214400Y-100693871D01*
X115197806Y-100610449D01*
X115165256Y-100531866D01*
X115118001Y-100461144D01*
X115057856Y-100400999D01*
X114987134Y-100353744D01*
X114908551Y-100321194D01*
X114825129Y-100304600D01*
X114740071Y-100304600D01*
X114656649Y-100321194D01*
X114578066Y-100353744D01*
X114507344Y-100400999D01*
X114447199Y-100461144D01*
X114399944Y-100531866D01*
X114367394Y-100610449D01*
X114350800Y-100693871D01*
X101353665Y-100693871D01*
X101920736Y-100126800D01*
X114188605Y-100126800D01*
X114208558Y-100128765D01*
X114228511Y-100126800D01*
X114228518Y-100126800D01*
X114288226Y-100120919D01*
X114364833Y-100097681D01*
X114435434Y-100059944D01*
X114497316Y-100009158D01*
X114510040Y-99993654D01*
X118279073Y-96224621D01*
X118235344Y-96290066D01*
X118202794Y-96368649D01*
X118186200Y-96452071D01*
X118186200Y-96537129D01*
X118202794Y-96620551D01*
X118235344Y-96699134D01*
X118282599Y-96769856D01*
X118342744Y-96830001D01*
X118413466Y-96877256D01*
X118434726Y-96886062D01*
X118494317Y-96945653D01*
X121324267Y-99775604D01*
X121302129Y-99771200D01*
X121217071Y-99771200D01*
X121133649Y-99787794D01*
X121055066Y-99820344D01*
X120984344Y-99867599D01*
X120924199Y-99927744D01*
X120876944Y-99998466D01*
X120844394Y-100077049D01*
X120827800Y-100160471D01*
X120827800Y-100245529D01*
X120844394Y-100328951D01*
X120853200Y-100350211D01*
X120853201Y-100796663D01*
X116697064Y-104952800D01*
X113964611Y-104952800D01*
X113943351Y-104943994D01*
X113859929Y-104927400D01*
X113774871Y-104927400D01*
X113691449Y-104943994D01*
X113612866Y-104976544D01*
X113542144Y-105023799D01*
X113481999Y-105083944D01*
X113434744Y-105154666D01*
X113402194Y-105233249D01*
X113385600Y-105316671D01*
X113385600Y-105401729D01*
X113402194Y-105485151D01*
X113434744Y-105563734D01*
X113481999Y-105634456D01*
X113542144Y-105694601D01*
X113612866Y-105741856D01*
X113691449Y-105774406D01*
X113774871Y-105791000D01*
X113859929Y-105791000D01*
X113943351Y-105774406D01*
X113964611Y-105765600D01*
X116845447Y-105765600D01*
X116865400Y-105767565D01*
X116885353Y-105765600D01*
X116885360Y-105765600D01*
X116945068Y-105759719D01*
X117021675Y-105736481D01*
X117092276Y-105698744D01*
X117154158Y-105647958D01*
X117166882Y-105632454D01*
X121532854Y-101266482D01*
X121548358Y-101253758D01*
X121599144Y-101191876D01*
X121636881Y-101121275D01*
X121660119Y-101044668D01*
X121666000Y-100984960D01*
X121666000Y-100984954D01*
X121667965Y-100965001D01*
X121666000Y-100945048D01*
X121666000Y-100350211D01*
X121674806Y-100328951D01*
X121691400Y-100245529D01*
X121691400Y-100160471D01*
X121686996Y-100138333D01*
X122939323Y-101390660D01*
X122952042Y-101406158D01*
X122967540Y-101418877D01*
X122967545Y-101418882D01*
X122988546Y-101436117D01*
X123013924Y-101456944D01*
X123066941Y-101485282D01*
X123084525Y-101494681D01*
X123161131Y-101517919D01*
X123168404Y-101518635D01*
X123220840Y-101523800D01*
X123220847Y-101523800D01*
X123240800Y-101525765D01*
X123260753Y-101523800D01*
X140695791Y-101523800D01*
X140717051Y-101532606D01*
X140800473Y-101549200D01*
X140885531Y-101549200D01*
X140968953Y-101532606D01*
X141047536Y-101500056D01*
X141118258Y-101452801D01*
X141178403Y-101392656D01*
X141225658Y-101321934D01*
X141258208Y-101243351D01*
X141274802Y-101159929D01*
X141274802Y-101074871D01*
X141258208Y-100991449D01*
X141225658Y-100912866D01*
X141178403Y-100842144D01*
X141118258Y-100781999D01*
X141047536Y-100734744D01*
X140968953Y-100702194D01*
X140885531Y-100685600D01*
X140800473Y-100685600D01*
X140717051Y-100702194D01*
X140695791Y-100711000D01*
X140046626Y-100711000D01*
X140076856Y-100690801D01*
X140137001Y-100630656D01*
X140184256Y-100559934D01*
X140216806Y-100481351D01*
X140233400Y-100397929D01*
X140233400Y-100312871D01*
X140216806Y-100229449D01*
X140184256Y-100150866D01*
X140137001Y-100080144D01*
X140076856Y-100019999D01*
X140006134Y-99972744D01*
X139927551Y-99940194D01*
X139844129Y-99923600D01*
X139759071Y-99923600D01*
X139675649Y-99940194D01*
X139654389Y-99949000D01*
X123891737Y-99949000D01*
X123290408Y-99347671D01*
X124510800Y-99347671D01*
X124510800Y-99432729D01*
X124527394Y-99516151D01*
X124559944Y-99594734D01*
X124607199Y-99665456D01*
X124667344Y-99725601D01*
X124738066Y-99772856D01*
X124816649Y-99805406D01*
X124900071Y-99822000D01*
X124985129Y-99822000D01*
X125068551Y-99805406D01*
X125147134Y-99772856D01*
X125217856Y-99725601D01*
X125278001Y-99665456D01*
X125325256Y-99594734D01*
X125357806Y-99516151D01*
X125374400Y-99432729D01*
X125374400Y-99347671D01*
X125357806Y-99264249D01*
X125325256Y-99185666D01*
X125278001Y-99114944D01*
X125217856Y-99054799D01*
X125147134Y-99007544D01*
X125068551Y-98974994D01*
X124985129Y-98958400D01*
X124900071Y-98958400D01*
X124816649Y-98974994D01*
X124738066Y-99007544D01*
X124667344Y-99054799D01*
X124607199Y-99114944D01*
X124559944Y-99185666D01*
X124527394Y-99264249D01*
X124510800Y-99347671D01*
X123290408Y-99347671D01*
X122782406Y-98839669D01*
X146761200Y-98839669D01*
X146761200Y-98924727D01*
X146777794Y-99008149D01*
X146810344Y-99086732D01*
X146857599Y-99157454D01*
X146917744Y-99217599D01*
X146988466Y-99264854D01*
X147067049Y-99297404D01*
X147150471Y-99313998D01*
X147235529Y-99313998D01*
X147318951Y-99297404D01*
X147397534Y-99264854D01*
X147468256Y-99217599D01*
X147528401Y-99157454D01*
X147575656Y-99086732D01*
X147608206Y-99008149D01*
X147624800Y-98924727D01*
X147624800Y-98839669D01*
X147608206Y-98756247D01*
X147575656Y-98677664D01*
X147528401Y-98606942D01*
X147468256Y-98546797D01*
X147397534Y-98499542D01*
X147318951Y-98466992D01*
X147235529Y-98450398D01*
X147150471Y-98450398D01*
X147067049Y-98466992D01*
X146988466Y-98499542D01*
X146917744Y-98546797D01*
X146857599Y-98606942D01*
X146810344Y-98677664D01*
X146777794Y-98756247D01*
X146761200Y-98839669D01*
X122782406Y-98839669D01*
X121087375Y-97144639D01*
X121133649Y-97163806D01*
X121217071Y-97180400D01*
X121302129Y-97180400D01*
X121385551Y-97163806D01*
X121464134Y-97131256D01*
X121534856Y-97084001D01*
X121595001Y-97023856D01*
X121642256Y-96953134D01*
X121674806Y-96874551D01*
X121691400Y-96791129D01*
X121691400Y-96706071D01*
X121674806Y-96622649D01*
X121642256Y-96544066D01*
X121595001Y-96473344D01*
X121534856Y-96413199D01*
X121464134Y-96365944D01*
X121385551Y-96333394D01*
X121302129Y-96316800D01*
X121217071Y-96316800D01*
X121133649Y-96333394D01*
X121055066Y-96365944D01*
X120984344Y-96413199D01*
X120924199Y-96473344D01*
X120876944Y-96544066D01*
X120844394Y-96622649D01*
X120827800Y-96706071D01*
X120827800Y-96791129D01*
X120844394Y-96874551D01*
X120863561Y-96920825D01*
X119218136Y-95275400D01*
X123917436Y-95275400D01*
X123899660Y-95308657D01*
X123870612Y-95404416D01*
X123860803Y-95504000D01*
X123870612Y-95603584D01*
X123899660Y-95699343D01*
X123946831Y-95787595D01*
X123994410Y-95845570D01*
X125874005Y-97725165D01*
X125889912Y-97744548D01*
X125967265Y-97808029D01*
X126055517Y-97855201D01*
X126151275Y-97884249D01*
X126225913Y-97891600D01*
X126225916Y-97891600D01*
X126250860Y-97894057D01*
X126275804Y-97891600D01*
X149098456Y-97891600D01*
X149123400Y-97894057D01*
X149148344Y-97891600D01*
X149148347Y-97891600D01*
X149222985Y-97884249D01*
X149318743Y-97855201D01*
X149406995Y-97808029D01*
X149484348Y-97744548D01*
X149500255Y-97725165D01*
X150011349Y-97214071D01*
X150825200Y-97214071D01*
X150825200Y-97299129D01*
X150841794Y-97382551D01*
X150874344Y-97461134D01*
X150921599Y-97531856D01*
X150981744Y-97592001D01*
X151052466Y-97639256D01*
X151131049Y-97671806D01*
X151214471Y-97688400D01*
X151299529Y-97688400D01*
X151382951Y-97671806D01*
X151461534Y-97639256D01*
X151532256Y-97592001D01*
X151592401Y-97531856D01*
X151639656Y-97461134D01*
X151672206Y-97382551D01*
X151688800Y-97299129D01*
X151688800Y-97214071D01*
X151672206Y-97130649D01*
X151639656Y-97052066D01*
X151592401Y-96981344D01*
X151532256Y-96921199D01*
X151461534Y-96873944D01*
X151382951Y-96841394D01*
X151299529Y-96824800D01*
X151214471Y-96824800D01*
X151131049Y-96841394D01*
X151052466Y-96873944D01*
X150981744Y-96921199D01*
X150921599Y-96981344D01*
X150874344Y-97052066D01*
X150841794Y-97130649D01*
X150825200Y-97214071D01*
X150011349Y-97214071D01*
X151379850Y-95845570D01*
X151427429Y-95787595D01*
X151474600Y-95699344D01*
X151503648Y-95603585D01*
X151513457Y-95504000D01*
X151503648Y-95404416D01*
X151474600Y-95308656D01*
X151427429Y-95220405D01*
X151363947Y-95143053D01*
X151286595Y-95079571D01*
X151198344Y-95032400D01*
X151102584Y-95003352D01*
X151003000Y-94993543D01*
X150903415Y-95003352D01*
X150807656Y-95032400D01*
X150719405Y-95079571D01*
X150661430Y-95127150D01*
X148912980Y-96875600D01*
X126461280Y-96875600D01*
X125874044Y-96288364D01*
X125881066Y-96293056D01*
X125959649Y-96325606D01*
X126043071Y-96342200D01*
X126128129Y-96342200D01*
X126211551Y-96325606D01*
X126290134Y-96293056D01*
X126360856Y-96245801D01*
X126421001Y-96185656D01*
X126468256Y-96114934D01*
X126500806Y-96036351D01*
X126517400Y-95952929D01*
X126517400Y-95867871D01*
X126500806Y-95784449D01*
X126468256Y-95705866D01*
X126421001Y-95635144D01*
X126360856Y-95574999D01*
X126290134Y-95527744D01*
X126211551Y-95495194D01*
X126128129Y-95478600D01*
X126043071Y-95478600D01*
X125959649Y-95495194D01*
X125881066Y-95527744D01*
X125810344Y-95574999D01*
X125750199Y-95635144D01*
X125702944Y-95705866D01*
X125670394Y-95784449D01*
X125653800Y-95867871D01*
X125653800Y-95952929D01*
X125670394Y-96036351D01*
X125702944Y-96114934D01*
X125707636Y-96121956D01*
X124861080Y-95275400D01*
X140263989Y-95275400D01*
X140285249Y-95284206D01*
X140368671Y-95300800D01*
X140453729Y-95300800D01*
X140537151Y-95284206D01*
X140615734Y-95251656D01*
X140686456Y-95204401D01*
X140746601Y-95144256D01*
X140793856Y-95073534D01*
X140826406Y-94994951D01*
X140843000Y-94911529D01*
X140843000Y-94826471D01*
X140826406Y-94743049D01*
X140793856Y-94664466D01*
X140746601Y-94593744D01*
X140686456Y-94533599D01*
X140615734Y-94486344D01*
X140537151Y-94453794D01*
X140453729Y-94437200D01*
X140368671Y-94437200D01*
X140285249Y-94453794D01*
X140263989Y-94462600D01*
X118596084Y-94462600D01*
X118576131Y-94460635D01*
X118556178Y-94462600D01*
X118556171Y-94462600D01*
X118496463Y-94468481D01*
X118419856Y-94491719D01*
X118387209Y-94509169D01*
X118346785Y-94468745D01*
X118334062Y-94453242D01*
X118283566Y-94411800D01*
X124617847Y-94411800D01*
X124637800Y-94413765D01*
X124657753Y-94411800D01*
X124657760Y-94411800D01*
X124717468Y-94405919D01*
X124794075Y-94382681D01*
X124864676Y-94344944D01*
X124926558Y-94294158D01*
X124939282Y-94278654D01*
X125407465Y-93810471D01*
X140741400Y-93810471D01*
X140741400Y-93895529D01*
X140757994Y-93978951D01*
X140790544Y-94057534D01*
X140837799Y-94128256D01*
X140897944Y-94188401D01*
X140968666Y-94235656D01*
X141047249Y-94268206D01*
X141130671Y-94284800D01*
X141215729Y-94284800D01*
X141299151Y-94268206D01*
X141377734Y-94235656D01*
X141448456Y-94188401D01*
X141508601Y-94128256D01*
X141555856Y-94057534D01*
X141588406Y-93978951D01*
X141605000Y-93895529D01*
X141605000Y-93810471D01*
X141588406Y-93727049D01*
X141555856Y-93648466D01*
X141508601Y-93577744D01*
X141448456Y-93517599D01*
X141377734Y-93470344D01*
X141299151Y-93437794D01*
X141215729Y-93421200D01*
X141130671Y-93421200D01*
X141047249Y-93437794D01*
X140968666Y-93470344D01*
X140897944Y-93517599D01*
X140837799Y-93577744D01*
X140790544Y-93648466D01*
X140757994Y-93727049D01*
X140741400Y-93810471D01*
X125407465Y-93810471D01*
X125811675Y-93406262D01*
X125832934Y-93397456D01*
X125903656Y-93350201D01*
X125963801Y-93290056D01*
X126011056Y-93219334D01*
X126036415Y-93158110D01*
X146312124Y-93158110D01*
X146312124Y-93243168D01*
X146328718Y-93326590D01*
X146361268Y-93405173D01*
X146408523Y-93475895D01*
X146468668Y-93536040D01*
X146539390Y-93583295D01*
X146617973Y-93615845D01*
X146701395Y-93632439D01*
X146783543Y-93632439D01*
X146765344Y-93644599D01*
X146705199Y-93704744D01*
X146657944Y-93775466D01*
X146625394Y-93854049D01*
X146608800Y-93937471D01*
X146608800Y-94022529D01*
X146625394Y-94105951D01*
X146657944Y-94184534D01*
X146705199Y-94255256D01*
X146765344Y-94315401D01*
X146836066Y-94362656D01*
X146848686Y-94367883D01*
X146790744Y-94406599D01*
X146730599Y-94466744D01*
X146683344Y-94537466D01*
X146650794Y-94616049D01*
X146634200Y-94699471D01*
X146634200Y-94784529D01*
X146650794Y-94867951D01*
X146683344Y-94946534D01*
X146730599Y-95017256D01*
X146790744Y-95077401D01*
X146861466Y-95124656D01*
X146940049Y-95157206D01*
X147023471Y-95173800D01*
X147108529Y-95173800D01*
X147191951Y-95157206D01*
X147270534Y-95124656D01*
X147341256Y-95077401D01*
X147401401Y-95017256D01*
X147448656Y-94946534D01*
X147481206Y-94867951D01*
X147497800Y-94784529D01*
X147497800Y-94699471D01*
X147481206Y-94616049D01*
X147448656Y-94537466D01*
X147401401Y-94466744D01*
X147341256Y-94406599D01*
X147270534Y-94359344D01*
X147257914Y-94354117D01*
X147315856Y-94315401D01*
X147376001Y-94255256D01*
X147423256Y-94184534D01*
X147455806Y-94105951D01*
X147472400Y-94022529D01*
X147472400Y-93937471D01*
X147455806Y-93854049D01*
X147423256Y-93775466D01*
X147376001Y-93704744D01*
X147315856Y-93644599D01*
X147245134Y-93597344D01*
X147166551Y-93564794D01*
X147083129Y-93548200D01*
X147000981Y-93548200D01*
X147019180Y-93536040D01*
X147079325Y-93475895D01*
X147126580Y-93405173D01*
X147159130Y-93326590D01*
X147175724Y-93243168D01*
X147175724Y-93158110D01*
X147159130Y-93074688D01*
X147126580Y-92996105D01*
X147079325Y-92925383D01*
X147019180Y-92865238D01*
X146948458Y-92817983D01*
X146869875Y-92785433D01*
X146786453Y-92768839D01*
X146701395Y-92768839D01*
X146617973Y-92785433D01*
X146539390Y-92817983D01*
X146468668Y-92865238D01*
X146408523Y-92925383D01*
X146361268Y-92996105D01*
X146328718Y-93074688D01*
X146312124Y-93158110D01*
X126036415Y-93158110D01*
X126043606Y-93140751D01*
X126060200Y-93057329D01*
X126060200Y-92972271D01*
X126043606Y-92888849D01*
X126011056Y-92810266D01*
X125963801Y-92739544D01*
X125903656Y-92679399D01*
X125832934Y-92632144D01*
X125754351Y-92599594D01*
X125670929Y-92583000D01*
X125585871Y-92583000D01*
X125502449Y-92599594D01*
X125423866Y-92632144D01*
X125353144Y-92679399D01*
X125292999Y-92739544D01*
X125245744Y-92810266D01*
X125236938Y-92831525D01*
X124469464Y-93599000D01*
X121492012Y-93599000D01*
X121560256Y-93553401D01*
X121620401Y-93493256D01*
X121667656Y-93422534D01*
X121700206Y-93343951D01*
X121716800Y-93260529D01*
X121716800Y-93175471D01*
X121700206Y-93092049D01*
X121667656Y-93013466D01*
X121620401Y-92942744D01*
X121560256Y-92882599D01*
X121489534Y-92835344D01*
X121410951Y-92802794D01*
X121327529Y-92786200D01*
X121242471Y-92786200D01*
X121159049Y-92802794D01*
X121080466Y-92835344D01*
X121009744Y-92882599D01*
X120949599Y-92942744D01*
X120902344Y-93013466D01*
X120869794Y-93092049D01*
X120853200Y-93175471D01*
X120853200Y-93260529D01*
X120869794Y-93343951D01*
X120902344Y-93422534D01*
X120949599Y-93493256D01*
X121009744Y-93553401D01*
X121077988Y-93599000D01*
X114650411Y-93599000D01*
X114629151Y-93590194D01*
X114545729Y-93573600D01*
X114460671Y-93573600D01*
X114377249Y-93590194D01*
X114298666Y-93622744D01*
X114227944Y-93669999D01*
X114167799Y-93730144D01*
X114120544Y-93800866D01*
X114087994Y-93879449D01*
X114071400Y-93962871D01*
X114071400Y-94047929D01*
X114087994Y-94131351D01*
X114120544Y-94209934D01*
X114167799Y-94280656D01*
X114222743Y-94335600D01*
X113833336Y-94335600D01*
X112217199Y-92719463D01*
X112217199Y-91930484D01*
X112404791Y-91852781D01*
X112610178Y-91715546D01*
X112784845Y-91540879D01*
X112922080Y-91335492D01*
X113016609Y-91107278D01*
X113034671Y-91016471D01*
X114554000Y-91016471D01*
X114554000Y-91101529D01*
X114570594Y-91184951D01*
X114603144Y-91263534D01*
X114650399Y-91334256D01*
X114710544Y-91394401D01*
X114781266Y-91441656D01*
X114859849Y-91474206D01*
X114943271Y-91490800D01*
X115028329Y-91490800D01*
X115111751Y-91474206D01*
X115190334Y-91441656D01*
X115261056Y-91394401D01*
X115321201Y-91334256D01*
X115368456Y-91263534D01*
X115401006Y-91184951D01*
X115417600Y-91101529D01*
X115417600Y-91016471D01*
X115401006Y-90933049D01*
X115368456Y-90854466D01*
X115321201Y-90783744D01*
X115261056Y-90723599D01*
X115190334Y-90676344D01*
X115111751Y-90643794D01*
X115028329Y-90627200D01*
X114943271Y-90627200D01*
X114859849Y-90643794D01*
X114781266Y-90676344D01*
X114710544Y-90723599D01*
X114650399Y-90783744D01*
X114603144Y-90854466D01*
X114570594Y-90933049D01*
X114554000Y-91016471D01*
X113034671Y-91016471D01*
X113064799Y-90865008D01*
X113064799Y-90617992D01*
X113016609Y-90375722D01*
X112922080Y-90147508D01*
X112823834Y-90000471D01*
X113893600Y-90000471D01*
X113893600Y-90085529D01*
X113910194Y-90168951D01*
X113942744Y-90247534D01*
X113989999Y-90318256D01*
X114050144Y-90378401D01*
X114120866Y-90425656D01*
X114199449Y-90458206D01*
X114282871Y-90474800D01*
X114367929Y-90474800D01*
X114451351Y-90458206D01*
X114472611Y-90449400D01*
X117981943Y-90449400D01*
X117952399Y-90478944D01*
X117905144Y-90549666D01*
X117872594Y-90628249D01*
X117856000Y-90711671D01*
X117856000Y-90796729D01*
X117872594Y-90880151D01*
X117905144Y-90958734D01*
X117952399Y-91029456D01*
X118012544Y-91089601D01*
X118083266Y-91136856D01*
X118104526Y-91145662D01*
X118621322Y-91662459D01*
X118634042Y-91677958D01*
X118649540Y-91690677D01*
X118649545Y-91690682D01*
X118659926Y-91699201D01*
X118695924Y-91728744D01*
X118766525Y-91766481D01*
X118843131Y-91789719D01*
X118850404Y-91790435D01*
X118902840Y-91795600D01*
X118902847Y-91795600D01*
X118922800Y-91797565D01*
X118942753Y-91795600D01*
X121163189Y-91795600D01*
X121105866Y-91819344D01*
X121035144Y-91866599D01*
X120974999Y-91926744D01*
X120927744Y-91997466D01*
X120895194Y-92076049D01*
X120878600Y-92159471D01*
X120878600Y-92244529D01*
X120895194Y-92327951D01*
X120927744Y-92406534D01*
X120974999Y-92477256D01*
X121035144Y-92537401D01*
X121105866Y-92584656D01*
X121184449Y-92617206D01*
X121267871Y-92633800D01*
X121352929Y-92633800D01*
X121436351Y-92617206D01*
X121514934Y-92584656D01*
X121585656Y-92537401D01*
X121645801Y-92477256D01*
X121693056Y-92406534D01*
X121725606Y-92327951D01*
X121742200Y-92244529D01*
X121742200Y-92235671D01*
X124434600Y-92235671D01*
X124434600Y-92320729D01*
X124451194Y-92404151D01*
X124483744Y-92482734D01*
X124530999Y-92553456D01*
X124591144Y-92613601D01*
X124661866Y-92660856D01*
X124740449Y-92693406D01*
X124823871Y-92710000D01*
X124908929Y-92710000D01*
X124992351Y-92693406D01*
X125070934Y-92660856D01*
X125141656Y-92613601D01*
X125201801Y-92553456D01*
X125249056Y-92482734D01*
X125281606Y-92404151D01*
X125298200Y-92320729D01*
X125298200Y-92235671D01*
X125283043Y-92159471D01*
X150698200Y-92159471D01*
X150698200Y-92244529D01*
X150714794Y-92327951D01*
X150747344Y-92406534D01*
X150794599Y-92477256D01*
X150854744Y-92537401D01*
X150925466Y-92584656D01*
X151004049Y-92617206D01*
X151087471Y-92633800D01*
X151172529Y-92633800D01*
X151255951Y-92617206D01*
X151334534Y-92584656D01*
X151405256Y-92537401D01*
X151465401Y-92477256D01*
X151512656Y-92406534D01*
X151545206Y-92327951D01*
X151561800Y-92244529D01*
X151561800Y-92159471D01*
X151545206Y-92076049D01*
X151512656Y-91997466D01*
X151465401Y-91926744D01*
X151405256Y-91866599D01*
X151334534Y-91819344D01*
X151255951Y-91786794D01*
X151172529Y-91770200D01*
X151087471Y-91770200D01*
X151004049Y-91786794D01*
X150925466Y-91819344D01*
X150854744Y-91866599D01*
X150794599Y-91926744D01*
X150747344Y-91997466D01*
X150714794Y-92076049D01*
X150698200Y-92159471D01*
X125283043Y-92159471D01*
X125281606Y-92152249D01*
X125249056Y-92073666D01*
X125201801Y-92002944D01*
X125141656Y-91942799D01*
X125070934Y-91895544D01*
X124992351Y-91862994D01*
X124908929Y-91846400D01*
X124823871Y-91846400D01*
X124740449Y-91862994D01*
X124661866Y-91895544D01*
X124591144Y-91942799D01*
X124530999Y-92002944D01*
X124483744Y-92073666D01*
X124451194Y-92152249D01*
X124434600Y-92235671D01*
X121742200Y-92235671D01*
X121742200Y-92159471D01*
X121725606Y-92076049D01*
X121693056Y-91997466D01*
X121645801Y-91926744D01*
X121585656Y-91866599D01*
X121514934Y-91819344D01*
X121457611Y-91795600D01*
X136581247Y-91795600D01*
X136601200Y-91797565D01*
X136621153Y-91795600D01*
X136669129Y-91795600D01*
X136752551Y-91779006D01*
X136831134Y-91746456D01*
X136901856Y-91699201D01*
X136949586Y-91651471D01*
X146761200Y-91651471D01*
X146761200Y-91736529D01*
X146777794Y-91819951D01*
X146810344Y-91898534D01*
X146857599Y-91969256D01*
X146917744Y-92029401D01*
X146988466Y-92076656D01*
X147067049Y-92109206D01*
X147150471Y-92125800D01*
X147235529Y-92125800D01*
X147318951Y-92109206D01*
X147397534Y-92076656D01*
X147468256Y-92029401D01*
X147528401Y-91969256D01*
X147575656Y-91898534D01*
X147608206Y-91819951D01*
X147624800Y-91736529D01*
X147624800Y-91651471D01*
X147608206Y-91568049D01*
X147575656Y-91489466D01*
X147528401Y-91418744D01*
X147468256Y-91358599D01*
X147397534Y-91311344D01*
X147318951Y-91278794D01*
X147235529Y-91262200D01*
X147150471Y-91262200D01*
X147067049Y-91278794D01*
X146988466Y-91311344D01*
X146917744Y-91358599D01*
X146857599Y-91418744D01*
X146810344Y-91489466D01*
X146777794Y-91568049D01*
X146761200Y-91651471D01*
X136949586Y-91651471D01*
X136962001Y-91639056D01*
X137009256Y-91568334D01*
X137041806Y-91489751D01*
X137058400Y-91406329D01*
X137058400Y-91321271D01*
X137041806Y-91237849D01*
X137009256Y-91159266D01*
X136962001Y-91088544D01*
X136901856Y-91028399D01*
X136831134Y-90981144D01*
X136752551Y-90948594D01*
X136669129Y-90932000D01*
X136584071Y-90932000D01*
X136500649Y-90948594D01*
X136422066Y-90981144D01*
X136419588Y-90982800D01*
X121403026Y-90982800D01*
X121433256Y-90962601D01*
X121493401Y-90902456D01*
X121540656Y-90831734D01*
X121573206Y-90753151D01*
X121589800Y-90669729D01*
X121589800Y-90635471D01*
X146634200Y-90635471D01*
X146634200Y-90720529D01*
X146650794Y-90803951D01*
X146683344Y-90882534D01*
X146730599Y-90953256D01*
X146790744Y-91013401D01*
X146861466Y-91060656D01*
X146940049Y-91093206D01*
X147023471Y-91109800D01*
X147108529Y-91109800D01*
X147191951Y-91093206D01*
X147270534Y-91060656D01*
X147341256Y-91013401D01*
X147401401Y-90953256D01*
X147448656Y-90882534D01*
X147481206Y-90803951D01*
X147497800Y-90720529D01*
X147497800Y-90635471D01*
X147481206Y-90552049D01*
X147448656Y-90473466D01*
X147401401Y-90402744D01*
X147341256Y-90342599D01*
X147270534Y-90295344D01*
X147225911Y-90276860D01*
X147295934Y-90247856D01*
X147366656Y-90200601D01*
X147426801Y-90140456D01*
X147474056Y-90069734D01*
X147506606Y-89991151D01*
X147523200Y-89907729D01*
X147523200Y-89822671D01*
X147506606Y-89739249D01*
X147474056Y-89660666D01*
X147470177Y-89654860D01*
X147506071Y-89662000D01*
X147591129Y-89662000D01*
X147674551Y-89645406D01*
X147753134Y-89612856D01*
X147823856Y-89565601D01*
X147884001Y-89505456D01*
X147931256Y-89434734D01*
X147963806Y-89356151D01*
X147980400Y-89272729D01*
X147980400Y-89187671D01*
X147963806Y-89104249D01*
X147931256Y-89025666D01*
X147884001Y-88954944D01*
X147823856Y-88894799D01*
X147753134Y-88847544D01*
X147674551Y-88814994D01*
X147659526Y-88812005D01*
X147669172Y-88763512D01*
X147669172Y-88678454D01*
X147652578Y-88595032D01*
X147620028Y-88516449D01*
X147572773Y-88445727D01*
X147512628Y-88385582D01*
X147441906Y-88338327D01*
X147363323Y-88305777D01*
X147279901Y-88289183D01*
X147194843Y-88289183D01*
X147111421Y-88305777D01*
X147032838Y-88338327D01*
X146962116Y-88385582D01*
X146901971Y-88445727D01*
X146854716Y-88516449D01*
X146822166Y-88595032D01*
X146805572Y-88678454D01*
X146805572Y-88763512D01*
X146822166Y-88846934D01*
X146854716Y-88925517D01*
X146901971Y-88996239D01*
X146962116Y-89056384D01*
X147032838Y-89103639D01*
X147111421Y-89136189D01*
X147126446Y-89139178D01*
X147116800Y-89187671D01*
X147116800Y-89272729D01*
X147133394Y-89356151D01*
X147165944Y-89434734D01*
X147169823Y-89440540D01*
X147133929Y-89433400D01*
X147048871Y-89433400D01*
X146965449Y-89449994D01*
X146886866Y-89482544D01*
X146816144Y-89529799D01*
X146755999Y-89589944D01*
X146708744Y-89660666D01*
X146676194Y-89739249D01*
X146659600Y-89822671D01*
X146659600Y-89907729D01*
X146676194Y-89991151D01*
X146708744Y-90069734D01*
X146755999Y-90140456D01*
X146816144Y-90200601D01*
X146886866Y-90247856D01*
X146931489Y-90266340D01*
X146861466Y-90295344D01*
X146790744Y-90342599D01*
X146730599Y-90402744D01*
X146683344Y-90473466D01*
X146650794Y-90552049D01*
X146634200Y-90635471D01*
X121589800Y-90635471D01*
X121589800Y-90584671D01*
X121573206Y-90501249D01*
X121540656Y-90422666D01*
X121493401Y-90351944D01*
X121433256Y-90291799D01*
X121362534Y-90244544D01*
X121341275Y-90235738D01*
X121106008Y-90000471D01*
X124282200Y-90000471D01*
X124282200Y-90085529D01*
X124298794Y-90168951D01*
X124331344Y-90247534D01*
X124378599Y-90318256D01*
X124438744Y-90378401D01*
X124509466Y-90425656D01*
X124588049Y-90458206D01*
X124671471Y-90474800D01*
X124756529Y-90474800D01*
X124839951Y-90458206D01*
X124918534Y-90425656D01*
X124989256Y-90378401D01*
X125049401Y-90318256D01*
X125096656Y-90247534D01*
X125129206Y-90168951D01*
X125145800Y-90085529D01*
X125145800Y-90000471D01*
X125129206Y-89917049D01*
X125096656Y-89838466D01*
X125049401Y-89767744D01*
X124989256Y-89707599D01*
X124918534Y-89660344D01*
X124839951Y-89627794D01*
X124756529Y-89611200D01*
X124671471Y-89611200D01*
X124588049Y-89627794D01*
X124509466Y-89660344D01*
X124438744Y-89707599D01*
X124378599Y-89767744D01*
X124331344Y-89838466D01*
X124298794Y-89917049D01*
X124282200Y-90000471D01*
X121106008Y-90000471D01*
X120875282Y-89769746D01*
X120862558Y-89754242D01*
X120800676Y-89703456D01*
X120730075Y-89665719D01*
X120653468Y-89642481D01*
X120593760Y-89636600D01*
X120593753Y-89636600D01*
X120573800Y-89634635D01*
X120553847Y-89636600D01*
X114472611Y-89636600D01*
X114451351Y-89627794D01*
X114367929Y-89611200D01*
X114282871Y-89611200D01*
X114199449Y-89627794D01*
X114120866Y-89660344D01*
X114050144Y-89707599D01*
X113989999Y-89767744D01*
X113942744Y-89838466D01*
X113910194Y-89917049D01*
X113893600Y-90000471D01*
X112823834Y-90000471D01*
X112784845Y-89942121D01*
X112610178Y-89767454D01*
X112404791Y-89630219D01*
X112176577Y-89535690D01*
X111934307Y-89487500D01*
X111687291Y-89487500D01*
X111445021Y-89535690D01*
X111216807Y-89630219D01*
X111011420Y-89767454D01*
X110836753Y-89942121D01*
X110699518Y-90147508D01*
X110604989Y-90375722D01*
X110556799Y-90617992D01*
X110556799Y-90865008D01*
X110604989Y-91107278D01*
X110699518Y-91335492D01*
X110836753Y-91540879D01*
X111011420Y-91715546D01*
X111216807Y-91852781D01*
X111404399Y-91930484D01*
X111404399Y-92867846D01*
X111402434Y-92887799D01*
X111404399Y-92907752D01*
X111404399Y-92907758D01*
X111407845Y-92942744D01*
X111410280Y-92967467D01*
X111418967Y-92996105D01*
X111433518Y-93044073D01*
X111471255Y-93114674D01*
X111522041Y-93176557D01*
X111537545Y-93189281D01*
X113363518Y-95015254D01*
X113376242Y-95030758D01*
X113438124Y-95081544D01*
X113508725Y-95119281D01*
X113567502Y-95137110D01*
X113585331Y-95142519D01*
X113593335Y-95143307D01*
X113645040Y-95148400D01*
X113645046Y-95148400D01*
X113664999Y-95150365D01*
X113684952Y-95148400D01*
X117876968Y-95148400D01*
X117947012Y-95218444D01*
X117959736Y-95233948D01*
X118021618Y-95284734D01*
X118052814Y-95301408D01*
X114040222Y-99314000D01*
X101772352Y-99314000D01*
X101752399Y-99312035D01*
X101732446Y-99314000D01*
X101732440Y-99314000D01*
X101680735Y-99319093D01*
X101672731Y-99319881D01*
X101654902Y-99325290D01*
X101596125Y-99343119D01*
X101525524Y-99380856D01*
X101463642Y-99431642D01*
X101450918Y-99447146D01*
X99918171Y-100979893D01*
X99730578Y-100902190D01*
X99488308Y-100854000D01*
X99241292Y-100854000D01*
X98999022Y-100902190D01*
X98770808Y-100996719D01*
X98565421Y-101133954D01*
X98390754Y-101308621D01*
X98253519Y-101514008D01*
X98158990Y-101742222D01*
X98110800Y-101984492D01*
X94459300Y-101984492D01*
X94411110Y-101742222D01*
X94316581Y-101514008D01*
X94179346Y-101308621D01*
X94004679Y-101133954D01*
X93799292Y-100996719D01*
X93571078Y-100902190D01*
X93328808Y-100854000D01*
X93081792Y-100854000D01*
X92839522Y-100902190D01*
X92611308Y-100996719D01*
X92405921Y-101133954D01*
X92231254Y-101308621D01*
X92094019Y-101514008D01*
X91999490Y-101742222D01*
X91951300Y-101984492D01*
X89203600Y-101984492D01*
X89203600Y-96218690D01*
X91951300Y-96218690D01*
X91951300Y-96465706D01*
X91999490Y-96707976D01*
X92094019Y-96936190D01*
X92231254Y-97141577D01*
X92405921Y-97316244D01*
X92611308Y-97453479D01*
X92839522Y-97548008D01*
X93081792Y-97596198D01*
X93328808Y-97596198D01*
X93571078Y-97548008D01*
X93799292Y-97453479D01*
X94004679Y-97316244D01*
X94179346Y-97141577D01*
X94316581Y-96936190D01*
X94411110Y-96707976D01*
X94459300Y-96465706D01*
X94459300Y-96218690D01*
X98110800Y-96218690D01*
X98110800Y-96465706D01*
X98158990Y-96707976D01*
X98253519Y-96936190D01*
X98390754Y-97141577D01*
X98565421Y-97316244D01*
X98770808Y-97453479D01*
X98999022Y-97548008D01*
X99241292Y-97596198D01*
X99488308Y-97596198D01*
X99730578Y-97548008D01*
X99958792Y-97453479D01*
X100164179Y-97316244D01*
X100338846Y-97141577D01*
X100476081Y-96936190D01*
X100570610Y-96707976D01*
X100618800Y-96465706D01*
X100618800Y-96218690D01*
X110556799Y-96218690D01*
X110556799Y-96465706D01*
X110604989Y-96707976D01*
X110699518Y-96936190D01*
X110836753Y-97141577D01*
X111011420Y-97316244D01*
X111216807Y-97453479D01*
X111445021Y-97548008D01*
X111687291Y-97596198D01*
X111934307Y-97596198D01*
X112176577Y-97548008D01*
X112404791Y-97453479D01*
X112610178Y-97316244D01*
X112784845Y-97141577D01*
X112922080Y-96936190D01*
X113016609Y-96707976D01*
X113064799Y-96465706D01*
X113064799Y-96218690D01*
X113016609Y-95976420D01*
X112922080Y-95748206D01*
X112917179Y-95740871D01*
X114833400Y-95740871D01*
X114833400Y-95825929D01*
X114849994Y-95909351D01*
X114882544Y-95987934D01*
X114929799Y-96058656D01*
X114989944Y-96118801D01*
X115060666Y-96166056D01*
X115139249Y-96198606D01*
X115222671Y-96215200D01*
X115307729Y-96215200D01*
X115391151Y-96198606D01*
X115469734Y-96166056D01*
X115540456Y-96118801D01*
X115600601Y-96058656D01*
X115647856Y-95987934D01*
X115680406Y-95909351D01*
X115697000Y-95825929D01*
X115697000Y-95740871D01*
X115680406Y-95657449D01*
X115647856Y-95578866D01*
X115600601Y-95508144D01*
X115540456Y-95447999D01*
X115469734Y-95400744D01*
X115391151Y-95368194D01*
X115307729Y-95351600D01*
X115222671Y-95351600D01*
X115139249Y-95368194D01*
X115060666Y-95400744D01*
X114989944Y-95447999D01*
X114929799Y-95508144D01*
X114882544Y-95578866D01*
X114849994Y-95657449D01*
X114833400Y-95740871D01*
X112917179Y-95740871D01*
X112784845Y-95542819D01*
X112610178Y-95368152D01*
X112404791Y-95230917D01*
X112176577Y-95136388D01*
X111934307Y-95088198D01*
X111687291Y-95088198D01*
X111445021Y-95136388D01*
X111216807Y-95230917D01*
X111011420Y-95368152D01*
X110836753Y-95542819D01*
X110699518Y-95748206D01*
X110604989Y-95976420D01*
X110556799Y-96218690D01*
X100618800Y-96218690D01*
X100570610Y-95976420D01*
X100476081Y-95748206D01*
X100338846Y-95542819D01*
X100164179Y-95368152D01*
X99958792Y-95230917D01*
X99730578Y-95136388D01*
X99488308Y-95088198D01*
X99241292Y-95088198D01*
X98999022Y-95136388D01*
X98770808Y-95230917D01*
X98565421Y-95368152D01*
X98390754Y-95542819D01*
X98253519Y-95748206D01*
X98158990Y-95976420D01*
X98110800Y-96218690D01*
X94459300Y-96218690D01*
X94411110Y-95976420D01*
X94316581Y-95748206D01*
X94179346Y-95542819D01*
X94004679Y-95368152D01*
X93799292Y-95230917D01*
X93571078Y-95136388D01*
X93328808Y-95088198D01*
X93081792Y-95088198D01*
X92839522Y-95136388D01*
X92611308Y-95230917D01*
X92405921Y-95368152D01*
X92231254Y-95542819D01*
X92094019Y-95748206D01*
X91999490Y-95976420D01*
X91951300Y-96218690D01*
X89203600Y-96218690D01*
X89203600Y-90617992D01*
X91951300Y-90617992D01*
X91951300Y-90865008D01*
X91999490Y-91107278D01*
X92094019Y-91335492D01*
X92231254Y-91540879D01*
X92405921Y-91715546D01*
X92611308Y-91852781D01*
X92839522Y-91947310D01*
X93081792Y-91995500D01*
X93328808Y-91995500D01*
X93571078Y-91947310D01*
X93799292Y-91852781D01*
X94004679Y-91715546D01*
X94179346Y-91540879D01*
X94316581Y-91335492D01*
X94411110Y-91107278D01*
X94459300Y-90865008D01*
X94459300Y-90617992D01*
X98110800Y-90617992D01*
X98110800Y-90865008D01*
X98158990Y-91107278D01*
X98253519Y-91335492D01*
X98390754Y-91540879D01*
X98565421Y-91715546D01*
X98770808Y-91852781D01*
X98999022Y-91947310D01*
X99241292Y-91995500D01*
X99488308Y-91995500D01*
X99730578Y-91947310D01*
X99958792Y-91852781D01*
X100164179Y-91715546D01*
X100338846Y-91540879D01*
X100476081Y-91335492D01*
X100570610Y-91107278D01*
X100618800Y-90865008D01*
X100618800Y-90617992D01*
X104232200Y-90617992D01*
X104232200Y-90865008D01*
X104280390Y-91107278D01*
X104374919Y-91335492D01*
X104512154Y-91540879D01*
X104686821Y-91715546D01*
X104892208Y-91852781D01*
X105120422Y-91947310D01*
X105362692Y-91995500D01*
X105609708Y-91995500D01*
X105851978Y-91947310D01*
X106080192Y-91852781D01*
X106285579Y-91715546D01*
X106460246Y-91540879D01*
X106597481Y-91335492D01*
X106692010Y-91107278D01*
X106740200Y-90865008D01*
X106740200Y-90617992D01*
X106692010Y-90375722D01*
X106597481Y-90147508D01*
X106460246Y-89942121D01*
X106285579Y-89767454D01*
X106080192Y-89630219D01*
X105851978Y-89535690D01*
X105609708Y-89487500D01*
X105362692Y-89487500D01*
X105120422Y-89535690D01*
X104892208Y-89630219D01*
X104686821Y-89767454D01*
X104512154Y-89942121D01*
X104374919Y-90147508D01*
X104280390Y-90375722D01*
X104232200Y-90617992D01*
X100618800Y-90617992D01*
X100570610Y-90375722D01*
X100476081Y-90147508D01*
X100338846Y-89942121D01*
X100164179Y-89767454D01*
X99958792Y-89630219D01*
X99730578Y-89535690D01*
X99488308Y-89487500D01*
X99241292Y-89487500D01*
X98999022Y-89535690D01*
X98770808Y-89630219D01*
X98565421Y-89767454D01*
X98390754Y-89942121D01*
X98253519Y-90147508D01*
X98158990Y-90375722D01*
X98110800Y-90617992D01*
X94459300Y-90617992D01*
X94411110Y-90375722D01*
X94316581Y-90147508D01*
X94179346Y-89942121D01*
X94004679Y-89767454D01*
X93799292Y-89630219D01*
X93571078Y-89535690D01*
X93328808Y-89487500D01*
X93081792Y-89487500D01*
X92839522Y-89535690D01*
X92611308Y-89630219D01*
X92405921Y-89767454D01*
X92231254Y-89942121D01*
X92094019Y-90147508D01*
X91999490Y-90375722D01*
X91951300Y-90617992D01*
X89203600Y-90617992D01*
X89203600Y-85347492D01*
X91951300Y-85347492D01*
X91951300Y-85594508D01*
X91999490Y-85836778D01*
X92094019Y-86064992D01*
X92231254Y-86270379D01*
X92405921Y-86445046D01*
X92611308Y-86582281D01*
X92839522Y-86676810D01*
X93081792Y-86725000D01*
X93328808Y-86725000D01*
X93571078Y-86676810D01*
X93799292Y-86582281D01*
X94004679Y-86445046D01*
X94179346Y-86270379D01*
X94316581Y-86064992D01*
X94411110Y-85836778D01*
X94459300Y-85594508D01*
X94459300Y-85347492D01*
X98110800Y-85347492D01*
X98110800Y-85594508D01*
X98158990Y-85836778D01*
X98253519Y-86064992D01*
X98390754Y-86270379D01*
X98565421Y-86445046D01*
X98770808Y-86582281D01*
X98999022Y-86676810D01*
X99241292Y-86725000D01*
X99488308Y-86725000D01*
X99730578Y-86676810D01*
X99958792Y-86582281D01*
X100164179Y-86445046D01*
X100338846Y-86270379D01*
X100476081Y-86064992D01*
X100570610Y-85836778D01*
X100618800Y-85594508D01*
X100618800Y-85347492D01*
X104232200Y-85347492D01*
X104232200Y-85594508D01*
X104280390Y-85836778D01*
X104374919Y-86064992D01*
X104512154Y-86270379D01*
X104686821Y-86445046D01*
X104892208Y-86582281D01*
X105120422Y-86676810D01*
X105362692Y-86725000D01*
X105609708Y-86725000D01*
X105851978Y-86676810D01*
X106080192Y-86582281D01*
X106285579Y-86445046D01*
X106460246Y-86270379D01*
X106597481Y-86064992D01*
X106692010Y-85836778D01*
X106740200Y-85594508D01*
X106740200Y-85347492D01*
X106692010Y-85105222D01*
X106597481Y-84877008D01*
X106460246Y-84671621D01*
X106285579Y-84496954D01*
X106080192Y-84359719D01*
X105851978Y-84265190D01*
X105609708Y-84217000D01*
X105362692Y-84217000D01*
X105120422Y-84265190D01*
X104892208Y-84359719D01*
X104686821Y-84496954D01*
X104512154Y-84671621D01*
X104374919Y-84877008D01*
X104280390Y-85105222D01*
X104232200Y-85347492D01*
X100618800Y-85347492D01*
X100570610Y-85105222D01*
X100476081Y-84877008D01*
X100338846Y-84671621D01*
X100164179Y-84496954D01*
X99958792Y-84359719D01*
X99730578Y-84265190D01*
X99488308Y-84217000D01*
X99241292Y-84217000D01*
X98999022Y-84265190D01*
X98770808Y-84359719D01*
X98565421Y-84496954D01*
X98390754Y-84671621D01*
X98253519Y-84877008D01*
X98158990Y-85105222D01*
X98110800Y-85347492D01*
X94459300Y-85347492D01*
X94411110Y-85105222D01*
X94316581Y-84877008D01*
X94179346Y-84671621D01*
X94004679Y-84496954D01*
X93799292Y-84359719D01*
X93571078Y-84265190D01*
X93328808Y-84217000D01*
X93081792Y-84217000D01*
X92839522Y-84265190D01*
X92611308Y-84359719D01*
X92405921Y-84496954D01*
X92231254Y-84671621D01*
X92094019Y-84877008D01*
X91999490Y-85105222D01*
X91951300Y-85347492D01*
X89203600Y-85347492D01*
X89203600Y-79378490D01*
X91951300Y-79378490D01*
X91951300Y-79625506D01*
X91999490Y-79867776D01*
X92094019Y-80095990D01*
X92231254Y-80301377D01*
X92405921Y-80476044D01*
X92611308Y-80613279D01*
X92839522Y-80707808D01*
X93081792Y-80755998D01*
X93328808Y-80755998D01*
X93571078Y-80707808D01*
X93799292Y-80613279D01*
X94004679Y-80476044D01*
X94179346Y-80301377D01*
X94316581Y-80095990D01*
X94411110Y-79867776D01*
X94459300Y-79625506D01*
X94459300Y-79378490D01*
X98110800Y-79378490D01*
X98110800Y-79625506D01*
X98158990Y-79867776D01*
X98253519Y-80095990D01*
X98390754Y-80301377D01*
X98565421Y-80476044D01*
X98770808Y-80613279D01*
X98999022Y-80707808D01*
X99241292Y-80755998D01*
X99488308Y-80755998D01*
X99730578Y-80707808D01*
X99918171Y-80630105D01*
X102797120Y-83509054D01*
X102809844Y-83524558D01*
X102871726Y-83575344D01*
X102942327Y-83613081D01*
X102995695Y-83629270D01*
X103018933Y-83636319D01*
X103026937Y-83637107D01*
X103078642Y-83642200D01*
X103078648Y-83642200D01*
X103098601Y-83644165D01*
X103118554Y-83642200D01*
X113014064Y-83642200D01*
X117128864Y-87757000D01*
X114646137Y-87757000D01*
X113169958Y-86280822D01*
X113150342Y-86244123D01*
X113099556Y-86182241D01*
X113084053Y-86169518D01*
X112938906Y-86024371D01*
X113016609Y-85836778D01*
X113064799Y-85594508D01*
X113064799Y-85347492D01*
X113016609Y-85105222D01*
X112922080Y-84877008D01*
X112784845Y-84671621D01*
X112610178Y-84496954D01*
X112404791Y-84359719D01*
X112176577Y-84265190D01*
X111934307Y-84217000D01*
X111687291Y-84217000D01*
X111445021Y-84265190D01*
X111216807Y-84359719D01*
X111011420Y-84496954D01*
X110836753Y-84671621D01*
X110699518Y-84877008D01*
X110604989Y-85105222D01*
X110556799Y-85347492D01*
X110556799Y-85594508D01*
X110604989Y-85836778D01*
X110699518Y-86064992D01*
X110836753Y-86270379D01*
X111011420Y-86445046D01*
X111216807Y-86582281D01*
X111445021Y-86676810D01*
X111687291Y-86725000D01*
X111934307Y-86725000D01*
X112176577Y-86676810D01*
X112364170Y-86599107D01*
X112451638Y-86686575D01*
X112471254Y-86723274D01*
X112522040Y-86785156D01*
X112537543Y-86797879D01*
X114176323Y-88436660D01*
X114189042Y-88452158D01*
X114204540Y-88464877D01*
X114204545Y-88464882D01*
X114217546Y-88475551D01*
X114250924Y-88502944D01*
X114321525Y-88540681D01*
X114398131Y-88563919D01*
X114405404Y-88564635D01*
X114457840Y-88569800D01*
X113757137Y-88569800D01*
X112798081Y-87610745D01*
X112785358Y-87595242D01*
X112723476Y-87544456D01*
X112652875Y-87506719D01*
X112576268Y-87483481D01*
X112516560Y-87477600D01*
X112516553Y-87477600D01*
X112496600Y-87475635D01*
X112476647Y-87477600D01*
X103012937Y-87477600D01*
X102321662Y-86786326D01*
X102312856Y-86765066D01*
X102265601Y-86694344D01*
X102205456Y-86634199D01*
X102134734Y-86586944D01*
X102056151Y-86554394D01*
X101972729Y-86537800D01*
X101887671Y-86537800D01*
X101804249Y-86554394D01*
X101725666Y-86586944D01*
X101654944Y-86634199D01*
X101594799Y-86694344D01*
X101547544Y-86765066D01*
X101514994Y-86843649D01*
X101498400Y-86927071D01*
X101498400Y-87012129D01*
X101514994Y-87095551D01*
X101547544Y-87174134D01*
X101594799Y-87244856D01*
X101654944Y-87305001D01*
X101725666Y-87352256D01*
X101746926Y-87361062D01*
X102543122Y-88157259D01*
X102555842Y-88172758D01*
X102571340Y-88185477D01*
X102571345Y-88185482D01*
X102592346Y-88202717D01*
X102617724Y-88223544D01*
X102679809Y-88256729D01*
X102688325Y-88261281D01*
X102764931Y-88284519D01*
X102772204Y-88285235D01*
X102824640Y-88290400D01*
X102824647Y-88290400D01*
X102844600Y-88292365D01*
X102864553Y-88290400D01*
X112328264Y-88290400D01*
X113287322Y-89249459D01*
X113300042Y-89264958D01*
X113315540Y-89277677D01*
X113315545Y-89277682D01*
X113336546Y-89294917D01*
X113361924Y-89315744D01*
X113432525Y-89353481D01*
X113509131Y-89376719D01*
X113517135Y-89377507D01*
X113568840Y-89382600D01*
X113568846Y-89382600D01*
X113588799Y-89384565D01*
X113608752Y-89382600D01*
X117908896Y-89382600D01*
X117930865Y-89400629D01*
X118019117Y-89447801D01*
X118114875Y-89476849D01*
X118189513Y-89484200D01*
X130919871Y-89484200D01*
X130836449Y-89500794D01*
X130757866Y-89533344D01*
X130687144Y-89580599D01*
X130626999Y-89640744D01*
X130579744Y-89711466D01*
X130547194Y-89790049D01*
X130530600Y-89873471D01*
X130530600Y-89958529D01*
X130547194Y-90041951D01*
X130579744Y-90120534D01*
X130626999Y-90191256D01*
X130687144Y-90251401D01*
X130757866Y-90298656D01*
X130836449Y-90331206D01*
X130919871Y-90347800D01*
X131004929Y-90347800D01*
X131088351Y-90331206D01*
X131166934Y-90298656D01*
X131237656Y-90251401D01*
X131297801Y-90191256D01*
X131345056Y-90120534D01*
X131377606Y-90041951D01*
X131394200Y-89958529D01*
X131394200Y-89873471D01*
X131377606Y-89790049D01*
X131345056Y-89711466D01*
X131297801Y-89640744D01*
X131237656Y-89580599D01*
X131166934Y-89533344D01*
X131088351Y-89500794D01*
X131004929Y-89484200D01*
X141274347Y-89484200D01*
X141348985Y-89476849D01*
X141444743Y-89447801D01*
X141532995Y-89400629D01*
X141610348Y-89337148D01*
X141673829Y-89259795D01*
X141721001Y-89171543D01*
X141750049Y-89075785D01*
X141759857Y-88976200D01*
X141750049Y-88876615D01*
X141721001Y-88780857D01*
X141673829Y-88692605D01*
X141610348Y-88615252D01*
X141532995Y-88551771D01*
X141444743Y-88504599D01*
X141348985Y-88475551D01*
X141274347Y-88468200D01*
X121489257Y-88468200D01*
X121518801Y-88438656D01*
X121566056Y-88367934D01*
X121598606Y-88289351D01*
X121615200Y-88205929D01*
X121615200Y-88120871D01*
X121598606Y-88037449D01*
X121566609Y-87960200D01*
X127187264Y-87960200D01*
X127319738Y-88092674D01*
X127328544Y-88113934D01*
X127375799Y-88184656D01*
X127435944Y-88244801D01*
X127506666Y-88292056D01*
X127585249Y-88324606D01*
X127668671Y-88341200D01*
X127753729Y-88341200D01*
X127837151Y-88324606D01*
X127915734Y-88292056D01*
X127986456Y-88244801D01*
X128046601Y-88184656D01*
X128055277Y-88171671D01*
X150672800Y-88171671D01*
X150672800Y-88256729D01*
X150689394Y-88340151D01*
X150721944Y-88418734D01*
X150769199Y-88489456D01*
X150829344Y-88549601D01*
X150900066Y-88596856D01*
X150978649Y-88629406D01*
X151062071Y-88646000D01*
X151147129Y-88646000D01*
X151230551Y-88629406D01*
X151309134Y-88596856D01*
X151379856Y-88549601D01*
X151440001Y-88489456D01*
X151487256Y-88418734D01*
X151519806Y-88340151D01*
X151536400Y-88256729D01*
X151536400Y-88171671D01*
X151519806Y-88088249D01*
X151487256Y-88009666D01*
X151440001Y-87938944D01*
X151379856Y-87878799D01*
X151309134Y-87831544D01*
X151230551Y-87798994D01*
X151147129Y-87782400D01*
X151062071Y-87782400D01*
X150978649Y-87798994D01*
X150900066Y-87831544D01*
X150829344Y-87878799D01*
X150769199Y-87938944D01*
X150721944Y-88009666D01*
X150689394Y-88088249D01*
X150672800Y-88171671D01*
X128055277Y-88171671D01*
X128093856Y-88113934D01*
X128126406Y-88035351D01*
X128143000Y-87951929D01*
X128143000Y-87866871D01*
X128126406Y-87783449D01*
X128093856Y-87704866D01*
X128066331Y-87663671D01*
X129870200Y-87663671D01*
X129870200Y-87748729D01*
X129886794Y-87832151D01*
X129919344Y-87910734D01*
X129966599Y-87981456D01*
X130026744Y-88041601D01*
X130097466Y-88088856D01*
X130176049Y-88121406D01*
X130259471Y-88138000D01*
X130344529Y-88138000D01*
X130427951Y-88121406D01*
X130506534Y-88088856D01*
X130577256Y-88041601D01*
X130637401Y-87981456D01*
X130684656Y-87910734D01*
X130717206Y-87832151D01*
X130733800Y-87748729D01*
X130733800Y-87663671D01*
X130731272Y-87650961D01*
X146812311Y-87650961D01*
X146812311Y-87736019D01*
X146828905Y-87819441D01*
X146861455Y-87898024D01*
X146908710Y-87968746D01*
X146968855Y-88028891D01*
X147039577Y-88076146D01*
X147118160Y-88108696D01*
X147201582Y-88125290D01*
X147286640Y-88125290D01*
X147370062Y-88108696D01*
X147448645Y-88076146D01*
X147519367Y-88028891D01*
X147579512Y-87968746D01*
X147626767Y-87898024D01*
X147659317Y-87819441D01*
X147675911Y-87736019D01*
X147675911Y-87650961D01*
X147659317Y-87567539D01*
X147626767Y-87488956D01*
X147579512Y-87418234D01*
X147519367Y-87358089D01*
X147448645Y-87310834D01*
X147370062Y-87278284D01*
X147286640Y-87261690D01*
X147201582Y-87261690D01*
X147118160Y-87278284D01*
X147039577Y-87310834D01*
X146968855Y-87358089D01*
X146908710Y-87418234D01*
X146861455Y-87488956D01*
X146828905Y-87567539D01*
X146812311Y-87650961D01*
X130731272Y-87650961D01*
X130717206Y-87580249D01*
X130684656Y-87501666D01*
X130637401Y-87430944D01*
X130577256Y-87370799D01*
X130506534Y-87323544D01*
X130427951Y-87290994D01*
X130344529Y-87274400D01*
X130259471Y-87274400D01*
X130176049Y-87290994D01*
X130097466Y-87323544D01*
X130026744Y-87370799D01*
X129966599Y-87430944D01*
X129919344Y-87501666D01*
X129886794Y-87580249D01*
X129870200Y-87663671D01*
X128066331Y-87663671D01*
X128046601Y-87634144D01*
X127986456Y-87573999D01*
X127915734Y-87526744D01*
X127894474Y-87517938D01*
X127657081Y-87280545D01*
X127644358Y-87265042D01*
X127582476Y-87214256D01*
X127557487Y-87200899D01*
X140104157Y-87200899D01*
X140129101Y-87203356D01*
X140154045Y-87200899D01*
X140154048Y-87200899D01*
X140228686Y-87193548D01*
X140324444Y-87164500D01*
X140412696Y-87117328D01*
X140490049Y-87053847D01*
X140505957Y-87034463D01*
X140648465Y-86891954D01*
X140648470Y-86891950D01*
X140686450Y-86853970D01*
X140734029Y-86795995D01*
X140781200Y-86707744D01*
X140784012Y-86698471D01*
X150571200Y-86698471D01*
X150571200Y-86783529D01*
X150587794Y-86866951D01*
X150620344Y-86945534D01*
X150667599Y-87016256D01*
X150727744Y-87076401D01*
X150798466Y-87123656D01*
X150877049Y-87156206D01*
X150960471Y-87172800D01*
X151045529Y-87172800D01*
X151128951Y-87156206D01*
X151207534Y-87123656D01*
X151278256Y-87076401D01*
X151338401Y-87016256D01*
X151385656Y-86945534D01*
X151418206Y-86866951D01*
X151434800Y-86783529D01*
X151434800Y-86698471D01*
X151418206Y-86615049D01*
X151385656Y-86536466D01*
X151338401Y-86465744D01*
X151278256Y-86405599D01*
X151207534Y-86358344D01*
X151128951Y-86325794D01*
X151045529Y-86309200D01*
X150960471Y-86309200D01*
X150877049Y-86325794D01*
X150798466Y-86358344D01*
X150727744Y-86405599D01*
X150667599Y-86465744D01*
X150620344Y-86536466D01*
X150587794Y-86615049D01*
X150571200Y-86698471D01*
X140784012Y-86698471D01*
X140810248Y-86611984D01*
X140820057Y-86512401D01*
X140810248Y-86412816D01*
X140781200Y-86317057D01*
X140734029Y-86228806D01*
X140670547Y-86151453D01*
X140593194Y-86087971D01*
X140504943Y-86040800D01*
X140409184Y-86011752D01*
X140309599Y-86001943D01*
X140210016Y-86011752D01*
X140114256Y-86040800D01*
X140026005Y-86087971D01*
X139968030Y-86135550D01*
X139930050Y-86173530D01*
X139930046Y-86173535D01*
X139918682Y-86184899D01*
X118564419Y-86184899D01*
X118517770Y-86138250D01*
X118459795Y-86090671D01*
X118371543Y-86043500D01*
X118275784Y-86014452D01*
X118247503Y-86011666D01*
X117791308Y-85555471D01*
X120777000Y-85555471D01*
X120777000Y-85640529D01*
X120793594Y-85723951D01*
X120826144Y-85802534D01*
X120873399Y-85873256D01*
X120933544Y-85933401D01*
X121004266Y-85980656D01*
X121082849Y-86013206D01*
X121166271Y-86029800D01*
X121251329Y-86029800D01*
X121334751Y-86013206D01*
X121413334Y-85980656D01*
X121484056Y-85933401D01*
X121544201Y-85873256D01*
X121591456Y-85802534D01*
X121624006Y-85723951D01*
X121640600Y-85640529D01*
X121640600Y-85555471D01*
X127000000Y-85555471D01*
X127000000Y-85640529D01*
X127016594Y-85723951D01*
X127049144Y-85802534D01*
X127096399Y-85873256D01*
X127156544Y-85933401D01*
X127227266Y-85980656D01*
X127305849Y-86013206D01*
X127389271Y-86029800D01*
X127474329Y-86029800D01*
X127557751Y-86013206D01*
X127636334Y-85980656D01*
X127707056Y-85933401D01*
X127767201Y-85873256D01*
X127814456Y-85802534D01*
X127847006Y-85723951D01*
X127863600Y-85640529D01*
X127863600Y-85555471D01*
X127847006Y-85472049D01*
X127814456Y-85393466D01*
X127767201Y-85322744D01*
X127707056Y-85262599D01*
X127636334Y-85215344D01*
X127557751Y-85182794D01*
X127474329Y-85166200D01*
X127389271Y-85166200D01*
X127305849Y-85182794D01*
X127227266Y-85215344D01*
X127156544Y-85262599D01*
X127096399Y-85322744D01*
X127049144Y-85393466D01*
X127016594Y-85472049D01*
X127000000Y-85555471D01*
X121640600Y-85555471D01*
X121624006Y-85472049D01*
X121591456Y-85393466D01*
X121544201Y-85322744D01*
X121484056Y-85262599D01*
X121413334Y-85215344D01*
X121334751Y-85182794D01*
X121251329Y-85166200D01*
X121166271Y-85166200D01*
X121082849Y-85182794D01*
X121004266Y-85215344D01*
X120933544Y-85262599D01*
X120873399Y-85322744D01*
X120826144Y-85393466D01*
X120793594Y-85472049D01*
X120777000Y-85555471D01*
X117791308Y-85555471D01*
X116422701Y-84186864D01*
X121266190Y-84186864D01*
X121266190Y-84337216D01*
X121295522Y-84484678D01*
X121353059Y-84623584D01*
X121436590Y-84748596D01*
X121542904Y-84854910D01*
X121667916Y-84938441D01*
X121806822Y-84995978D01*
X121954284Y-85025310D01*
X122104636Y-85025310D01*
X122252098Y-84995978D01*
X122391004Y-84938441D01*
X122516016Y-84854910D01*
X122622330Y-84748596D01*
X122705861Y-84623584D01*
X122763398Y-84484678D01*
X122792730Y-84337216D01*
X122792730Y-84186864D01*
X122763398Y-84039402D01*
X122705861Y-83900496D01*
X122622330Y-83775484D01*
X122516016Y-83669170D01*
X122391004Y-83585639D01*
X122252098Y-83528102D01*
X122104636Y-83498770D01*
X121954284Y-83498770D01*
X121806822Y-83528102D01*
X121667916Y-83585639D01*
X121542904Y-83669170D01*
X121436590Y-83775484D01*
X121353059Y-83900496D01*
X121295522Y-84039402D01*
X121266190Y-84186864D01*
X116422701Y-84186864D01*
X115594787Y-83358950D01*
X142761000Y-83358950D01*
X142761000Y-83509050D01*
X142790283Y-83656267D01*
X142847724Y-83794942D01*
X142931116Y-83919747D01*
X143037253Y-84025884D01*
X143162058Y-84109276D01*
X143300733Y-84166717D01*
X143447950Y-84196000D01*
X143598050Y-84196000D01*
X143745267Y-84166717D01*
X143883942Y-84109276D01*
X143935760Y-84074652D01*
X148665817Y-84074652D01*
X148665817Y-84159710D01*
X148682411Y-84243132D01*
X148714961Y-84321715D01*
X148762216Y-84392437D01*
X148822361Y-84452582D01*
X148893083Y-84499837D01*
X148971666Y-84532387D01*
X149055088Y-84548981D01*
X149140146Y-84548981D01*
X149223568Y-84532387D01*
X149302151Y-84499837D01*
X149372873Y-84452582D01*
X149433018Y-84392437D01*
X149480273Y-84321715D01*
X149512823Y-84243132D01*
X149529417Y-84159710D01*
X149529417Y-84074652D01*
X149512823Y-83991230D01*
X149480273Y-83912647D01*
X149433018Y-83841925D01*
X149372873Y-83781780D01*
X149302151Y-83734525D01*
X149223568Y-83701975D01*
X149140146Y-83685381D01*
X149055088Y-83685381D01*
X148971666Y-83701975D01*
X148893083Y-83734525D01*
X148822361Y-83781780D01*
X148762216Y-83841925D01*
X148714961Y-83912647D01*
X148682411Y-83991230D01*
X148665817Y-84074652D01*
X143935760Y-84074652D01*
X144008747Y-84025884D01*
X144114884Y-83919747D01*
X144198276Y-83794942D01*
X144255717Y-83656267D01*
X144285000Y-83509050D01*
X144285000Y-83358950D01*
X144255717Y-83211733D01*
X144198276Y-83073058D01*
X144114884Y-82948253D01*
X144008747Y-82842116D01*
X143883942Y-82758724D01*
X143745267Y-82701283D01*
X143598050Y-82672000D01*
X143447950Y-82672000D01*
X143300733Y-82701283D01*
X143162058Y-82758724D01*
X143037253Y-82842116D01*
X142931116Y-82948253D01*
X142847724Y-83073058D01*
X142790283Y-83211733D01*
X142761000Y-83358950D01*
X115594787Y-83358950D01*
X113648981Y-81413145D01*
X113636258Y-81397642D01*
X113574376Y-81346856D01*
X113503775Y-81309119D01*
X113427168Y-81285881D01*
X113367460Y-81280000D01*
X113367453Y-81280000D01*
X113347500Y-81278035D01*
X113327547Y-81280000D01*
X109845537Y-81280000D01*
X109194600Y-80629064D01*
X109194600Y-79378490D01*
X110556799Y-79378490D01*
X110556799Y-79625506D01*
X110604989Y-79867776D01*
X110699518Y-80095990D01*
X110836753Y-80301377D01*
X111011420Y-80476044D01*
X111216807Y-80613279D01*
X111445021Y-80707808D01*
X111687291Y-80755998D01*
X111934307Y-80755998D01*
X112176577Y-80707808D01*
X112404791Y-80613279D01*
X112610178Y-80476044D01*
X112784845Y-80301377D01*
X112922080Y-80095990D01*
X113016609Y-79867776D01*
X113064799Y-79625506D01*
X113064799Y-79378490D01*
X113016609Y-79136220D01*
X112922080Y-78908006D01*
X112784845Y-78702619D01*
X112610178Y-78527952D01*
X112404791Y-78390717D01*
X112176577Y-78296188D01*
X111934307Y-78247998D01*
X111687291Y-78247998D01*
X111445021Y-78296188D01*
X111216807Y-78390717D01*
X111011420Y-78527952D01*
X110836753Y-78702619D01*
X110699518Y-78908006D01*
X110604989Y-79136220D01*
X110556799Y-79378490D01*
X109194600Y-79378490D01*
X109194600Y-77769352D01*
X109196565Y-77749399D01*
X109194600Y-77729446D01*
X109194600Y-77729440D01*
X109189507Y-77677735D01*
X109188719Y-77669731D01*
X109176225Y-77628545D01*
X109165481Y-77593125D01*
X109127744Y-77522524D01*
X109076958Y-77460642D01*
X109061455Y-77447919D01*
X105892600Y-74279064D01*
X105892600Y-74112384D01*
X106080192Y-74034681D01*
X106285579Y-73897446D01*
X106460246Y-73722779D01*
X106597481Y-73517392D01*
X106692010Y-73289178D01*
X106740200Y-73046908D01*
X106740200Y-72799892D01*
X106692010Y-72557622D01*
X106597481Y-72329408D01*
X106460246Y-72124021D01*
X106285579Y-71949354D01*
X106080192Y-71812119D01*
X105851978Y-71717590D01*
X105609708Y-71669400D01*
X105362692Y-71669400D01*
X105120422Y-71717590D01*
X104892208Y-71812119D01*
X104686821Y-71949354D01*
X104512154Y-72124021D01*
X104374919Y-72329408D01*
X104280390Y-72557622D01*
X104232200Y-72799892D01*
X104232200Y-73046908D01*
X104280390Y-73289178D01*
X104374919Y-73517392D01*
X104512154Y-73722779D01*
X104686821Y-73897446D01*
X104892208Y-74034681D01*
X105079801Y-74112384D01*
X105079801Y-74427438D01*
X105077835Y-74447400D01*
X105085681Y-74527068D01*
X105108919Y-74603674D01*
X105108920Y-74603675D01*
X105146657Y-74674276D01*
X105163749Y-74695102D01*
X105184718Y-74720654D01*
X105184724Y-74720660D01*
X105197443Y-74736158D01*
X105212941Y-74748877D01*
X108381800Y-77917736D01*
X108381801Y-80777437D01*
X108379835Y-80797400D01*
X108387681Y-80877068D01*
X108410919Y-80953674D01*
X108410920Y-80953675D01*
X108448657Y-81024276D01*
X108465749Y-81045102D01*
X108486718Y-81070654D01*
X108486724Y-81070660D01*
X108499443Y-81086158D01*
X108514941Y-81098877D01*
X109375722Y-81959659D01*
X109388442Y-81975158D01*
X109403940Y-81987877D01*
X109403945Y-81987882D01*
X109424946Y-82005117D01*
X109450324Y-82025944D01*
X109520925Y-82063681D01*
X109597531Y-82086919D01*
X109604804Y-82087635D01*
X109657240Y-82092800D01*
X109657247Y-82092800D01*
X109677200Y-82094765D01*
X109697153Y-82092800D01*
X113179164Y-82092800D01*
X117672766Y-86586403D01*
X117675552Y-86614684D01*
X117704600Y-86710443D01*
X117751771Y-86798695D01*
X117799350Y-86856670D01*
X117977140Y-87034459D01*
X117993051Y-87053847D01*
X118070404Y-87117328D01*
X118126664Y-87147400D01*
X117668736Y-87147400D01*
X113483881Y-82962545D01*
X113471158Y-82947042D01*
X113409276Y-82896256D01*
X113338675Y-82858519D01*
X113262068Y-82835281D01*
X113202360Y-82829400D01*
X113202353Y-82829400D01*
X113182400Y-82827435D01*
X113162447Y-82829400D01*
X103266938Y-82829400D01*
X100492907Y-80055369D01*
X100570610Y-79867776D01*
X100618800Y-79625506D01*
X100618800Y-79378490D01*
X104232200Y-79378490D01*
X104232200Y-79625506D01*
X104280390Y-79867776D01*
X104374919Y-80095990D01*
X104512154Y-80301377D01*
X104686821Y-80476044D01*
X104892208Y-80613279D01*
X105120422Y-80707808D01*
X105362692Y-80755998D01*
X105609708Y-80755998D01*
X105851978Y-80707808D01*
X106080192Y-80613279D01*
X106285579Y-80476044D01*
X106460246Y-80301377D01*
X106597481Y-80095990D01*
X106692010Y-79867776D01*
X106740200Y-79625506D01*
X106740200Y-79378490D01*
X106692010Y-79136220D01*
X106597481Y-78908006D01*
X106460246Y-78702619D01*
X106285579Y-78527952D01*
X106080192Y-78390717D01*
X105851978Y-78296188D01*
X105609708Y-78247998D01*
X105362692Y-78247998D01*
X105120422Y-78296188D01*
X104892208Y-78390717D01*
X104686821Y-78527952D01*
X104512154Y-78702619D01*
X104374919Y-78908006D01*
X104280390Y-79136220D01*
X104232200Y-79378490D01*
X100618800Y-79378490D01*
X100570610Y-79136220D01*
X100476081Y-78908006D01*
X100338846Y-78702619D01*
X100164179Y-78527952D01*
X99958792Y-78390717D01*
X99730578Y-78296188D01*
X99488308Y-78247998D01*
X99241292Y-78247998D01*
X98999022Y-78296188D01*
X98770808Y-78390717D01*
X98565421Y-78527952D01*
X98390754Y-78702619D01*
X98253519Y-78908006D01*
X98158990Y-79136220D01*
X98110800Y-79378490D01*
X94459300Y-79378490D01*
X94411110Y-79136220D01*
X94316581Y-78908006D01*
X94179346Y-78702619D01*
X94004679Y-78527952D01*
X93799292Y-78390717D01*
X93571078Y-78296188D01*
X93328808Y-78247998D01*
X93081792Y-78247998D01*
X92839522Y-78296188D01*
X92611308Y-78390717D01*
X92405921Y-78527952D01*
X92231254Y-78702619D01*
X92094019Y-78908006D01*
X91999490Y-79136220D01*
X91951300Y-79378490D01*
X89203600Y-79378490D01*
X89203600Y-72799892D01*
X91951300Y-72799892D01*
X91951300Y-73046908D01*
X91999490Y-73289178D01*
X92094019Y-73517392D01*
X92231254Y-73722779D01*
X92405921Y-73897446D01*
X92611308Y-74034681D01*
X92839522Y-74129210D01*
X93081792Y-74177400D01*
X93328808Y-74177400D01*
X93571078Y-74129210D01*
X93799292Y-74034681D01*
X94004679Y-73897446D01*
X94179346Y-73722779D01*
X94316581Y-73517392D01*
X94411110Y-73289178D01*
X94459300Y-73046908D01*
X94459300Y-72799892D01*
X98110800Y-72799892D01*
X98110800Y-73046908D01*
X98158990Y-73289178D01*
X98253519Y-73517392D01*
X98390754Y-73722779D01*
X98565421Y-73897446D01*
X98770808Y-74034681D01*
X98999022Y-74129210D01*
X99241292Y-74177400D01*
X99488308Y-74177400D01*
X99730578Y-74129210D01*
X99958792Y-74034681D01*
X100164179Y-73897446D01*
X100338846Y-73722779D01*
X100476081Y-73517392D01*
X100570610Y-73289178D01*
X100618800Y-73046908D01*
X100618800Y-72799892D01*
X100570610Y-72557622D01*
X100476081Y-72329408D01*
X100338846Y-72124021D01*
X100164179Y-71949354D01*
X99958792Y-71812119D01*
X99730578Y-71717590D01*
X99488308Y-71669400D01*
X99241292Y-71669400D01*
X98999022Y-71717590D01*
X98770808Y-71812119D01*
X98565421Y-71949354D01*
X98390754Y-72124021D01*
X98253519Y-72329408D01*
X98158990Y-72557622D01*
X98110800Y-72799892D01*
X94459300Y-72799892D01*
X94411110Y-72557622D01*
X94333407Y-72370029D01*
X95913636Y-70789800D01*
X107883264Y-70789800D01*
X108635800Y-71542337D01*
X108635801Y-74783037D01*
X108633835Y-74803000D01*
X108641681Y-74882668D01*
X108664919Y-74959274D01*
X108664920Y-74959275D01*
X108702657Y-75029876D01*
X108719749Y-75050702D01*
X108740718Y-75076254D01*
X108740724Y-75076260D01*
X108753443Y-75091758D01*
X108768941Y-75104477D01*
X109807522Y-76143059D01*
X109820242Y-76158558D01*
X109835740Y-76171277D01*
X109835745Y-76171282D01*
X109856746Y-76188517D01*
X109882124Y-76209344D01*
X109952725Y-76247081D01*
X110029331Y-76270319D01*
X110037335Y-76271107D01*
X110089040Y-76276200D01*
X110089046Y-76276200D01*
X110108999Y-76278165D01*
X110128952Y-76276200D01*
X112810864Y-76276200D01*
X114604800Y-78070137D01*
X114604801Y-80751787D01*
X114595994Y-80773049D01*
X114579400Y-80856471D01*
X114579400Y-80941529D01*
X114595994Y-81024951D01*
X114628544Y-81103534D01*
X114675799Y-81174256D01*
X114735944Y-81234401D01*
X114806666Y-81281656D01*
X114885249Y-81314206D01*
X114968671Y-81330800D01*
X115053729Y-81330800D01*
X115137151Y-81314206D01*
X115215734Y-81281656D01*
X115286456Y-81234401D01*
X115346601Y-81174256D01*
X115393856Y-81103534D01*
X115426406Y-81024951D01*
X115443000Y-80941529D01*
X115443000Y-80856471D01*
X115426406Y-80773049D01*
X115417600Y-80751789D01*
X115417600Y-77921753D01*
X115419565Y-77901800D01*
X115417600Y-77881847D01*
X115417600Y-77881840D01*
X115411719Y-77822132D01*
X115388481Y-77745525D01*
X115350744Y-77674924D01*
X115329917Y-77649546D01*
X115312682Y-77628545D01*
X115312677Y-77628540D01*
X115299958Y-77613042D01*
X115284461Y-77600324D01*
X113280681Y-75596545D01*
X113267958Y-75581042D01*
X113206076Y-75530256D01*
X113135475Y-75492519D01*
X113058868Y-75469281D01*
X112999160Y-75463400D01*
X112999153Y-75463400D01*
X112979200Y-75461435D01*
X112959247Y-75463400D01*
X110277337Y-75463400D01*
X109448600Y-74634664D01*
X109448600Y-72799892D01*
X110556799Y-72799892D01*
X110556799Y-73046908D01*
X110604989Y-73289178D01*
X110699518Y-73517392D01*
X110836753Y-73722779D01*
X111011420Y-73897446D01*
X111216807Y-74034681D01*
X111445021Y-74129210D01*
X111687291Y-74177400D01*
X111934307Y-74177400D01*
X112176577Y-74129210D01*
X112404791Y-74034681D01*
X112610178Y-73897446D01*
X112784845Y-73722779D01*
X112922080Y-73517392D01*
X113016609Y-73289178D01*
X113064799Y-73046908D01*
X113064799Y-72799892D01*
X113016609Y-72557622D01*
X112922080Y-72329408D01*
X112784845Y-72124021D01*
X112610178Y-71949354D01*
X112404791Y-71812119D01*
X112176577Y-71717590D01*
X111934307Y-71669400D01*
X111687291Y-71669400D01*
X111445021Y-71717590D01*
X111216807Y-71812119D01*
X111011420Y-71949354D01*
X110836753Y-72124021D01*
X110699518Y-72329408D01*
X110604989Y-72557622D01*
X110556799Y-72799892D01*
X109448600Y-72799892D01*
X109448600Y-71393953D01*
X109450565Y-71374000D01*
X109448600Y-71354047D01*
X109448600Y-71354040D01*
X109442719Y-71294332D01*
X109419481Y-71217725D01*
X109381744Y-71147124D01*
X109360917Y-71121746D01*
X109343682Y-71100745D01*
X109343677Y-71100740D01*
X109330958Y-71085242D01*
X109315461Y-71072524D01*
X108353082Y-70110146D01*
X108340358Y-70094642D01*
X108278476Y-70043856D01*
X108207875Y-70006119D01*
X108131268Y-69982881D01*
X108071560Y-69977000D01*
X108071553Y-69977000D01*
X108051600Y-69975035D01*
X108031647Y-69977000D01*
X95765252Y-69977000D01*
X95745299Y-69975035D01*
X95725346Y-69977000D01*
X95725340Y-69977000D01*
X95673635Y-69982093D01*
X95665631Y-69982881D01*
X95642393Y-69989930D01*
X95589025Y-70006119D01*
X95518424Y-70043856D01*
X95456542Y-70094642D01*
X95443818Y-70110146D01*
X93758671Y-71795293D01*
X93571078Y-71717590D01*
X93328808Y-71669400D01*
X93081792Y-71669400D01*
X92839522Y-71717590D01*
X92611308Y-71812119D01*
X92405921Y-71949354D01*
X92231254Y-72124021D01*
X92094019Y-72329408D01*
X91999490Y-72557622D01*
X91951300Y-72799892D01*
X89203600Y-72799892D01*
X89203600Y-66303600D01*
X159716401Y-66303600D01*
X159716400Y-140696400D01*
G37*
G04 #@! TD.AperFunction*
M02*
