M48
INCH,TZ
T1C0.0080
T2C0.0100
T3C0.0300
T4C0.0394
%
G90
G05
T1
X36140Y-52000
X36360Y-52000
X37476Y-43555
X37476Y-43775
X40130Y-34240
X41394Y-52169
X41614Y-52169
X41770Y-47290
X41770Y-47510
X44810Y-41480
X45010Y-35450
X45080Y-37010
X45190Y-39660
X45270Y-35850
X45280Y-31850
X45380Y-37710
X46526Y-34061
X46541Y-35030
X46546Y-42140
X46570Y-35730
X46654Y-37380
X46700Y-37990
X46780Y-37580
X47700Y-35680
X47710Y-34710
X47720Y-33700
X47740Y-38090
X47740Y-39450
X47750Y-36700
X47760Y-36300
X47820Y-42130
X47860Y-46150
X47860Y-46370
X48965Y-37600
X49100Y-35450
X49160Y-36330
X49190Y-39130
X49460Y-36620
X49640Y-37760
X50170Y-33700
X50280Y-34610
X51300Y-34530
X51560Y-35400
X53790Y-35970
X54750Y-49310
X54750Y-49530
X55040Y-39510
X55239Y-34061
X55280Y-37350
X55450Y-39810
X55580Y-36950
X55610Y-35030
X57140Y-42140
X57773Y-36693
X57890Y-37000
X57900Y-35700
X57900Y-37300
X57910Y-35380
X57910Y-42130
X57950Y-36100
X57950Y-38930
X57967Y-34930
X57970Y-34525
X58090Y-35130
X58700Y-33117
X59450Y-34150
X59450Y-37600
X59480Y-46160
X59480Y-46380
X59490Y-34730
X59500Y-36300
X59550Y-38290
T2
X35750Y-49150
X36175Y-43600
X36175Y-44600
X36175Y-45600
X36200Y-53900
X37325Y-46400
X37600Y-26600
X38075Y-46050
X38225Y-51700
X38325Y-50600
X38525Y-54900
X38975Y-46850
X39177Y-41953
X39600Y-26600
X40125Y-46850
X40175Y-52350
X40420Y-44660
X40525Y-54900
X41157Y-51237
X41600Y-26600
X41700Y-50250
X41800Y-44550
X42298Y-52657
X42525Y-54900
X42625Y-53350
X42875Y-48600
X43020Y-44693
X43600Y-26600
X43925Y-48600
X44047Y-42791
X44280Y-50090
X44425Y-53400
X44525Y-54900
X45325Y-53400
X45600Y-26600
X46210Y-50570
X46610Y-30114
X46700Y-52100
X46850Y-53400
X46890Y-49350
X46950Y-54900
X47600Y-26600
X47790Y-49400
X48007Y-50767
X48094Y-52150
X48570Y-53310
X48950Y-54900
X49600Y-26600
X49700Y-45400
X50000Y-42126
X50055Y-40500
X50850Y-45450
X50950Y-54900
X51000Y-52750
X51114Y-38705
X51550Y-53300
X51600Y-26600
X51750Y-52200
X51823Y-41839
X51839Y-33472
X51996Y-29421
X52100Y-50800
X52335Y-45717
X52452Y-50118
X52461Y-35390
X52524Y-44417
X52732Y-42783
X52800Y-53350
X52891Y-26574
X52950Y-54900
X53260Y-40205
X53461Y-50126
X53550Y-52100
X53825Y-50818
X53917Y-43346
X53972Y-45988
X54000Y-53350
X54043Y-38701
X54386Y-42134
X54402Y-35390
X54913Y-33563
X54950Y-54900
X55100Y-50100
X55150Y-48800
X55185Y-46787
X55209Y-43327
X55400Y-52150
X55429Y-44874
X55450Y-53350
X55500Y-50800
X55600Y-26600
X56400Y-53300
X56900Y-50050
X56950Y-52200
X56950Y-54900
X57200Y-50650
X57600Y-26600
X57650Y-53150
X57992Y-29303
X58300Y-51750
X58650Y-50350
X58850Y-53000
X58950Y-54900
X59500Y-52350
X59600Y-26600
X59700Y-48600
X59750Y-47550
X59950Y-51450
X60050Y-50450
X60600Y-54250
X61031Y-30921
X61350Y-49050
X61450Y-50000
X61450Y-52000
X61750Y-46100
X61799Y-35650
X61917Y-41417
X61950Y-48150
X61953Y-38571
X61953Y-43878
T3
X36955Y-44640
X37100Y-42530
X37135Y-51700
X37225Y-50650
X37375Y-47490
X37395Y-54740
X41145Y-47080
X41475Y-48440
X43465Y-53110
X43475Y-49930
T4
X36695Y-28710
X36695Y-31300
X36695Y-33650
X36695Y-35725
X36695Y-37930
X36695Y-40200
X39120Y-28710
X39120Y-31300
X39120Y-33650
X39120Y-35725
X39120Y-37930
X39120Y-40200
X41520Y-42280
X41530Y-28710
X41530Y-31300
X41530Y-33650
X41530Y-35725
X41530Y-37930
X41530Y-40200
X44020Y-28710
X44020Y-31300
X44020Y-33650
X44020Y-35725
X44020Y-37930
X44020Y-40200
X46550Y-27860
X54050Y-27860
T0
M30
