G04 #@! TF.GenerationSoftware,KiCad,Pcbnew,(5.1.10)-1*
G04 #@! TF.CreationDate,2021-10-10T14:41:10+03:00*
G04 #@! TF.ProjectId,Jetson_camera_interposer,4a657473-6f6e-45f6-9361-6d6572615f69,rev?*
G04 #@! TF.SameCoordinates,Original*
G04 #@! TF.FileFunction,Soldermask,Bot*
G04 #@! TF.FilePolarity,Negative*
%FSLAX46Y46*%
G04 Gerber Fmt 4.6, Leading zero omitted, Abs format (unit mm)*
G04 Created by KiCad (PCBNEW (5.1.10)-1) date 2021-10-10 14:41:10*
%MOMM*%
%LPD*%
G01*
G04 APERTURE LIST*
%ADD10C,1.016000*%
%ADD11R,1.447800X0.299720*%
%ADD12R,0.637540X2.540000*%
%ADD13R,0.637540X4.699000*%
%ADD14C,1.018540*%
%ADD15O,1.700000X1.700000*%
%ADD16R,1.700000X1.700000*%
%ADD17C,2.200000*%
G04 APERTURE END LIST*
D10*
X143523000Y-123566000D03*
X143523000Y-83434000D03*
D11*
X123088640Y-120749140D03*
X116911360Y-120749140D03*
X123088640Y-120248760D03*
X116911360Y-120248760D03*
X123088640Y-119748380D03*
X116911360Y-119748380D03*
X123088640Y-119248000D03*
X116911360Y-119248000D03*
X123088640Y-118747620D03*
X116911360Y-118747620D03*
X123088640Y-118249780D03*
X116911360Y-118249780D03*
X123088640Y-117749400D03*
X116911360Y-117749400D03*
X123088640Y-117249020D03*
X116911360Y-117249020D03*
X123088640Y-116748640D03*
X116911360Y-116748640D03*
X123088640Y-116248260D03*
X116911360Y-116248260D03*
X123088640Y-115747880D03*
X116911360Y-115747880D03*
X123088640Y-115247500D03*
X116911360Y-115247500D03*
X123088640Y-114749660D03*
X116911360Y-114749660D03*
X123088640Y-114249280D03*
X116911360Y-114249280D03*
X123088640Y-113748900D03*
X116911360Y-113748900D03*
X123088640Y-113248520D03*
X116911360Y-113248520D03*
X123088640Y-112748140D03*
X116911360Y-112748140D03*
X123088640Y-112247760D03*
X116911360Y-112247760D03*
X123088640Y-111749920D03*
X116911360Y-111749920D03*
X123088640Y-111249540D03*
X116911360Y-111249540D03*
X123088640Y-110749160D03*
X116911360Y-110749160D03*
X123088640Y-110248780D03*
X116911360Y-110248780D03*
X123088640Y-109748400D03*
X116911360Y-109748400D03*
X123088640Y-109248020D03*
X116911360Y-109248020D03*
X123088640Y-108747640D03*
X116911360Y-108747640D03*
X123088640Y-108249800D03*
X116911360Y-108249800D03*
X123088640Y-107749420D03*
X116911360Y-107749420D03*
X123088640Y-107249040D03*
X116911360Y-107249040D03*
X123088640Y-106748660D03*
X116911360Y-106748660D03*
X123088640Y-106248280D03*
X116911360Y-106248280D03*
X123088640Y-100751720D03*
X116911360Y-100751720D03*
X123088640Y-100251340D03*
X116911360Y-100251340D03*
X123088640Y-99750960D03*
X116911360Y-99750960D03*
X123088640Y-99250580D03*
X116911360Y-99250580D03*
X123088640Y-98750200D03*
X116911360Y-98750200D03*
X123088640Y-98252360D03*
X116911360Y-98252360D03*
X123088640Y-97751980D03*
X116911360Y-97751980D03*
X123088640Y-97251600D03*
X116911360Y-97251600D03*
X123088640Y-96751220D03*
X116911360Y-96751220D03*
X123088640Y-96250840D03*
X116911360Y-96250840D03*
X123088640Y-95750460D03*
X116911360Y-95750460D03*
X123088640Y-95250080D03*
X116911360Y-95250080D03*
X123088640Y-94752240D03*
X116911360Y-94752240D03*
X123088640Y-94251860D03*
X116911360Y-94251860D03*
X123088640Y-93751480D03*
X116911360Y-93751480D03*
X123088640Y-93251100D03*
X116911360Y-93251100D03*
X123088640Y-92750720D03*
X116911360Y-92750720D03*
X123088640Y-92250340D03*
X116911360Y-92250340D03*
X123088640Y-91752500D03*
X116911360Y-91752500D03*
X123088640Y-91252120D03*
X116911360Y-91252120D03*
X123088640Y-90751740D03*
X116911360Y-90751740D03*
X123088640Y-90251360D03*
X116911360Y-90251360D03*
X123088640Y-89750980D03*
X116911360Y-89750980D03*
X123088640Y-89250600D03*
X116911360Y-89250600D03*
X123088640Y-88750220D03*
X116911360Y-88750220D03*
X123088640Y-88252380D03*
X116911360Y-88252380D03*
X123088640Y-87752000D03*
X116911360Y-87752000D03*
X123088640Y-87251620D03*
X116911360Y-87251620D03*
X123088640Y-86751240D03*
X116911360Y-86751240D03*
X123088640Y-86250860D03*
X116911360Y-86250860D03*
D12*
X120000000Y-121942940D03*
D13*
X120000000Y-116674980D03*
X120000000Y-110324980D03*
D12*
X120000000Y-105054480D03*
X120000000Y-101945520D03*
D13*
X120000000Y-96675020D03*
X120000000Y-90325020D03*
D12*
X120000000Y-85057060D03*
D14*
X122029460Y-122737960D03*
X122029460Y-84262040D03*
D15*
X97430000Y-98720000D03*
X94890000Y-98720000D03*
X97430000Y-96180000D03*
X94890000Y-96180000D03*
X97430000Y-93640000D03*
X94890000Y-93640000D03*
X97430000Y-91100000D03*
X94890000Y-91100000D03*
X97430000Y-88560000D03*
X94890000Y-88560000D03*
X97430000Y-86020000D03*
X94890000Y-86020000D03*
X97430000Y-83480000D03*
X94890000Y-83480000D03*
X97430000Y-80940000D03*
X94890000Y-80940000D03*
X97430000Y-78400000D03*
X94890000Y-78400000D03*
X97430000Y-75860000D03*
X94890000Y-75860000D03*
X97430000Y-73320000D03*
X94890000Y-73320000D03*
X97430000Y-70780000D03*
D16*
X94890000Y-70780000D03*
X111570000Y-103960000D03*
X99430000Y-103850000D03*
X95820000Y-103840000D03*
X134140000Y-103130000D03*
X110720000Y-76810000D03*
X117550000Y-77240000D03*
X123310000Y-71310000D03*
X130490000Y-103140000D03*
X164270000Y-97720000D03*
X164250000Y-94060000D03*
X164240000Y-90420000D03*
X164250000Y-86780000D03*
X160640000Y-86760000D03*
X164250000Y-79550000D03*
X164250000Y-83150000D03*
X164250000Y-75930000D03*
X110730000Y-70850000D03*
X94000000Y-111450000D03*
X164280000Y-101380000D03*
X94000000Y-120000000D03*
D17*
X92000000Y-69000000D03*
X167000000Y-69000000D03*
X167000000Y-129000000D03*
X92000000Y-129000000D03*
M02*
