M48
INCH,TZ
T1C0.0080
T2C0.0100
T3C0.0276
T4C0.0394
%
G90
G05
T1
X39185Y-36059
X39594Y-35591
X39600Y-30200
X39677Y-32591
X39780Y-31587
X39795Y-36685
X39984Y-33098
X40173Y-38543
X40177Y-34941
X40177Y-39106
X40252Y-38047
X40268Y-37563
X40417Y-32602
X40512Y-35012
X40697Y-36146
X40713Y-28622
X40839Y-35630
X40900Y-30400
X40933Y-32079
X41236Y-35059
X41343Y-40398
X41685Y-38547
X41700Y-31200
X41736Y-36709
X42150Y-46547
X42177Y-34886
X42177Y-47130
X42185Y-45961
X42217Y-45398
X42220Y-43598
X42228Y-44787
X42232Y-39717
X42244Y-31571
X42268Y-32287
X42276Y-44213
X42299Y-43016
X42413Y-37594
X42425Y-38091
X42555Y-36138
X42622Y-33350
X42748Y-35181
X43071Y-36657
X43106Y-38579
X43409Y-32776
X43465Y-36146
X43547Y-33996
X43551Y-33307
X43563Y-39075
X43787Y-34866
X43866Y-31583
X44028Y-36701
X44205Y-37358
X44268Y-34126
X44311Y-29110
X44311Y-38579
X44387Y-37883
X44390Y-32681
X44575Y-33350
X44720Y-38110
X44772Y-34929
X44906Y-36760
X45028Y-47122
X45031Y-46551
X45035Y-45953
X45051Y-44173
X45067Y-45390
X45071Y-43035
X45079Y-44780
X45236Y-38518
X45248Y-36122
X45260Y-35622
X45343Y-37933
X46142Y-31776
X46575Y-42150
X46650Y-34051
X46685Y-35047
X46728Y-37311
X46740Y-39043
X46756Y-37795
X46760Y-36677
X46819Y-35697
X46870Y-38630
X46878Y-38106
X47696Y-36729
X47705Y-30287
X47780Y-38843
X47811Y-34657
X47835Y-37122
X47866Y-37937
X48319Y-29622
X48484Y-31768
X49094Y-36323
X49146Y-33992
X49283Y-35526
X49311Y-36980
X49547Y-37268
X49646Y-35327
X49815Y-33441
X50102Y-48055
X50169Y-35252
X50217Y-31492
X50217Y-46571
X50217Y-47146
X50232Y-43602
X50232Y-44807
X50232Y-45965
X50236Y-43016
X50240Y-44217
X50248Y-45390
X50276Y-37847
X50299Y-42169
X50492Y-32547
X50646Y-34724
X50681Y-35177
X50890Y-39614
X50945Y-38047
X50953Y-38803
X51063Y-33161
X51102Y-48055
X51217Y-46571
X51217Y-47146
X51232Y-43602
X51232Y-44807
X51232Y-45965
X51236Y-43016
X51240Y-44217
X51248Y-45390
X51299Y-42169
X51350Y-29472
X51827Y-38000
X51949Y-33150
X52102Y-48055
X52217Y-46571
X52217Y-47146
X52232Y-43602
X52232Y-44807
X52232Y-45965
X52236Y-43016
X52240Y-44217
X52248Y-45390
X52299Y-42169
X52417Y-30567
X52480Y-37736
X52705Y-38803
X53028Y-37992
X53146Y-35224
X53200Y-48055
X53217Y-46571
X53217Y-47146
X53232Y-43602
X53232Y-44807
X53232Y-45965
X53236Y-43016
X53240Y-44217
X53244Y-29433
X53248Y-45390
X53299Y-42169
X53449Y-33150
X53469Y-39610
X53579Y-38839
X53917Y-37736
X53980Y-37980
X53988Y-35205
X54102Y-48055
X54217Y-46571
X54217Y-47146
X54232Y-43602
X54232Y-44807
X54232Y-45965
X54236Y-43016
X54240Y-44217
X54248Y-45390
X54299Y-42169
X54312Y-38091
X54622Y-37680
X54764Y-35197
X54803Y-30539
X54870Y-38280
X54882Y-33059
X54953Y-38795
X55008Y-39346
X55024Y-34744
X55189Y-36913
X55240Y-37866
X55350Y-39571
X55488Y-38543
X55555Y-37303
X55654Y-35736
X55740Y-35059
X56240Y-29539
X57131Y-42155
X57181Y-39035
X57185Y-38524
X57236Y-38177
X57535Y-30539
X57846Y-34366
X57886Y-34787
X57890Y-35441
X57890Y-35831
X57890Y-36720
X57898Y-33909
X57898Y-37126
X57921Y-38220
X57978Y-42155
X57988Y-37402
X58224Y-33697
X58799Y-29528
X59583Y-36650
X59594Y-37539
X59616Y-36191
X59717Y-38327
X59724Y-44807
X59756Y-35295
X59760Y-46575
X59760Y-47142
X59760Y-48067
X59772Y-45957
X59783Y-45382
X59850Y-36976
X59906Y-30614
X59965Y-43008
X59988Y-43598
X59996Y-44197
X60035Y-35567
X60039Y-42272
X60709Y-44787
X60728Y-42260
X60744Y-46555
X60744Y-47122
X60752Y-43016
X60756Y-44209
X60756Y-45937
X60760Y-43622
X60760Y-48067
X60768Y-45362
X61213Y-37461
X61386Y-35421
X61425Y-34567
X61453Y-36378
X61626Y-33874
X61760Y-48067
X61945Y-29307
X61961Y-40020
X62398Y-32756
X62429Y-48059
X62571Y-31417
X62815Y-44776
X62827Y-45933
X62843Y-43598
X62866Y-47154
X62886Y-44181
X62913Y-46531
X62984Y-37634
X63051Y-35406
X63201Y-36461
T2
X35520Y-28756
X35543Y-36776
X35543Y-37819
X35559Y-38894
X35823Y-29772
X35823Y-30772
X35823Y-31772
X35823Y-32772
X35823Y-33772
X35823Y-34772
X35823Y-35772
X35823Y-39772
X35823Y-40772
X35823Y-41772
X35823Y-42772
X35823Y-43772
X35823Y-44772
X35823Y-45772
X35823Y-46772
X35823Y-47772
X35823Y-48772
X37839Y-51634
X37870Y-26457
X38839Y-51634
X38870Y-26457
X38965Y-42693
X38965Y-43693
X38965Y-44693
X38965Y-45693
X38965Y-46575
X38965Y-47575
X38965Y-48575
X39839Y-51634
X39870Y-26457
X40795Y-42256
X40839Y-51634
X40870Y-26457
X41795Y-42256
X41839Y-51634
X41870Y-26457
X41969Y-47858
X42693Y-47882
X42795Y-42256
X42839Y-51634
X42870Y-26457
X43693Y-47882
X43795Y-42256
X43839Y-51634
X44094Y-26378
X44693Y-47882
X44795Y-42256
X44823Y-26772
X44839Y-51634
X45823Y-26772
X45839Y-51634
X46823Y-26772
X46839Y-51634
X47748Y-42146
X47823Y-26772
X47839Y-51634
X48823Y-26772
X48839Y-51634
X49823Y-26772
X49839Y-51634
X50823Y-26772
X50839Y-51634
X51823Y-26772
X51839Y-51634
X52823Y-26772
X52839Y-51634
X53823Y-26772
X53839Y-51634
X54823Y-26772
X54839Y-51634
X55823Y-26772
X55839Y-51634
X56823Y-26772
X56839Y-51634
X57213Y-35799
X57823Y-26772
X57925Y-51606
X58780Y-51614
X58823Y-26772
X59780Y-51614
X59823Y-26772
X60665Y-26457
X60780Y-51614
X61665Y-26457
X61724Y-42268
X61780Y-51614
X62433Y-42295
X62665Y-26457
X62780Y-51614
X63560Y-27020
X63665Y-26457
X63680Y-28200
X63760Y-28780
X63780Y-51614
X64020Y-50420
X64213Y-42094
X64665Y-26457
X64700Y-49540
X65823Y-41772
X65823Y-42772
X65823Y-43772
X65823Y-44772
X65823Y-45772
X65823Y-46772
X65823Y-47772
X65823Y-48772
X65920Y-28860
X66650Y-29244
X66650Y-30244
X66650Y-31244
X66650Y-32244
X66650Y-33244
X66650Y-34244
X66650Y-35244
X66650Y-36244
X66650Y-37244
X66650Y-38244
X66650Y-39244
X66650Y-40244
X66650Y-41244
T3
X39819Y-41701
X39827Y-48508
X39843Y-42499
X39843Y-42933
X39843Y-43680
X39843Y-44115
X39843Y-44861
X39843Y-45296
X39843Y-46042
X39843Y-46477
X39843Y-47223
X39843Y-47658
X40600Y-43300
X40600Y-45700
X40600Y-46880
X40620Y-44480
X41291Y-47909
X41331Y-41846
X41339Y-43089
X41339Y-43524
X41339Y-44270
X41339Y-44705
X41339Y-45451
X41339Y-45886
X41339Y-46632
X41339Y-47067
X63453Y-42256
X63465Y-43089
X63465Y-43524
X63465Y-44270
X63465Y-44705
X63465Y-45451
X63465Y-45886
X63465Y-46632
X63465Y-47067
X63469Y-47925
X64240Y-43320
X64260Y-44480
X64260Y-45660
X64280Y-46820
X64957Y-41791
X64957Y-48378
X64961Y-42499
X64961Y-42933
X64961Y-43680
X64961Y-44115
X64961Y-44861
X64961Y-45296
X64961Y-46042
X64961Y-46477
X64961Y-47223
X64961Y-47658
T4
X37008Y-43878
X37008Y-47244
X37358Y-27866
X37358Y-28866
X37358Y-29866
X37358Y-30866
X37358Y-31866
X37358Y-32866
X37358Y-33866
X37358Y-34866
X37358Y-35866
X37358Y-36866
X37358Y-37866
X37358Y-38866
X37724Y-40882
X38358Y-27866
X38358Y-28866
X38358Y-29866
X38358Y-30866
X38358Y-31866
X38358Y-32866
X38358Y-33866
X38358Y-34866
X38358Y-35866
X38358Y-36866
X38358Y-37866
X38358Y-38866
X39146Y-40886
X43591Y-30240
X43594Y-27894
X43925Y-40929
X46280Y-30409
X48547Y-28075
X51374Y-40606
X52811Y-40602
X63244Y-34157
X64661Y-35598
X64665Y-29894
X64665Y-31319
X64665Y-32736
X64665Y-34165
X64665Y-37031
X64673Y-38472
X64677Y-39913
T0
M30
