G04 #@! TF.GenerationSoftware,KiCad,Pcbnew,(5.1.10)-1*
G04 #@! TF.CreationDate,2021-09-09T21:29:34+03:00*
G04 #@! TF.ProjectId,Jetson_camera_interposer,4a657473-6f6e-45f6-9361-6d6572615f69,rev?*
G04 #@! TF.SameCoordinates,Original*
G04 #@! TF.FileFunction,Soldermask,Top*
G04 #@! TF.FilePolarity,Negative*
%FSLAX46Y46*%
G04 Gerber Fmt 4.6, Leading zero omitted, Abs format (unit mm)*
G04 Created by KiCad (PCBNEW (5.1.10)-1) date 2021-09-09 21:29:34*
%MOMM*%
%LPD*%
G01*
G04 APERTURE LIST*
%ADD10R,2.268220X0.279400*%
%ADD11R,0.431800X2.540000*%
%ADD12R,0.431800X4.699000*%
%ADD13C,1.016000*%
%ADD14R,1.500000X1.300000*%
%ADD15C,1.524000*%
%ADD16C,1.018540*%
%ADD17C,2.000000*%
G04 APERTURE END LIST*
D10*
X149039880Y-120749140D03*
X143340120Y-120749140D03*
X149039880Y-120248760D03*
X143340120Y-120248760D03*
X149039880Y-119748380D03*
X143340120Y-119748380D03*
X149039880Y-119248000D03*
X143340120Y-119248000D03*
X149039880Y-118747620D03*
X143340120Y-118747620D03*
X149039880Y-118249780D03*
X143340120Y-118249780D03*
X149039880Y-117749400D03*
X143340120Y-117749400D03*
X149039880Y-117249020D03*
X143340120Y-117249020D03*
X149039880Y-116748640D03*
X143340120Y-116748640D03*
X149039880Y-116248260D03*
X143340120Y-116248260D03*
X149039880Y-115747880D03*
X143340120Y-115747880D03*
X149039880Y-115247500D03*
X143340120Y-115247500D03*
X149039880Y-114749660D03*
X143340120Y-114749660D03*
X149039880Y-114249280D03*
X143340120Y-114249280D03*
X149039880Y-113748900D03*
X143340120Y-113748900D03*
X149039880Y-113248520D03*
X143340120Y-113248520D03*
X149039880Y-112748140D03*
X143340120Y-112748140D03*
X149039880Y-112247760D03*
X143340120Y-112247760D03*
X149039880Y-111749920D03*
X143340120Y-111749920D03*
X149039880Y-111249540D03*
X143340120Y-111249540D03*
X149039880Y-110749160D03*
X143340120Y-110749160D03*
X149039880Y-110248780D03*
X143340120Y-110248780D03*
X149039880Y-109748400D03*
X143340120Y-109748400D03*
X149039880Y-109248020D03*
X143340120Y-109248020D03*
X149039880Y-108747640D03*
X143340120Y-108747640D03*
X149039880Y-108249800D03*
X143340120Y-108249800D03*
X149039880Y-107749420D03*
X143340120Y-107749420D03*
X149039880Y-107249040D03*
X143340120Y-107249040D03*
X149039880Y-106748660D03*
X143340120Y-106748660D03*
X149039880Y-106248280D03*
X143340120Y-106248280D03*
X149039880Y-100751720D03*
X143340120Y-100751720D03*
X149039880Y-100251340D03*
X143340120Y-100251340D03*
X149039880Y-99750960D03*
X143340120Y-99750960D03*
X149039880Y-99250580D03*
X143340120Y-99250580D03*
X149039880Y-98750200D03*
X143340120Y-98750200D03*
X149039880Y-98252360D03*
X143340120Y-98252360D03*
X149039880Y-97751980D03*
X143340120Y-97751980D03*
X149039880Y-97251600D03*
X143340120Y-97251600D03*
X149039880Y-96751220D03*
X143340120Y-96751220D03*
X149039880Y-96250840D03*
X143340120Y-96250840D03*
X149039880Y-95750460D03*
X143340120Y-95750460D03*
X149039880Y-95250080D03*
X143340120Y-95250080D03*
X149039880Y-94752240D03*
X143340120Y-94752240D03*
X149039880Y-94251860D03*
X143340120Y-94251860D03*
X149039880Y-93751480D03*
X143340120Y-93751480D03*
X149039880Y-93251100D03*
X143340120Y-93251100D03*
X149039880Y-92750720D03*
X143340120Y-92750720D03*
X149039880Y-92250340D03*
X143340120Y-92250340D03*
X149039880Y-91752500D03*
X143340120Y-91752500D03*
X149039880Y-91252120D03*
X143340120Y-91252120D03*
X149039880Y-90751740D03*
X143340120Y-90751740D03*
X149039880Y-90251360D03*
X143340120Y-90251360D03*
X149039880Y-89750980D03*
X143340120Y-89750980D03*
X149039880Y-89250600D03*
X143340120Y-89250600D03*
X149039880Y-88750220D03*
X143340120Y-88750220D03*
X149039880Y-88252380D03*
X143340120Y-88252380D03*
X149039880Y-87752000D03*
X143340120Y-87752000D03*
X149039880Y-87251620D03*
X143340120Y-87251620D03*
X149039880Y-86751240D03*
X143340120Y-86751240D03*
X149039880Y-86250860D03*
X143340120Y-86250860D03*
D11*
X146190000Y-121549240D03*
D12*
X146190000Y-116697840D03*
X146190000Y-110347840D03*
D11*
X146190000Y-105448180D03*
X146190000Y-101551820D03*
D12*
X146190000Y-96652160D03*
X146190000Y-90302160D03*
D11*
X146190000Y-85450760D03*
D13*
X143523000Y-123566000D03*
X143523000Y-83434000D03*
D14*
X110437816Y-129580906D03*
X113137816Y-129580906D03*
X95030146Y-136250012D03*
X97730146Y-136250012D03*
X95010660Y-126112956D03*
X97710660Y-126112956D03*
X110437816Y-132120906D03*
X113137816Y-132120906D03*
X95030146Y-133710012D03*
X97730146Y-133710012D03*
X95010660Y-123572956D03*
X97710660Y-123572956D03*
X110429800Y-121666000D03*
X107729800Y-121666000D03*
X99534738Y-109639220D03*
X96834738Y-109639220D03*
X110429800Y-119126000D03*
X107729800Y-119126000D03*
X99534738Y-112179220D03*
X96834738Y-112179220D03*
D15*
X110426000Y-126822200D03*
X110400600Y-134899400D03*
X94982800Y-139039600D03*
X94322400Y-131318000D03*
X94234000Y-108026200D03*
X93865200Y-113385600D03*
X94932000Y-120624600D03*
X94551000Y-128651000D03*
X104507800Y-119583200D03*
X105346000Y-123037600D03*
D16*
X122029460Y-122737960D03*
X122029460Y-84262040D03*
D17*
X93205300Y-72923400D03*
X99364800Y-72923400D03*
X105486200Y-72923400D03*
X111810799Y-72923400D03*
X105486200Y-96342198D03*
X105460800Y-107391200D03*
X137287000Y-70764400D03*
X118237000Y-70764400D03*
X105486200Y-90741500D03*
X93205300Y-102108000D03*
X93205300Y-85471000D03*
X93205300Y-96342198D03*
X93205300Y-79501998D03*
X111810799Y-96342198D03*
X93205300Y-90741500D03*
X99364800Y-90741500D03*
X111810799Y-90741500D03*
X111810799Y-102108000D03*
X99364800Y-85471000D03*
X111810799Y-79501998D03*
X111810799Y-85471000D03*
X105486200Y-85471000D03*
X105486200Y-79501998D03*
X99364800Y-79501998D03*
X105486200Y-102108000D03*
X99364800Y-96342198D03*
X99364800Y-102108000D03*
M02*
