G04 #@! TF.GenerationSoftware,KiCad,Pcbnew,(5.1.10)-1*
G04 #@! TF.CreationDate,2021-10-10T14:41:10+03:00*
G04 #@! TF.ProjectId,Jetson_camera_interposer,4a657473-6f6e-45f6-9361-6d6572615f69,rev?*
G04 #@! TF.SameCoordinates,Original*
G04 #@! TF.FileFunction,Legend,Top*
G04 #@! TF.FilePolarity,Positive*
%FSLAX46Y46*%
G04 Gerber Fmt 4.6, Leading zero omitted, Abs format (unit mm)*
G04 Created by KiCad (PCBNEW (5.1.10)-1) date 2021-10-10 14:41:10*
%MOMM*%
%LPD*%
G01*
G04 APERTURE LIST*
%ADD10C,0.150000*%
%ADD11C,0.300000*%
%ADD12C,0.254000*%
%ADD13C,0.120000*%
%ADD14C,0.177800*%
G04 APERTURE END LIST*
D10*
X154715238Y-97777142D02*
X154667619Y-97824761D01*
X154524761Y-97872380D01*
X154429523Y-97872380D01*
X154286666Y-97824761D01*
X154191428Y-97729523D01*
X154143809Y-97634285D01*
X154096190Y-97443809D01*
X154096190Y-97300952D01*
X154143809Y-97110476D01*
X154191428Y-97015238D01*
X154286666Y-96920000D01*
X154429523Y-96872380D01*
X154524761Y-96872380D01*
X154667619Y-96920000D01*
X154715238Y-96967619D01*
X154905714Y-97967619D02*
X155667619Y-97967619D01*
X155858095Y-97586666D02*
X156334285Y-97586666D01*
X155762857Y-97872380D02*
X156096190Y-96872380D01*
X156429523Y-97872380D01*
X157096190Y-97348571D02*
X156762857Y-97348571D01*
X156762857Y-97872380D02*
X156762857Y-96872380D01*
X157239047Y-96872380D01*
X157381904Y-97967619D02*
X158143809Y-97967619D01*
X158381904Y-97872380D02*
X158381904Y-96872380D01*
X158762857Y-96872380D01*
X158858095Y-96920000D01*
X158905714Y-96967619D01*
X158953333Y-97062857D01*
X158953333Y-97205714D01*
X158905714Y-97300952D01*
X158858095Y-97348571D01*
X158762857Y-97396190D01*
X158381904Y-97396190D01*
X159286666Y-96872380D02*
X159524761Y-97872380D01*
X159715238Y-97158095D01*
X159905714Y-97872380D01*
X160143809Y-96872380D01*
X160524761Y-97872380D02*
X160524761Y-96872380D01*
X160762857Y-96872380D01*
X160905714Y-96920000D01*
X161000952Y-97015238D01*
X161048571Y-97110476D01*
X161096190Y-97300952D01*
X161096190Y-97443809D01*
X161048571Y-97634285D01*
X161000952Y-97729523D01*
X160905714Y-97824761D01*
X160762857Y-97872380D01*
X160524761Y-97872380D01*
X161524761Y-97872380D02*
X161524761Y-96872380D01*
X162096190Y-97872380D01*
X162096190Y-96872380D01*
X154429523Y-94277142D02*
X154381904Y-94324761D01*
X154239047Y-94372380D01*
X154143809Y-94372380D01*
X154000952Y-94324761D01*
X153905714Y-94229523D01*
X153858095Y-94134285D01*
X153810476Y-93943809D01*
X153810476Y-93800952D01*
X153858095Y-93610476D01*
X153905714Y-93515238D01*
X154000952Y-93420000D01*
X154143809Y-93372380D01*
X154239047Y-93372380D01*
X154381904Y-93420000D01*
X154429523Y-93467619D01*
X154620000Y-94467619D02*
X155381904Y-94467619D01*
X155953333Y-93848571D02*
X155620000Y-93848571D01*
X155620000Y-94372380D02*
X155620000Y-93372380D01*
X156096190Y-93372380D01*
X156953333Y-94372380D02*
X156477142Y-94372380D01*
X156477142Y-93372380D01*
X157239047Y-94086666D02*
X157715238Y-94086666D01*
X157143809Y-94372380D02*
X157477142Y-93372380D01*
X157810476Y-94372380D01*
X158096190Y-94324761D02*
X158239047Y-94372380D01*
X158477142Y-94372380D01*
X158572380Y-94324761D01*
X158620000Y-94277142D01*
X158667619Y-94181904D01*
X158667619Y-94086666D01*
X158620000Y-93991428D01*
X158572380Y-93943809D01*
X158477142Y-93896190D01*
X158286666Y-93848571D01*
X158191428Y-93800952D01*
X158143809Y-93753333D01*
X158096190Y-93658095D01*
X158096190Y-93562857D01*
X158143809Y-93467619D01*
X158191428Y-93420000D01*
X158286666Y-93372380D01*
X158524761Y-93372380D01*
X158667619Y-93420000D01*
X159096190Y-94372380D02*
X159096190Y-93372380D01*
X159096190Y-93848571D02*
X159667619Y-93848571D01*
X159667619Y-94372380D02*
X159667619Y-93372380D01*
X159905714Y-94467619D02*
X160667619Y-94467619D01*
X160905714Y-93848571D02*
X161239047Y-93848571D01*
X161381904Y-94372380D02*
X160905714Y-94372380D01*
X160905714Y-93372380D01*
X161381904Y-93372380D01*
X161810476Y-94372380D02*
X161810476Y-93372380D01*
X162381904Y-94372380D01*
X162381904Y-93372380D01*
X154303809Y-89902380D02*
X154303809Y-90616666D01*
X154256190Y-90759523D01*
X154160952Y-90854761D01*
X154018095Y-90902380D01*
X153922857Y-90902380D01*
X154780000Y-90378571D02*
X155113333Y-90378571D01*
X155256190Y-90902380D02*
X154780000Y-90902380D01*
X154780000Y-89902380D01*
X155256190Y-89902380D01*
X155541904Y-89902380D02*
X156113333Y-89902380D01*
X155827619Y-90902380D02*
X155827619Y-89902380D01*
X156399047Y-90854761D02*
X156541904Y-90902380D01*
X156780000Y-90902380D01*
X156875238Y-90854761D01*
X156922857Y-90807142D01*
X156970476Y-90711904D01*
X156970476Y-90616666D01*
X156922857Y-90521428D01*
X156875238Y-90473809D01*
X156780000Y-90426190D01*
X156589523Y-90378571D01*
X156494285Y-90330952D01*
X156446666Y-90283333D01*
X156399047Y-90188095D01*
X156399047Y-90092857D01*
X156446666Y-89997619D01*
X156494285Y-89950000D01*
X156589523Y-89902380D01*
X156827619Y-89902380D01*
X156970476Y-89950000D01*
X157589523Y-89902380D02*
X157780000Y-89902380D01*
X157875238Y-89950000D01*
X157970476Y-90045238D01*
X158018095Y-90235714D01*
X158018095Y-90569047D01*
X157970476Y-90759523D01*
X157875238Y-90854761D01*
X157780000Y-90902380D01*
X157589523Y-90902380D01*
X157494285Y-90854761D01*
X157399047Y-90759523D01*
X157351428Y-90569047D01*
X157351428Y-90235714D01*
X157399047Y-90045238D01*
X157494285Y-89950000D01*
X157589523Y-89902380D01*
X158446666Y-90902380D02*
X158446666Y-89902380D01*
X159018095Y-90902380D01*
X159018095Y-89902380D01*
X159256190Y-90997619D02*
X160018095Y-90997619D01*
X160780000Y-90902380D02*
X160208571Y-90902380D01*
X160494285Y-90902380D02*
X160494285Y-89902380D01*
X160399047Y-90045238D01*
X160303809Y-90140476D01*
X160208571Y-90188095D01*
X161065714Y-89902380D02*
X161399047Y-90902380D01*
X161732380Y-89902380D01*
X162018095Y-89997619D02*
X162065714Y-89950000D01*
X162160952Y-89902380D01*
X162399047Y-89902380D01*
X162494285Y-89950000D01*
X162541904Y-89997619D01*
X162589523Y-90092857D01*
X162589523Y-90188095D01*
X162541904Y-90330952D01*
X161970476Y-90902380D01*
X162589523Y-90902380D01*
X163707619Y-85401904D02*
X163707619Y-84601904D01*
X164545714Y-85401904D02*
X164279047Y-85020952D01*
X164088571Y-85401904D02*
X164088571Y-84601904D01*
X164393333Y-84601904D01*
X164469523Y-84640000D01*
X164507619Y-84678095D01*
X164545714Y-84754285D01*
X164545714Y-84868571D01*
X164507619Y-84944761D01*
X164469523Y-84982857D01*
X164393333Y-85020952D01*
X164088571Y-85020952D01*
X164698095Y-85478095D02*
X165307619Y-85478095D01*
X165955238Y-85401904D02*
X165688571Y-85020952D01*
X165498095Y-85401904D02*
X165498095Y-84601904D01*
X165802857Y-84601904D01*
X165879047Y-84640000D01*
X165917142Y-84678095D01*
X165955238Y-84754285D01*
X165955238Y-84868571D01*
X165917142Y-84944761D01*
X165879047Y-84982857D01*
X165802857Y-85020952D01*
X165498095Y-85020952D01*
X166298095Y-84982857D02*
X166564761Y-84982857D01*
X166679047Y-85401904D02*
X166298095Y-85401904D01*
X166298095Y-84601904D01*
X166679047Y-84601904D01*
X166983809Y-85173333D02*
X167364761Y-85173333D01*
X166907619Y-85401904D02*
X167174285Y-84601904D01*
X167440952Y-85401904D01*
X167707619Y-85401904D02*
X167707619Y-84601904D01*
X167898095Y-84601904D01*
X168012380Y-84640000D01*
X168088571Y-84716190D01*
X168126666Y-84792380D01*
X168164761Y-84944761D01*
X168164761Y-85059047D01*
X168126666Y-85211428D01*
X168088571Y-85287619D01*
X168012380Y-85363809D01*
X167898095Y-85401904D01*
X167707619Y-85401904D01*
X168660000Y-85020952D02*
X168660000Y-85401904D01*
X168393333Y-84601904D02*
X168660000Y-85020952D01*
X168926666Y-84601904D01*
X155817619Y-84192380D02*
X156150952Y-85192380D01*
X156484285Y-84192380D01*
X156817619Y-85192380D02*
X156817619Y-84192380D01*
X157055714Y-84192380D01*
X157198571Y-84240000D01*
X157293809Y-84335238D01*
X157341428Y-84430476D01*
X157389047Y-84620952D01*
X157389047Y-84763809D01*
X157341428Y-84954285D01*
X157293809Y-85049523D01*
X157198571Y-85144761D01*
X157055714Y-85192380D01*
X156817619Y-85192380D01*
X157817619Y-85192380D02*
X157817619Y-84192380D01*
X158055714Y-84192380D01*
X158198571Y-84240000D01*
X158293809Y-84335238D01*
X158341428Y-84430476D01*
X158389047Y-84620952D01*
X158389047Y-84763809D01*
X158341428Y-84954285D01*
X158293809Y-85049523D01*
X158198571Y-85144761D01*
X158055714Y-85192380D01*
X157817619Y-85192380D01*
X158579523Y-85287619D02*
X159341428Y-85287619D01*
X159579523Y-85192380D02*
X159579523Y-84192380D01*
X160627142Y-85192380D02*
X160293809Y-84716190D01*
X160055714Y-85192380D02*
X160055714Y-84192380D01*
X160436666Y-84192380D01*
X160531904Y-84240000D01*
X160579523Y-84287619D01*
X160627142Y-84382857D01*
X160627142Y-84525714D01*
X160579523Y-84620952D01*
X160531904Y-84668571D01*
X160436666Y-84716190D01*
X160055714Y-84716190D01*
X154767619Y-83162380D02*
X154767619Y-82162380D01*
X155815238Y-83162380D02*
X155481904Y-82686190D01*
X155243809Y-83162380D02*
X155243809Y-82162380D01*
X155624761Y-82162380D01*
X155720000Y-82210000D01*
X155767619Y-82257619D01*
X155815238Y-82352857D01*
X155815238Y-82495714D01*
X155767619Y-82590952D01*
X155720000Y-82638571D01*
X155624761Y-82686190D01*
X155243809Y-82686190D01*
X156005714Y-83257619D02*
X156767619Y-83257619D01*
X156862857Y-82162380D02*
X157434285Y-82162380D01*
X157148571Y-83162380D02*
X157148571Y-82162380D01*
X158339047Y-83162380D02*
X158005714Y-82686190D01*
X157767619Y-83162380D02*
X157767619Y-82162380D01*
X158148571Y-82162380D01*
X158243809Y-82210000D01*
X158291428Y-82257619D01*
X158339047Y-82352857D01*
X158339047Y-82495714D01*
X158291428Y-82590952D01*
X158243809Y-82638571D01*
X158148571Y-82686190D01*
X157767619Y-82686190D01*
X158767619Y-83162380D02*
X158767619Y-82162380D01*
X159767619Y-82210000D02*
X159672380Y-82162380D01*
X159529523Y-82162380D01*
X159386666Y-82210000D01*
X159291428Y-82305238D01*
X159243809Y-82400476D01*
X159196190Y-82590952D01*
X159196190Y-82733809D01*
X159243809Y-82924285D01*
X159291428Y-83019523D01*
X159386666Y-83114761D01*
X159529523Y-83162380D01*
X159624761Y-83162380D01*
X159767619Y-83114761D01*
X159815238Y-83067142D01*
X159815238Y-82733809D01*
X159624761Y-82733809D01*
X160767619Y-82210000D02*
X160672380Y-82162380D01*
X160529523Y-82162380D01*
X160386666Y-82210000D01*
X160291428Y-82305238D01*
X160243809Y-82400476D01*
X160196190Y-82590952D01*
X160196190Y-82733809D01*
X160243809Y-82924285D01*
X160291428Y-83019523D01*
X160386666Y-83114761D01*
X160529523Y-83162380D01*
X160624761Y-83162380D01*
X160767619Y-83114761D01*
X160815238Y-83067142D01*
X160815238Y-82733809D01*
X160624761Y-82733809D01*
X161243809Y-82638571D02*
X161577142Y-82638571D01*
X161720000Y-83162380D02*
X161243809Y-83162380D01*
X161243809Y-82162380D01*
X161720000Y-82162380D01*
X162720000Y-83162380D02*
X162386666Y-82686190D01*
X162148571Y-83162380D02*
X162148571Y-82162380D01*
X162529523Y-82162380D01*
X162624761Y-82210000D01*
X162672380Y-82257619D01*
X162720000Y-82352857D01*
X162720000Y-82495714D01*
X162672380Y-82590952D01*
X162624761Y-82638571D01*
X162529523Y-82686190D01*
X162148571Y-82686190D01*
X156215714Y-79977142D02*
X156168095Y-80024761D01*
X156025238Y-80072380D01*
X155930000Y-80072380D01*
X155787142Y-80024761D01*
X155691904Y-79929523D01*
X155644285Y-79834285D01*
X155596666Y-79643809D01*
X155596666Y-79500952D01*
X155644285Y-79310476D01*
X155691904Y-79215238D01*
X155787142Y-79120000D01*
X155930000Y-79072380D01*
X156025238Y-79072380D01*
X156168095Y-79120000D01*
X156215714Y-79167619D01*
X156596666Y-79786666D02*
X157072857Y-79786666D01*
X156501428Y-80072380D02*
X156834761Y-79072380D01*
X157168095Y-80072380D01*
X157501428Y-80072380D02*
X157501428Y-79072380D01*
X157834761Y-79786666D01*
X158168095Y-79072380D01*
X158168095Y-80072380D01*
X158406190Y-80167619D02*
X159168095Y-80167619D01*
X159406190Y-80072380D02*
X159406190Y-79072380D01*
X159882380Y-80072380D02*
X159882380Y-79072380D01*
X160453809Y-80072380D01*
X160453809Y-79072380D01*
X160787142Y-79072380D02*
X161358571Y-79072380D01*
X161072857Y-80072380D02*
X161072857Y-79072380D01*
X162263333Y-80072380D02*
X161930000Y-79596190D01*
X161691904Y-80072380D02*
X161691904Y-79072380D01*
X162072857Y-79072380D01*
X162168095Y-79120000D01*
X162215714Y-79167619D01*
X162263333Y-79262857D01*
X162263333Y-79405714D01*
X162215714Y-79500952D01*
X162168095Y-79548571D01*
X162072857Y-79596190D01*
X161691904Y-79596190D01*
X155968571Y-75402380D02*
X156301904Y-76402380D01*
X156635238Y-75402380D01*
X156920952Y-76354761D02*
X157063809Y-76402380D01*
X157301904Y-76402380D01*
X157397142Y-76354761D01*
X157444761Y-76307142D01*
X157492380Y-76211904D01*
X157492380Y-76116666D01*
X157444761Y-76021428D01*
X157397142Y-75973809D01*
X157301904Y-75926190D01*
X157111428Y-75878571D01*
X157016190Y-75830952D01*
X156968571Y-75783333D01*
X156920952Y-75688095D01*
X156920952Y-75592857D01*
X156968571Y-75497619D01*
X157016190Y-75450000D01*
X157111428Y-75402380D01*
X157349523Y-75402380D01*
X157492380Y-75450000D01*
X158111428Y-75926190D02*
X158111428Y-76402380D01*
X157778095Y-75402380D02*
X158111428Y-75926190D01*
X158444761Y-75402380D01*
X158730476Y-76354761D02*
X158873333Y-76402380D01*
X159111428Y-76402380D01*
X159206666Y-76354761D01*
X159254285Y-76307142D01*
X159301904Y-76211904D01*
X159301904Y-76116666D01*
X159254285Y-76021428D01*
X159206666Y-75973809D01*
X159111428Y-75926190D01*
X158920952Y-75878571D01*
X158825714Y-75830952D01*
X158778095Y-75783333D01*
X158730476Y-75688095D01*
X158730476Y-75592857D01*
X158778095Y-75497619D01*
X158825714Y-75450000D01*
X158920952Y-75402380D01*
X159159047Y-75402380D01*
X159301904Y-75450000D01*
X159492380Y-76497619D02*
X160254285Y-76497619D01*
X160492380Y-75878571D02*
X160825714Y-75878571D01*
X160968571Y-76402380D02*
X160492380Y-76402380D01*
X160492380Y-75402380D01*
X160968571Y-75402380D01*
X161397142Y-76402380D02*
X161397142Y-75402380D01*
X161968571Y-76402380D01*
X161968571Y-75402380D01*
X134357142Y-112468571D02*
X134404761Y-112516190D01*
X134452380Y-112659047D01*
X134452380Y-112754285D01*
X134404761Y-112897142D01*
X134309523Y-112992380D01*
X134214285Y-113040000D01*
X134023809Y-113087619D01*
X133880952Y-113087619D01*
X133690476Y-113040000D01*
X133595238Y-112992380D01*
X133500000Y-112897142D01*
X133452380Y-112754285D01*
X133452380Y-112659047D01*
X133500000Y-112516190D01*
X133547619Y-112468571D01*
X134166666Y-112087619D02*
X134166666Y-111611428D01*
X134452380Y-112182857D02*
X133452380Y-111849523D01*
X134452380Y-111516190D01*
X134452380Y-111182857D02*
X133452380Y-111182857D01*
X134166666Y-110849523D01*
X133452380Y-110516190D01*
X134452380Y-110516190D01*
X134547619Y-110278095D02*
X134547619Y-109516190D01*
X133452380Y-109420952D02*
X134452380Y-109087619D01*
X133452380Y-108754285D01*
X134404761Y-108468571D02*
X134452380Y-108325714D01*
X134452380Y-108087619D01*
X134404761Y-107992380D01*
X134357142Y-107944761D01*
X134261904Y-107897142D01*
X134166666Y-107897142D01*
X134071428Y-107944761D01*
X134023809Y-107992380D01*
X133976190Y-108087619D01*
X133928571Y-108278095D01*
X133880952Y-108373333D01*
X133833333Y-108420952D01*
X133738095Y-108468571D01*
X133642857Y-108468571D01*
X133547619Y-108420952D01*
X133500000Y-108373333D01*
X133452380Y-108278095D01*
X133452380Y-108040000D01*
X133500000Y-107897142D01*
X133976190Y-107278095D02*
X134452380Y-107278095D01*
X133452380Y-107611428D02*
X133976190Y-107278095D01*
X133452380Y-106944761D01*
X134452380Y-106611428D02*
X133452380Y-106611428D01*
X134452380Y-106040000D01*
X133452380Y-106040000D01*
X134357142Y-104992380D02*
X134404761Y-105040000D01*
X134452380Y-105182857D01*
X134452380Y-105278095D01*
X134404761Y-105420952D01*
X134309523Y-105516190D01*
X134214285Y-105563809D01*
X134023809Y-105611428D01*
X133880952Y-105611428D01*
X133690476Y-105563809D01*
X133595238Y-105516190D01*
X133500000Y-105420952D01*
X133452380Y-105278095D01*
X133452380Y-105182857D01*
X133500000Y-105040000D01*
X133547619Y-104992380D01*
X127362380Y-110861904D02*
X128362380Y-110528571D01*
X127362380Y-110195238D01*
X128362380Y-109861904D02*
X127362380Y-109861904D01*
X127362380Y-109623809D01*
X127410000Y-109480952D01*
X127505238Y-109385714D01*
X127600476Y-109338095D01*
X127790952Y-109290476D01*
X127933809Y-109290476D01*
X128124285Y-109338095D01*
X128219523Y-109385714D01*
X128314761Y-109480952D01*
X128362380Y-109623809D01*
X128362380Y-109861904D01*
X128362380Y-108861904D02*
X127362380Y-108861904D01*
X127362380Y-108623809D01*
X127410000Y-108480952D01*
X127505238Y-108385714D01*
X127600476Y-108338095D01*
X127790952Y-108290476D01*
X127933809Y-108290476D01*
X128124285Y-108338095D01*
X128219523Y-108385714D01*
X128314761Y-108480952D01*
X128362380Y-108623809D01*
X128362380Y-108861904D01*
X128457619Y-108100000D02*
X128457619Y-107338095D01*
X128267142Y-106528571D02*
X128314761Y-106576190D01*
X128362380Y-106719047D01*
X128362380Y-106814285D01*
X128314761Y-106957142D01*
X128219523Y-107052380D01*
X128124285Y-107100000D01*
X127933809Y-107147619D01*
X127790952Y-107147619D01*
X127600476Y-107100000D01*
X127505238Y-107052380D01*
X127410000Y-106957142D01*
X127362380Y-106814285D01*
X127362380Y-106719047D01*
X127410000Y-106576190D01*
X127457619Y-106528571D01*
X128076666Y-106147619D02*
X128076666Y-105671428D01*
X128362380Y-106242857D02*
X127362380Y-105909523D01*
X128362380Y-105576190D01*
X128362380Y-105242857D02*
X127362380Y-105242857D01*
X128076666Y-104909523D01*
X127362380Y-104576190D01*
X128362380Y-104576190D01*
X128457619Y-104338095D02*
X128457619Y-103576190D01*
X127838571Y-103004761D02*
X127838571Y-103338095D01*
X128362380Y-103338095D02*
X127362380Y-103338095D01*
X127362380Y-102861904D01*
X128457619Y-101814285D02*
X128410000Y-101909523D01*
X128314761Y-102004761D01*
X128171904Y-102147619D01*
X128124285Y-102242857D01*
X128124285Y-102338095D01*
X128362380Y-102290476D02*
X128314761Y-102385714D01*
X128219523Y-102480952D01*
X128029047Y-102528571D01*
X127695714Y-102528571D01*
X127505238Y-102480952D01*
X127410000Y-102385714D01*
X127362380Y-102290476D01*
X127362380Y-102100000D01*
X127410000Y-102004761D01*
X127505238Y-101909523D01*
X127695714Y-101861904D01*
X128029047Y-101861904D01*
X128219523Y-101909523D01*
X128314761Y-102004761D01*
X128362380Y-102100000D01*
X128362380Y-102290476D01*
X128457619Y-101671428D02*
X128457619Y-100909523D01*
X128362380Y-100671428D02*
X127362380Y-100671428D01*
X127838571Y-100671428D02*
X127838571Y-100100000D01*
X128362380Y-100100000D02*
X127362380Y-100100000D01*
X127362380Y-99766666D02*
X128362380Y-99433333D01*
X127362380Y-99100000D01*
X128457619Y-99004761D02*
X128457619Y-98242857D01*
X128267142Y-97433333D02*
X128314761Y-97480952D01*
X128362380Y-97623809D01*
X128362380Y-97719047D01*
X128314761Y-97861904D01*
X128219523Y-97957142D01*
X128124285Y-98004761D01*
X127933809Y-98052380D01*
X127790952Y-98052380D01*
X127600476Y-98004761D01*
X127505238Y-97957142D01*
X127410000Y-97861904D01*
X127362380Y-97719047D01*
X127362380Y-97623809D01*
X127410000Y-97480952D01*
X127457619Y-97433333D01*
X128076666Y-97052380D02*
X128076666Y-96576190D01*
X128362380Y-97147619D02*
X127362380Y-96814285D01*
X128362380Y-96480952D01*
X128362380Y-96147619D02*
X127362380Y-96147619D01*
X128076666Y-95814285D01*
X127362380Y-95480952D01*
X128362380Y-95480952D01*
X109267619Y-78842380D02*
X109267619Y-79556666D01*
X109220000Y-79699523D01*
X109124761Y-79794761D01*
X108981904Y-79842380D01*
X108886666Y-79842380D01*
X109743809Y-79318571D02*
X110077142Y-79318571D01*
X110220000Y-79842380D02*
X109743809Y-79842380D01*
X109743809Y-78842380D01*
X110220000Y-78842380D01*
X110505714Y-78842380D02*
X111077142Y-78842380D01*
X110791428Y-79842380D02*
X110791428Y-78842380D01*
X111172380Y-79937619D02*
X111934285Y-79937619D01*
X112696190Y-79842380D02*
X112124761Y-79842380D01*
X112410476Y-79842380D02*
X112410476Y-78842380D01*
X112315238Y-78985238D01*
X112220000Y-79080476D01*
X112124761Y-79128095D01*
X112981904Y-78842380D02*
X113315238Y-79842380D01*
X113648571Y-78842380D01*
X113886666Y-78842380D02*
X114505714Y-78842380D01*
X114172380Y-79223333D01*
X114315238Y-79223333D01*
X114410476Y-79270952D01*
X114458095Y-79318571D01*
X114505714Y-79413809D01*
X114505714Y-79651904D01*
X114458095Y-79747142D01*
X114410476Y-79794761D01*
X114315238Y-79842380D01*
X114029523Y-79842380D01*
X113934285Y-79794761D01*
X113886666Y-79747142D01*
X119994761Y-76532380D02*
X120328095Y-77532380D01*
X120661428Y-76532380D01*
X120994761Y-77532380D02*
X120994761Y-76532380D01*
X121232857Y-76532380D01*
X121375714Y-76580000D01*
X121470952Y-76675238D01*
X121518571Y-76770476D01*
X121566190Y-76960952D01*
X121566190Y-77103809D01*
X121518571Y-77294285D01*
X121470952Y-77389523D01*
X121375714Y-77484761D01*
X121232857Y-77532380D01*
X120994761Y-77532380D01*
X121994761Y-77532380D02*
X121994761Y-76532380D01*
X122232857Y-76532380D01*
X122375714Y-76580000D01*
X122470952Y-76675238D01*
X122518571Y-76770476D01*
X122566190Y-76960952D01*
X122566190Y-77103809D01*
X122518571Y-77294285D01*
X122470952Y-77389523D01*
X122375714Y-77484761D01*
X122232857Y-77532380D01*
X121994761Y-77532380D01*
X122756666Y-77627619D02*
X123518571Y-77627619D01*
X123661428Y-76532380D02*
X124280476Y-76532380D01*
X123947142Y-76913333D01*
X124090000Y-76913333D01*
X124185238Y-76960952D01*
X124232857Y-77008571D01*
X124280476Y-77103809D01*
X124280476Y-77341904D01*
X124232857Y-77437142D01*
X124185238Y-77484761D01*
X124090000Y-77532380D01*
X123804285Y-77532380D01*
X123709047Y-77484761D01*
X123661428Y-77437142D01*
X124566190Y-76532380D02*
X124899523Y-77532380D01*
X125232857Y-76532380D01*
X125470952Y-76532380D02*
X126090000Y-76532380D01*
X125756666Y-76913333D01*
X125899523Y-76913333D01*
X125994761Y-76960952D01*
X126042380Y-77008571D01*
X126090000Y-77103809D01*
X126090000Y-77341904D01*
X126042380Y-77437142D01*
X125994761Y-77484761D01*
X125899523Y-77532380D01*
X125613809Y-77532380D01*
X125518571Y-77484761D01*
X125470952Y-77437142D01*
X125374761Y-70942380D02*
X125708095Y-71942380D01*
X126041428Y-70942380D01*
X126374761Y-71942380D02*
X126374761Y-70942380D01*
X126612857Y-70942380D01*
X126755714Y-70990000D01*
X126850952Y-71085238D01*
X126898571Y-71180476D01*
X126946190Y-71370952D01*
X126946190Y-71513809D01*
X126898571Y-71704285D01*
X126850952Y-71799523D01*
X126755714Y-71894761D01*
X126612857Y-71942380D01*
X126374761Y-71942380D01*
X127374761Y-71942380D02*
X127374761Y-70942380D01*
X127612857Y-70942380D01*
X127755714Y-70990000D01*
X127850952Y-71085238D01*
X127898571Y-71180476D01*
X127946190Y-71370952D01*
X127946190Y-71513809D01*
X127898571Y-71704285D01*
X127850952Y-71799523D01*
X127755714Y-71894761D01*
X127612857Y-71942380D01*
X127374761Y-71942380D01*
X128136666Y-72037619D02*
X128898571Y-72037619D01*
X129089047Y-71894761D02*
X129231904Y-71942380D01*
X129470000Y-71942380D01*
X129565238Y-71894761D01*
X129612857Y-71847142D01*
X129660476Y-71751904D01*
X129660476Y-71656666D01*
X129612857Y-71561428D01*
X129565238Y-71513809D01*
X129470000Y-71466190D01*
X129279523Y-71418571D01*
X129184285Y-71370952D01*
X129136666Y-71323333D01*
X129089047Y-71228095D01*
X129089047Y-71132857D01*
X129136666Y-71037619D01*
X129184285Y-70990000D01*
X129279523Y-70942380D01*
X129517619Y-70942380D01*
X129660476Y-70990000D01*
X130279523Y-71466190D02*
X130279523Y-71942380D01*
X129946190Y-70942380D02*
X130279523Y-71466190D01*
X130612857Y-70942380D01*
X130898571Y-71894761D02*
X131041428Y-71942380D01*
X131279523Y-71942380D01*
X131374761Y-71894761D01*
X131422380Y-71847142D01*
X131470000Y-71751904D01*
X131470000Y-71656666D01*
X131422380Y-71561428D01*
X131374761Y-71513809D01*
X131279523Y-71466190D01*
X131089047Y-71418571D01*
X130993809Y-71370952D01*
X130946190Y-71323333D01*
X130898571Y-71228095D01*
X130898571Y-71132857D01*
X130946190Y-71037619D01*
X130993809Y-70990000D01*
X131089047Y-70942380D01*
X131327142Y-70942380D01*
X131470000Y-70990000D01*
X106009523Y-104612380D02*
X106009523Y-103612380D01*
X106247619Y-103612380D01*
X106390476Y-103660000D01*
X106485714Y-103755238D01*
X106533333Y-103850476D01*
X106580952Y-104040952D01*
X106580952Y-104183809D01*
X106533333Y-104374285D01*
X106485714Y-104469523D01*
X106390476Y-104564761D01*
X106247619Y-104612380D01*
X106009523Y-104612380D01*
X106866666Y-103612380D02*
X107200000Y-104612380D01*
X107533333Y-103612380D01*
X107866666Y-104612380D02*
X107866666Y-103612380D01*
X108104761Y-103612380D01*
X108247619Y-103660000D01*
X108342857Y-103755238D01*
X108390476Y-103850476D01*
X108438095Y-104040952D01*
X108438095Y-104183809D01*
X108390476Y-104374285D01*
X108342857Y-104469523D01*
X108247619Y-104564761D01*
X108104761Y-104612380D01*
X107866666Y-104612380D01*
X108866666Y-104612380D02*
X108866666Y-103612380D01*
X109104761Y-103612380D01*
X109247619Y-103660000D01*
X109342857Y-103755238D01*
X109390476Y-103850476D01*
X109438095Y-104040952D01*
X109438095Y-104183809D01*
X109390476Y-104374285D01*
X109342857Y-104469523D01*
X109247619Y-104564761D01*
X109104761Y-104612380D01*
X108866666Y-104612380D01*
X92648571Y-105962380D02*
X92981904Y-106962380D01*
X93315238Y-105962380D01*
X93648571Y-106962380D02*
X93648571Y-105962380D01*
X93886666Y-105962380D01*
X94029523Y-106010000D01*
X94124761Y-106105238D01*
X94172380Y-106200476D01*
X94220000Y-106390952D01*
X94220000Y-106533809D01*
X94172380Y-106724285D01*
X94124761Y-106819523D01*
X94029523Y-106914761D01*
X93886666Y-106962380D01*
X93648571Y-106962380D01*
X94648571Y-106962380D02*
X94648571Y-105962380D01*
X94886666Y-105962380D01*
X95029523Y-106010000D01*
X95124761Y-106105238D01*
X95172380Y-106200476D01*
X95220000Y-106390952D01*
X95220000Y-106533809D01*
X95172380Y-106724285D01*
X95124761Y-106819523D01*
X95029523Y-106914761D01*
X94886666Y-106962380D01*
X94648571Y-106962380D01*
X95410476Y-107057619D02*
X96172380Y-107057619D01*
X96362857Y-106676666D02*
X96839047Y-106676666D01*
X96267619Y-106962380D02*
X96600952Y-105962380D01*
X96934285Y-106962380D01*
X97600952Y-106438571D02*
X97267619Y-106438571D01*
X97267619Y-106962380D02*
X97267619Y-105962380D01*
X97743809Y-105962380D01*
X101193333Y-102796666D02*
X101669523Y-102796666D01*
X101098095Y-103082380D02*
X101431428Y-102082380D01*
X101764761Y-103082380D01*
X101955238Y-102082380D02*
X102288571Y-103082380D01*
X102621904Y-102082380D01*
X102955238Y-103082380D02*
X102955238Y-102082380D01*
X103193333Y-102082380D01*
X103336190Y-102130000D01*
X103431428Y-102225238D01*
X103479047Y-102320476D01*
X103526666Y-102510952D01*
X103526666Y-102653809D01*
X103479047Y-102844285D01*
X103431428Y-102939523D01*
X103336190Y-103034761D01*
X103193333Y-103082380D01*
X102955238Y-103082380D01*
X103955238Y-103082380D02*
X103955238Y-102082380D01*
X104193333Y-102082380D01*
X104336190Y-102130000D01*
X104431428Y-102225238D01*
X104479047Y-102320476D01*
X104526666Y-102510952D01*
X104526666Y-102653809D01*
X104479047Y-102844285D01*
X104431428Y-102939523D01*
X104336190Y-103034761D01*
X104193333Y-103082380D01*
X103955238Y-103082380D01*
X99497142Y-99258380D02*
X99497142Y-98258380D01*
X99925714Y-98353619D02*
X99973333Y-98306000D01*
X100068571Y-98258380D01*
X100306666Y-98258380D01*
X100401904Y-98306000D01*
X100449523Y-98353619D01*
X100497142Y-98448857D01*
X100497142Y-98544095D01*
X100449523Y-98686952D01*
X99878095Y-99258380D01*
X100497142Y-99258380D01*
X101497142Y-99163142D02*
X101449523Y-99210761D01*
X101306666Y-99258380D01*
X101211428Y-99258380D01*
X101068571Y-99210761D01*
X100973333Y-99115523D01*
X100925714Y-99020285D01*
X100878095Y-98829809D01*
X100878095Y-98686952D01*
X100925714Y-98496476D01*
X100973333Y-98401238D01*
X101068571Y-98306000D01*
X101211428Y-98258380D01*
X101306666Y-98258380D01*
X101449523Y-98306000D01*
X101497142Y-98353619D01*
X101687619Y-99353619D02*
X102449523Y-99353619D01*
X103259047Y-99163142D02*
X103211428Y-99210761D01*
X103068571Y-99258380D01*
X102973333Y-99258380D01*
X102830476Y-99210761D01*
X102735238Y-99115523D01*
X102687619Y-99020285D01*
X102640000Y-98829809D01*
X102640000Y-98686952D01*
X102687619Y-98496476D01*
X102735238Y-98401238D01*
X102830476Y-98306000D01*
X102973333Y-98258380D01*
X103068571Y-98258380D01*
X103211428Y-98306000D01*
X103259047Y-98353619D01*
X103640000Y-98972666D02*
X104116190Y-98972666D01*
X103544761Y-99258380D02*
X103878095Y-98258380D01*
X104211428Y-99258380D01*
X104544761Y-99258380D02*
X104544761Y-98258380D01*
X104878095Y-98972666D01*
X105211428Y-98258380D01*
X105211428Y-99258380D01*
X105449523Y-99353619D02*
X106211428Y-99353619D01*
X107020952Y-99163142D02*
X106973333Y-99210761D01*
X106830476Y-99258380D01*
X106735238Y-99258380D01*
X106592380Y-99210761D01*
X106497142Y-99115523D01*
X106449523Y-99020285D01*
X106401904Y-98829809D01*
X106401904Y-98686952D01*
X106449523Y-98496476D01*
X106497142Y-98401238D01*
X106592380Y-98306000D01*
X106735238Y-98258380D01*
X106830476Y-98258380D01*
X106973333Y-98306000D01*
X107020952Y-98353619D01*
X107925714Y-99258380D02*
X107449523Y-99258380D01*
X107449523Y-98258380D01*
X108259047Y-99258380D02*
X108259047Y-98258380D01*
X108830476Y-99258380D02*
X108401904Y-98686952D01*
X108830476Y-98258380D02*
X108259047Y-98829809D01*
X99592380Y-96464380D02*
X99592380Y-95464380D01*
X100020952Y-95559619D02*
X100068571Y-95512000D01*
X100163809Y-95464380D01*
X100401904Y-95464380D01*
X100497142Y-95512000D01*
X100544761Y-95559619D01*
X100592380Y-95654857D01*
X100592380Y-95750095D01*
X100544761Y-95892952D01*
X99973333Y-96464380D01*
X100592380Y-96464380D01*
X101592380Y-96369142D02*
X101544761Y-96416761D01*
X101401904Y-96464380D01*
X101306666Y-96464380D01*
X101163809Y-96416761D01*
X101068571Y-96321523D01*
X101020952Y-96226285D01*
X100973333Y-96035809D01*
X100973333Y-95892952D01*
X101020952Y-95702476D01*
X101068571Y-95607238D01*
X101163809Y-95512000D01*
X101306666Y-95464380D01*
X101401904Y-95464380D01*
X101544761Y-95512000D01*
X101592380Y-95559619D01*
X101782857Y-96559619D02*
X102544761Y-96559619D01*
X103354285Y-96369142D02*
X103306666Y-96416761D01*
X103163809Y-96464380D01*
X103068571Y-96464380D01*
X102925714Y-96416761D01*
X102830476Y-96321523D01*
X102782857Y-96226285D01*
X102735238Y-96035809D01*
X102735238Y-95892952D01*
X102782857Y-95702476D01*
X102830476Y-95607238D01*
X102925714Y-95512000D01*
X103068571Y-95464380D01*
X103163809Y-95464380D01*
X103306666Y-95512000D01*
X103354285Y-95559619D01*
X103735238Y-96178666D02*
X104211428Y-96178666D01*
X103640000Y-96464380D02*
X103973333Y-95464380D01*
X104306666Y-96464380D01*
X104640000Y-96464380D02*
X104640000Y-95464380D01*
X104973333Y-96178666D01*
X105306666Y-95464380D01*
X105306666Y-96464380D01*
X105544761Y-96559619D02*
X106306666Y-96559619D01*
X106544761Y-96464380D02*
X106544761Y-95464380D01*
X106782857Y-95464380D01*
X106925714Y-95512000D01*
X107020952Y-95607238D01*
X107068571Y-95702476D01*
X107116190Y-95892952D01*
X107116190Y-96035809D01*
X107068571Y-96226285D01*
X107020952Y-96321523D01*
X106925714Y-96416761D01*
X106782857Y-96464380D01*
X106544761Y-96464380D01*
X107497142Y-96178666D02*
X107973333Y-96178666D01*
X107401904Y-96464380D02*
X107735238Y-95464380D01*
X108068571Y-96464380D01*
X108259047Y-95464380D02*
X108830476Y-95464380D01*
X108544761Y-96464380D02*
X108544761Y-95464380D01*
X100124190Y-94083142D02*
X100076571Y-94130761D01*
X99933714Y-94178380D01*
X99838476Y-94178380D01*
X99695619Y-94130761D01*
X99600380Y-94035523D01*
X99552761Y-93940285D01*
X99505142Y-93749809D01*
X99505142Y-93606952D01*
X99552761Y-93416476D01*
X99600380Y-93321238D01*
X99695619Y-93226000D01*
X99838476Y-93178380D01*
X99933714Y-93178380D01*
X100076571Y-93226000D01*
X100124190Y-93273619D01*
X100505142Y-93892666D02*
X100981333Y-93892666D01*
X100409904Y-94178380D02*
X100743238Y-93178380D01*
X101076571Y-94178380D01*
X101409904Y-94178380D02*
X101409904Y-93178380D01*
X101743238Y-93892666D01*
X102076571Y-93178380D01*
X102076571Y-94178380D01*
X102314666Y-94273619D02*
X103076571Y-94273619D01*
X103314666Y-94178380D02*
X103314666Y-93178380D01*
X103743238Y-93273619D02*
X103790857Y-93226000D01*
X103886095Y-93178380D01*
X104124190Y-93178380D01*
X104219428Y-93226000D01*
X104267047Y-93273619D01*
X104314666Y-93368857D01*
X104314666Y-93464095D01*
X104267047Y-93606952D01*
X103695619Y-94178380D01*
X104314666Y-94178380D01*
X105314666Y-94083142D02*
X105267047Y-94130761D01*
X105124190Y-94178380D01*
X105028952Y-94178380D01*
X104886095Y-94130761D01*
X104790857Y-94035523D01*
X104743238Y-93940285D01*
X104695619Y-93749809D01*
X104695619Y-93606952D01*
X104743238Y-93416476D01*
X104790857Y-93321238D01*
X104886095Y-93226000D01*
X105028952Y-93178380D01*
X105124190Y-93178380D01*
X105267047Y-93226000D01*
X105314666Y-93273619D01*
X105695619Y-93273619D02*
X105743238Y-93226000D01*
X105838476Y-93178380D01*
X106076571Y-93178380D01*
X106171809Y-93226000D01*
X106219428Y-93273619D01*
X106267047Y-93368857D01*
X106267047Y-93464095D01*
X106219428Y-93606952D01*
X105648000Y-94178380D01*
X106267047Y-94178380D01*
X106457523Y-94273619D02*
X107219428Y-94273619D01*
X107409904Y-94130761D02*
X107552761Y-94178380D01*
X107790857Y-94178380D01*
X107886095Y-94130761D01*
X107933714Y-94083142D01*
X107981333Y-93987904D01*
X107981333Y-93892666D01*
X107933714Y-93797428D01*
X107886095Y-93749809D01*
X107790857Y-93702190D01*
X107600380Y-93654571D01*
X107505142Y-93606952D01*
X107457523Y-93559333D01*
X107409904Y-93464095D01*
X107409904Y-93368857D01*
X107457523Y-93273619D01*
X107505142Y-93226000D01*
X107600380Y-93178380D01*
X107838476Y-93178380D01*
X107981333Y-93226000D01*
X108981333Y-94083142D02*
X108933714Y-94130761D01*
X108790857Y-94178380D01*
X108695619Y-94178380D01*
X108552761Y-94130761D01*
X108457523Y-94035523D01*
X108409904Y-93940285D01*
X108362285Y-93749809D01*
X108362285Y-93606952D01*
X108409904Y-93416476D01*
X108457523Y-93321238D01*
X108552761Y-93226000D01*
X108695619Y-93178380D01*
X108790857Y-93178380D01*
X108933714Y-93226000D01*
X108981333Y-93273619D01*
X109886095Y-94178380D02*
X109409904Y-94178380D01*
X109409904Y-93178380D01*
X100100380Y-91289142D02*
X100052761Y-91336761D01*
X99909904Y-91384380D01*
X99814666Y-91384380D01*
X99671809Y-91336761D01*
X99576571Y-91241523D01*
X99528952Y-91146285D01*
X99481333Y-90955809D01*
X99481333Y-90812952D01*
X99528952Y-90622476D01*
X99576571Y-90527238D01*
X99671809Y-90432000D01*
X99814666Y-90384380D01*
X99909904Y-90384380D01*
X100052761Y-90432000D01*
X100100380Y-90479619D01*
X100481333Y-91098666D02*
X100957523Y-91098666D01*
X100386095Y-91384380D02*
X100719428Y-90384380D01*
X101052761Y-91384380D01*
X101386095Y-91384380D02*
X101386095Y-90384380D01*
X101719428Y-91098666D01*
X102052761Y-90384380D01*
X102052761Y-91384380D01*
X102290857Y-91479619D02*
X103052761Y-91479619D01*
X103290857Y-91384380D02*
X103290857Y-90384380D01*
X103719428Y-90479619D02*
X103767047Y-90432000D01*
X103862285Y-90384380D01*
X104100380Y-90384380D01*
X104195619Y-90432000D01*
X104243238Y-90479619D01*
X104290857Y-90574857D01*
X104290857Y-90670095D01*
X104243238Y-90812952D01*
X103671809Y-91384380D01*
X104290857Y-91384380D01*
X105290857Y-91289142D02*
X105243238Y-91336761D01*
X105100380Y-91384380D01*
X105005142Y-91384380D01*
X104862285Y-91336761D01*
X104767047Y-91241523D01*
X104719428Y-91146285D01*
X104671809Y-90955809D01*
X104671809Y-90812952D01*
X104719428Y-90622476D01*
X104767047Y-90527238D01*
X104862285Y-90432000D01*
X105005142Y-90384380D01*
X105100380Y-90384380D01*
X105243238Y-90432000D01*
X105290857Y-90479619D01*
X105671809Y-90479619D02*
X105719428Y-90432000D01*
X105814666Y-90384380D01*
X106052761Y-90384380D01*
X106148000Y-90432000D01*
X106195619Y-90479619D01*
X106243238Y-90574857D01*
X106243238Y-90670095D01*
X106195619Y-90812952D01*
X105624190Y-91384380D01*
X106243238Y-91384380D01*
X106433714Y-91479619D02*
X107195619Y-91479619D01*
X107386095Y-91336761D02*
X107528952Y-91384380D01*
X107767047Y-91384380D01*
X107862285Y-91336761D01*
X107909904Y-91289142D01*
X107957523Y-91193904D01*
X107957523Y-91098666D01*
X107909904Y-91003428D01*
X107862285Y-90955809D01*
X107767047Y-90908190D01*
X107576571Y-90860571D01*
X107481333Y-90812952D01*
X107433714Y-90765333D01*
X107386095Y-90670095D01*
X107386095Y-90574857D01*
X107433714Y-90479619D01*
X107481333Y-90432000D01*
X107576571Y-90384380D01*
X107814666Y-90384380D01*
X107957523Y-90432000D01*
X108386095Y-91384380D02*
X108386095Y-90384380D01*
X108624190Y-90384380D01*
X108767047Y-90432000D01*
X108862285Y-90527238D01*
X108909904Y-90622476D01*
X108957523Y-90812952D01*
X108957523Y-90955809D01*
X108909904Y-91146285D01*
X108862285Y-91241523D01*
X108767047Y-91336761D01*
X108624190Y-91384380D01*
X108386095Y-91384380D01*
X109338476Y-91098666D02*
X109814666Y-91098666D01*
X109243238Y-91384380D02*
X109576571Y-90384380D01*
X109909904Y-91384380D01*
X99537047Y-89098380D02*
X99537047Y-88098380D01*
X99965619Y-88193619D02*
X100013238Y-88146000D01*
X100108476Y-88098380D01*
X100346571Y-88098380D01*
X100441809Y-88146000D01*
X100489428Y-88193619D01*
X100537047Y-88288857D01*
X100537047Y-88384095D01*
X100489428Y-88526952D01*
X99918000Y-89098380D01*
X100537047Y-89098380D01*
X101537047Y-89003142D02*
X101489428Y-89050761D01*
X101346571Y-89098380D01*
X101251333Y-89098380D01*
X101108476Y-89050761D01*
X101013238Y-88955523D01*
X100965619Y-88860285D01*
X100918000Y-88669809D01*
X100918000Y-88526952D01*
X100965619Y-88336476D01*
X101013238Y-88241238D01*
X101108476Y-88146000D01*
X101251333Y-88098380D01*
X101346571Y-88098380D01*
X101489428Y-88146000D01*
X101537047Y-88193619D01*
X101727523Y-89193619D02*
X102489428Y-89193619D01*
X103251333Y-88146000D02*
X103156095Y-88098380D01*
X103013238Y-88098380D01*
X102870380Y-88146000D01*
X102775142Y-88241238D01*
X102727523Y-88336476D01*
X102679904Y-88526952D01*
X102679904Y-88669809D01*
X102727523Y-88860285D01*
X102775142Y-88955523D01*
X102870380Y-89050761D01*
X103013238Y-89098380D01*
X103108476Y-89098380D01*
X103251333Y-89050761D01*
X103298952Y-89003142D01*
X103298952Y-88669809D01*
X103108476Y-88669809D01*
X103727523Y-89098380D02*
X103727523Y-88098380D01*
X104108476Y-88098380D01*
X104203714Y-88146000D01*
X104251333Y-88193619D01*
X104298952Y-88288857D01*
X104298952Y-88431714D01*
X104251333Y-88526952D01*
X104203714Y-88574571D01*
X104108476Y-88622190D01*
X103727523Y-88622190D01*
X104918000Y-88098380D02*
X105013238Y-88098380D01*
X105108476Y-88146000D01*
X105156095Y-88193619D01*
X105203714Y-88288857D01*
X105251333Y-88479333D01*
X105251333Y-88717428D01*
X105203714Y-88907904D01*
X105156095Y-89003142D01*
X105108476Y-89050761D01*
X105013238Y-89098380D01*
X104918000Y-89098380D01*
X104822761Y-89050761D01*
X104775142Y-89003142D01*
X104727523Y-88907904D01*
X104679904Y-88717428D01*
X104679904Y-88479333D01*
X104727523Y-88288857D01*
X104775142Y-88193619D01*
X104822761Y-88146000D01*
X104918000Y-88098380D01*
X105441809Y-89193619D02*
X106203714Y-89193619D01*
X107013238Y-89003142D02*
X106965619Y-89050761D01*
X106822761Y-89098380D01*
X106727523Y-89098380D01*
X106584666Y-89050761D01*
X106489428Y-88955523D01*
X106441809Y-88860285D01*
X106394190Y-88669809D01*
X106394190Y-88526952D01*
X106441809Y-88336476D01*
X106489428Y-88241238D01*
X106584666Y-88146000D01*
X106727523Y-88098380D01*
X106822761Y-88098380D01*
X106965619Y-88146000D01*
X107013238Y-88193619D01*
X107918000Y-89098380D02*
X107441809Y-89098380D01*
X107441809Y-88098380D01*
X108251333Y-89098380D02*
X108251333Y-88098380D01*
X108822761Y-89098380D02*
X108394190Y-88526952D01*
X108822761Y-88098380D02*
X108251333Y-88669809D01*
X109013238Y-89193619D02*
X109775142Y-89193619D01*
X110537047Y-89098380D02*
X109965619Y-89098380D01*
X110251333Y-89098380D02*
X110251333Y-88098380D01*
X110156095Y-88241238D01*
X110060857Y-88336476D01*
X109965619Y-88384095D01*
X110822761Y-88098380D02*
X111156095Y-89098380D01*
X111489428Y-88098380D01*
X111965619Y-88526952D02*
X111870380Y-88479333D01*
X111822761Y-88431714D01*
X111775142Y-88336476D01*
X111775142Y-88288857D01*
X111822761Y-88193619D01*
X111870380Y-88146000D01*
X111965619Y-88098380D01*
X112156095Y-88098380D01*
X112251333Y-88146000D01*
X112298952Y-88193619D01*
X112346571Y-88288857D01*
X112346571Y-88336476D01*
X112298952Y-88431714D01*
X112251333Y-88479333D01*
X112156095Y-88526952D01*
X111965619Y-88526952D01*
X111870380Y-88574571D01*
X111822761Y-88622190D01*
X111775142Y-88717428D01*
X111775142Y-88907904D01*
X111822761Y-89003142D01*
X111870380Y-89050761D01*
X111965619Y-89098380D01*
X112156095Y-89098380D01*
X112251333Y-89050761D01*
X112298952Y-89003142D01*
X112346571Y-88907904D01*
X112346571Y-88717428D01*
X112298952Y-88622190D01*
X112251333Y-88574571D01*
X112156095Y-88526952D01*
X99632285Y-86558380D02*
X99632285Y-85558380D01*
X100060857Y-85653619D02*
X100108476Y-85606000D01*
X100203714Y-85558380D01*
X100441809Y-85558380D01*
X100537047Y-85606000D01*
X100584666Y-85653619D01*
X100632285Y-85748857D01*
X100632285Y-85844095D01*
X100584666Y-85986952D01*
X100013238Y-86558380D01*
X100632285Y-86558380D01*
X101632285Y-86463142D02*
X101584666Y-86510761D01*
X101441809Y-86558380D01*
X101346571Y-86558380D01*
X101203714Y-86510761D01*
X101108476Y-86415523D01*
X101060857Y-86320285D01*
X101013238Y-86129809D01*
X101013238Y-85986952D01*
X101060857Y-85796476D01*
X101108476Y-85701238D01*
X101203714Y-85606000D01*
X101346571Y-85558380D01*
X101441809Y-85558380D01*
X101584666Y-85606000D01*
X101632285Y-85653619D01*
X101822761Y-86653619D02*
X102584666Y-86653619D01*
X103346571Y-85606000D02*
X103251333Y-85558380D01*
X103108476Y-85558380D01*
X102965619Y-85606000D01*
X102870380Y-85701238D01*
X102822761Y-85796476D01*
X102775142Y-85986952D01*
X102775142Y-86129809D01*
X102822761Y-86320285D01*
X102870380Y-86415523D01*
X102965619Y-86510761D01*
X103108476Y-86558380D01*
X103203714Y-86558380D01*
X103346571Y-86510761D01*
X103394190Y-86463142D01*
X103394190Y-86129809D01*
X103203714Y-86129809D01*
X103822761Y-86558380D02*
X103822761Y-85558380D01*
X104203714Y-85558380D01*
X104298952Y-85606000D01*
X104346571Y-85653619D01*
X104394190Y-85748857D01*
X104394190Y-85891714D01*
X104346571Y-85986952D01*
X104298952Y-86034571D01*
X104203714Y-86082190D01*
X103822761Y-86082190D01*
X105013238Y-85558380D02*
X105108476Y-85558380D01*
X105203714Y-85606000D01*
X105251333Y-85653619D01*
X105298952Y-85748857D01*
X105346571Y-85939333D01*
X105346571Y-86177428D01*
X105298952Y-86367904D01*
X105251333Y-86463142D01*
X105203714Y-86510761D01*
X105108476Y-86558380D01*
X105013238Y-86558380D01*
X104918000Y-86510761D01*
X104870380Y-86463142D01*
X104822761Y-86367904D01*
X104775142Y-86177428D01*
X104775142Y-85939333D01*
X104822761Y-85748857D01*
X104870380Y-85653619D01*
X104918000Y-85606000D01*
X105013238Y-85558380D01*
X105537047Y-86653619D02*
X106298952Y-86653619D01*
X106537047Y-86558380D02*
X106537047Y-85558380D01*
X106775142Y-85558380D01*
X106918000Y-85606000D01*
X107013238Y-85701238D01*
X107060857Y-85796476D01*
X107108476Y-85986952D01*
X107108476Y-86129809D01*
X107060857Y-86320285D01*
X107013238Y-86415523D01*
X106918000Y-86510761D01*
X106775142Y-86558380D01*
X106537047Y-86558380D01*
X107489428Y-86272666D02*
X107965619Y-86272666D01*
X107394190Y-86558380D02*
X107727523Y-85558380D01*
X108060857Y-86558380D01*
X108251333Y-85558380D02*
X108822761Y-85558380D01*
X108537047Y-86558380D02*
X108537047Y-85558380D01*
X108918000Y-86653619D02*
X109679904Y-86653619D01*
X110441809Y-86558380D02*
X109870380Y-86558380D01*
X110156095Y-86558380D02*
X110156095Y-85558380D01*
X110060857Y-85701238D01*
X109965619Y-85796476D01*
X109870380Y-85844095D01*
X110727523Y-85558380D02*
X111060857Y-86558380D01*
X111394190Y-85558380D01*
X111870380Y-85986952D02*
X111775142Y-85939333D01*
X111727523Y-85891714D01*
X111679904Y-85796476D01*
X111679904Y-85748857D01*
X111727523Y-85653619D01*
X111775142Y-85606000D01*
X111870380Y-85558380D01*
X112060857Y-85558380D01*
X112156095Y-85606000D01*
X112203714Y-85653619D01*
X112251333Y-85748857D01*
X112251333Y-85796476D01*
X112203714Y-85891714D01*
X112156095Y-85939333D01*
X112060857Y-85986952D01*
X111870380Y-85986952D01*
X111775142Y-86034571D01*
X111727523Y-86082190D01*
X111679904Y-86177428D01*
X111679904Y-86367904D01*
X111727523Y-86463142D01*
X111775142Y-86510761D01*
X111870380Y-86558380D01*
X112060857Y-86558380D01*
X112156095Y-86510761D01*
X112203714Y-86463142D01*
X112251333Y-86367904D01*
X112251333Y-86177428D01*
X112203714Y-86082190D01*
X112156095Y-86034571D01*
X112060857Y-85986952D01*
X100108190Y-83923142D02*
X100060571Y-83970761D01*
X99917714Y-84018380D01*
X99822476Y-84018380D01*
X99679619Y-83970761D01*
X99584380Y-83875523D01*
X99536761Y-83780285D01*
X99489142Y-83589809D01*
X99489142Y-83446952D01*
X99536761Y-83256476D01*
X99584380Y-83161238D01*
X99679619Y-83066000D01*
X99822476Y-83018380D01*
X99917714Y-83018380D01*
X100060571Y-83066000D01*
X100108190Y-83113619D01*
X100489142Y-83732666D02*
X100965333Y-83732666D01*
X100393904Y-84018380D02*
X100727238Y-83018380D01*
X101060571Y-84018380D01*
X101393904Y-84018380D02*
X101393904Y-83018380D01*
X101727238Y-83732666D01*
X102060571Y-83018380D01*
X102060571Y-84018380D01*
X102727238Y-83018380D02*
X102822476Y-83018380D01*
X102917714Y-83066000D01*
X102965333Y-83113619D01*
X103012952Y-83208857D01*
X103060571Y-83399333D01*
X103060571Y-83637428D01*
X103012952Y-83827904D01*
X102965333Y-83923142D01*
X102917714Y-83970761D01*
X102822476Y-84018380D01*
X102727238Y-84018380D01*
X102632000Y-83970761D01*
X102584380Y-83923142D01*
X102536761Y-83827904D01*
X102489142Y-83637428D01*
X102489142Y-83399333D01*
X102536761Y-83208857D01*
X102584380Y-83113619D01*
X102632000Y-83066000D01*
X102727238Y-83018380D01*
X103251047Y-84113619D02*
X104012952Y-84113619D01*
X104251047Y-84018380D02*
X104251047Y-83018380D01*
X104584380Y-83732666D01*
X104917714Y-83018380D01*
X104917714Y-84018380D01*
X105965333Y-83923142D02*
X105917714Y-83970761D01*
X105774857Y-84018380D01*
X105679619Y-84018380D01*
X105536761Y-83970761D01*
X105441523Y-83875523D01*
X105393904Y-83780285D01*
X105346285Y-83589809D01*
X105346285Y-83446952D01*
X105393904Y-83256476D01*
X105441523Y-83161238D01*
X105536761Y-83066000D01*
X105679619Y-83018380D01*
X105774857Y-83018380D01*
X105917714Y-83066000D01*
X105965333Y-83113619D01*
X106870095Y-84018380D02*
X106393904Y-84018380D01*
X106393904Y-83018380D01*
X107203428Y-84018380D02*
X107203428Y-83018380D01*
X107774857Y-84018380D02*
X107346285Y-83446952D01*
X107774857Y-83018380D02*
X107203428Y-83589809D01*
X99965238Y-81129142D02*
X99917619Y-81176761D01*
X99774761Y-81224380D01*
X99679523Y-81224380D01*
X99536666Y-81176761D01*
X99441428Y-81081523D01*
X99393809Y-80986285D01*
X99346190Y-80795809D01*
X99346190Y-80652952D01*
X99393809Y-80462476D01*
X99441428Y-80367238D01*
X99536666Y-80272000D01*
X99679523Y-80224380D01*
X99774761Y-80224380D01*
X99917619Y-80272000D01*
X99965238Y-80319619D01*
X100346190Y-80938666D02*
X100822380Y-80938666D01*
X100250952Y-81224380D02*
X100584285Y-80224380D01*
X100917619Y-81224380D01*
X101250952Y-81224380D02*
X101250952Y-80224380D01*
X101584285Y-80938666D01*
X101917619Y-80224380D01*
X101917619Y-81224380D01*
X102584285Y-80224380D02*
X102679523Y-80224380D01*
X102774761Y-80272000D01*
X102822380Y-80319619D01*
X102870000Y-80414857D01*
X102917619Y-80605333D01*
X102917619Y-80843428D01*
X102870000Y-81033904D01*
X102822380Y-81129142D01*
X102774761Y-81176761D01*
X102679523Y-81224380D01*
X102584285Y-81224380D01*
X102489047Y-81176761D01*
X102441428Y-81129142D01*
X102393809Y-81033904D01*
X102346190Y-80843428D01*
X102346190Y-80605333D01*
X102393809Y-80414857D01*
X102441428Y-80319619D01*
X102489047Y-80272000D01*
X102584285Y-80224380D01*
X103108095Y-81319619D02*
X103870000Y-81319619D01*
X104679523Y-81224380D02*
X104346190Y-80748190D01*
X104108095Y-81224380D02*
X104108095Y-80224380D01*
X104489047Y-80224380D01*
X104584285Y-80272000D01*
X104631904Y-80319619D01*
X104679523Y-80414857D01*
X104679523Y-80557714D01*
X104631904Y-80652952D01*
X104584285Y-80700571D01*
X104489047Y-80748190D01*
X104108095Y-80748190D01*
X105060476Y-81176761D02*
X105203333Y-81224380D01*
X105441428Y-81224380D01*
X105536666Y-81176761D01*
X105584285Y-81129142D01*
X105631904Y-81033904D01*
X105631904Y-80938666D01*
X105584285Y-80843428D01*
X105536666Y-80795809D01*
X105441428Y-80748190D01*
X105250952Y-80700571D01*
X105155714Y-80652952D01*
X105108095Y-80605333D01*
X105060476Y-80510095D01*
X105060476Y-80414857D01*
X105108095Y-80319619D01*
X105155714Y-80272000D01*
X105250952Y-80224380D01*
X105489047Y-80224380D01*
X105631904Y-80272000D01*
X105917619Y-80224380D02*
X106489047Y-80224380D01*
X106203333Y-81224380D02*
X106203333Y-80224380D01*
X99854190Y-78843142D02*
X99806571Y-78890761D01*
X99663714Y-78938380D01*
X99568476Y-78938380D01*
X99425619Y-78890761D01*
X99330380Y-78795523D01*
X99282761Y-78700285D01*
X99235142Y-78509809D01*
X99235142Y-78366952D01*
X99282761Y-78176476D01*
X99330380Y-78081238D01*
X99425619Y-77986000D01*
X99568476Y-77938380D01*
X99663714Y-77938380D01*
X99806571Y-77986000D01*
X99854190Y-78033619D01*
X100235142Y-78652666D02*
X100711333Y-78652666D01*
X100139904Y-78938380D02*
X100473238Y-77938380D01*
X100806571Y-78938380D01*
X101139904Y-78938380D02*
X101139904Y-77938380D01*
X101473238Y-78652666D01*
X101806571Y-77938380D01*
X101806571Y-78938380D01*
X102806571Y-78938380D02*
X102235142Y-78938380D01*
X102520857Y-78938380D02*
X102520857Y-77938380D01*
X102425619Y-78081238D01*
X102330380Y-78176476D01*
X102235142Y-78224095D01*
X102997047Y-79033619D02*
X103758952Y-79033619D01*
X103997047Y-78938380D02*
X103997047Y-77938380D01*
X104330380Y-78652666D01*
X104663714Y-77938380D01*
X104663714Y-78938380D01*
X105711333Y-78843142D02*
X105663714Y-78890761D01*
X105520857Y-78938380D01*
X105425619Y-78938380D01*
X105282761Y-78890761D01*
X105187523Y-78795523D01*
X105139904Y-78700285D01*
X105092285Y-78509809D01*
X105092285Y-78366952D01*
X105139904Y-78176476D01*
X105187523Y-78081238D01*
X105282761Y-77986000D01*
X105425619Y-77938380D01*
X105520857Y-77938380D01*
X105663714Y-77986000D01*
X105711333Y-78033619D01*
X106616095Y-78938380D02*
X106139904Y-78938380D01*
X106139904Y-77938380D01*
X106949428Y-78938380D02*
X106949428Y-77938380D01*
X107520857Y-78938380D02*
X107092285Y-78366952D01*
X107520857Y-77938380D02*
X106949428Y-78509809D01*
X99941523Y-76127142D02*
X99893904Y-76174761D01*
X99751047Y-76222380D01*
X99655809Y-76222380D01*
X99512952Y-76174761D01*
X99417714Y-76079523D01*
X99370095Y-75984285D01*
X99322476Y-75793809D01*
X99322476Y-75650952D01*
X99370095Y-75460476D01*
X99417714Y-75365238D01*
X99512952Y-75270000D01*
X99655809Y-75222380D01*
X99751047Y-75222380D01*
X99893904Y-75270000D01*
X99941523Y-75317619D01*
X100322476Y-75936666D02*
X100798666Y-75936666D01*
X100227238Y-76222380D02*
X100560571Y-75222380D01*
X100893904Y-76222380D01*
X101227238Y-76222380D02*
X101227238Y-75222380D01*
X101560571Y-75936666D01*
X101893904Y-75222380D01*
X101893904Y-76222380D01*
X102893904Y-76222380D02*
X102322476Y-76222380D01*
X102608190Y-76222380D02*
X102608190Y-75222380D01*
X102512952Y-75365238D01*
X102417714Y-75460476D01*
X102322476Y-75508095D01*
X103084380Y-76317619D02*
X103846285Y-76317619D01*
X104655809Y-76222380D02*
X104322476Y-75746190D01*
X104084380Y-76222380D02*
X104084380Y-75222380D01*
X104465333Y-75222380D01*
X104560571Y-75270000D01*
X104608190Y-75317619D01*
X104655809Y-75412857D01*
X104655809Y-75555714D01*
X104608190Y-75650952D01*
X104560571Y-75698571D01*
X104465333Y-75746190D01*
X104084380Y-75746190D01*
X105036761Y-76174761D02*
X105179619Y-76222380D01*
X105417714Y-76222380D01*
X105512952Y-76174761D01*
X105560571Y-76127142D01*
X105608190Y-76031904D01*
X105608190Y-75936666D01*
X105560571Y-75841428D01*
X105512952Y-75793809D01*
X105417714Y-75746190D01*
X105227238Y-75698571D01*
X105132000Y-75650952D01*
X105084380Y-75603333D01*
X105036761Y-75508095D01*
X105036761Y-75412857D01*
X105084380Y-75317619D01*
X105132000Y-75270000D01*
X105227238Y-75222380D01*
X105465333Y-75222380D01*
X105608190Y-75270000D01*
X105893904Y-75222380D02*
X106465333Y-75222380D01*
X106179619Y-76222380D02*
X106179619Y-75222380D01*
X106560571Y-76317619D02*
X107322476Y-76317619D01*
X108036761Y-76222380D02*
X107560571Y-76222380D01*
X107560571Y-75222380D01*
X99756190Y-73707142D02*
X99708571Y-73754761D01*
X99565714Y-73802380D01*
X99470476Y-73802380D01*
X99327619Y-73754761D01*
X99232380Y-73659523D01*
X99184761Y-73564285D01*
X99137142Y-73373809D01*
X99137142Y-73230952D01*
X99184761Y-73040476D01*
X99232380Y-72945238D01*
X99327619Y-72850000D01*
X99470476Y-72802380D01*
X99565714Y-72802380D01*
X99708571Y-72850000D01*
X99756190Y-72897619D01*
X100137142Y-73516666D02*
X100613333Y-73516666D01*
X100041904Y-73802380D02*
X100375238Y-72802380D01*
X100708571Y-73802380D01*
X101041904Y-73802380D02*
X101041904Y-72802380D01*
X101375238Y-73516666D01*
X101708571Y-72802380D01*
X101708571Y-73802380D01*
X102137142Y-72897619D02*
X102184761Y-72850000D01*
X102280000Y-72802380D01*
X102518095Y-72802380D01*
X102613333Y-72850000D01*
X102660952Y-72897619D01*
X102708571Y-72992857D01*
X102708571Y-73088095D01*
X102660952Y-73230952D01*
X102089523Y-73802380D01*
X102708571Y-73802380D01*
X102899047Y-73897619D02*
X103660952Y-73897619D01*
X103899047Y-73802380D02*
X103899047Y-72802380D01*
X104232380Y-73516666D01*
X104565714Y-72802380D01*
X104565714Y-73802380D01*
X105613333Y-73707142D02*
X105565714Y-73754761D01*
X105422857Y-73802380D01*
X105327619Y-73802380D01*
X105184761Y-73754761D01*
X105089523Y-73659523D01*
X105041904Y-73564285D01*
X104994285Y-73373809D01*
X104994285Y-73230952D01*
X105041904Y-73040476D01*
X105089523Y-72945238D01*
X105184761Y-72850000D01*
X105327619Y-72802380D01*
X105422857Y-72802380D01*
X105565714Y-72850000D01*
X105613333Y-72897619D01*
X106518095Y-73802380D02*
X106041904Y-73802380D01*
X106041904Y-72802380D01*
X106851428Y-73802380D02*
X106851428Y-72802380D01*
X107422857Y-73802380D02*
X106994285Y-73230952D01*
X107422857Y-72802380D02*
X106851428Y-73373809D01*
X99785238Y-71147142D02*
X99737619Y-71194761D01*
X99594761Y-71242380D01*
X99499523Y-71242380D01*
X99356666Y-71194761D01*
X99261428Y-71099523D01*
X99213809Y-71004285D01*
X99166190Y-70813809D01*
X99166190Y-70670952D01*
X99213809Y-70480476D01*
X99261428Y-70385238D01*
X99356666Y-70290000D01*
X99499523Y-70242380D01*
X99594761Y-70242380D01*
X99737619Y-70290000D01*
X99785238Y-70337619D01*
X100166190Y-70956666D02*
X100642380Y-70956666D01*
X100070952Y-71242380D02*
X100404285Y-70242380D01*
X100737619Y-71242380D01*
X101070952Y-71242380D02*
X101070952Y-70242380D01*
X101404285Y-70956666D01*
X101737619Y-70242380D01*
X101737619Y-71242380D01*
X102166190Y-70337619D02*
X102213809Y-70290000D01*
X102309047Y-70242380D01*
X102547142Y-70242380D01*
X102642380Y-70290000D01*
X102690000Y-70337619D01*
X102737619Y-70432857D01*
X102737619Y-70528095D01*
X102690000Y-70670952D01*
X102118571Y-71242380D01*
X102737619Y-71242380D01*
X102928095Y-71337619D02*
X103690000Y-71337619D01*
X104499523Y-71242380D02*
X104166190Y-70766190D01*
X103928095Y-71242380D02*
X103928095Y-70242380D01*
X104309047Y-70242380D01*
X104404285Y-70290000D01*
X104451904Y-70337619D01*
X104499523Y-70432857D01*
X104499523Y-70575714D01*
X104451904Y-70670952D01*
X104404285Y-70718571D01*
X104309047Y-70766190D01*
X103928095Y-70766190D01*
X104880476Y-71194761D02*
X105023333Y-71242380D01*
X105261428Y-71242380D01*
X105356666Y-71194761D01*
X105404285Y-71147142D01*
X105451904Y-71051904D01*
X105451904Y-70956666D01*
X105404285Y-70861428D01*
X105356666Y-70813809D01*
X105261428Y-70766190D01*
X105070952Y-70718571D01*
X104975714Y-70670952D01*
X104928095Y-70623333D01*
X104880476Y-70528095D01*
X104880476Y-70432857D01*
X104928095Y-70337619D01*
X104975714Y-70290000D01*
X105070952Y-70242380D01*
X105309047Y-70242380D01*
X105451904Y-70290000D01*
X105737619Y-70242380D02*
X106309047Y-70242380D01*
X106023333Y-71242380D02*
X106023333Y-70242380D01*
D11*
X179171428Y-97219285D02*
X179171428Y-98219285D01*
X177671428Y-97576428D01*
X178671428Y-99433571D02*
X177671428Y-99433571D01*
X179242857Y-99076428D02*
X178171428Y-98719285D01*
X178171428Y-99647857D01*
X177814285Y-100219285D02*
X177742857Y-100290714D01*
X177671428Y-100219285D01*
X177742857Y-100147857D01*
X177814285Y-100219285D01*
X177671428Y-100219285D01*
X177671428Y-101005000D02*
X177671428Y-101290714D01*
X177742857Y-101433571D01*
X177814285Y-101505000D01*
X178028571Y-101647857D01*
X178314285Y-101719285D01*
X178885714Y-101719285D01*
X179028571Y-101647857D01*
X179100000Y-101576428D01*
X179171428Y-101433571D01*
X179171428Y-101147857D01*
X179100000Y-101005000D01*
X179028571Y-100933571D01*
X178885714Y-100862142D01*
X178528571Y-100862142D01*
X178385714Y-100933571D01*
X178314285Y-101005000D01*
X178242857Y-101147857D01*
X178242857Y-101433571D01*
X178314285Y-101576428D01*
X178385714Y-101647857D01*
X178528571Y-101719285D01*
X179171428Y-102219285D02*
X179171428Y-103147857D01*
X178600000Y-102647857D01*
X178600000Y-102862142D01*
X178528571Y-103005000D01*
X178457142Y-103076428D01*
X178314285Y-103147857D01*
X177957142Y-103147857D01*
X177814285Y-103076428D01*
X177742857Y-103005000D01*
X177671428Y-102862142D01*
X177671428Y-102433571D01*
X177742857Y-102290714D01*
X177814285Y-102219285D01*
X179171428Y-104076428D02*
X179171428Y-104219285D01*
X179100000Y-104362142D01*
X179028571Y-104433571D01*
X178885714Y-104505000D01*
X178600000Y-104576428D01*
X178242857Y-104576428D01*
X177957142Y-104505000D01*
X177814285Y-104433571D01*
X177742857Y-104362142D01*
X177671428Y-104219285D01*
X177671428Y-104076428D01*
X177742857Y-103933571D01*
X177814285Y-103862142D01*
X177957142Y-103790714D01*
X178242857Y-103719285D01*
X178600000Y-103719285D01*
X178885714Y-103790714D01*
X179028571Y-103862142D01*
X179100000Y-103933571D01*
X179171428Y-104076428D01*
X177671428Y-106362142D02*
X178671428Y-106362142D01*
X178528571Y-106362142D02*
X178600000Y-106433571D01*
X178671428Y-106576428D01*
X178671428Y-106790714D01*
X178600000Y-106933571D01*
X178457142Y-107005000D01*
X177671428Y-107005000D01*
X178457142Y-107005000D02*
X178600000Y-107076428D01*
X178671428Y-107219285D01*
X178671428Y-107433571D01*
X178600000Y-107576428D01*
X178457142Y-107647857D01*
X177671428Y-107647857D01*
X177671428Y-108362142D02*
X178671428Y-108362142D01*
X178528571Y-108362142D02*
X178600000Y-108433571D01*
X178671428Y-108576428D01*
X178671428Y-108790714D01*
X178600000Y-108933571D01*
X178457142Y-109005000D01*
X177671428Y-109005000D01*
X178457142Y-109005000D02*
X178600000Y-109076428D01*
X178671428Y-109219285D01*
X178671428Y-109433571D01*
X178600000Y-109576428D01*
X178457142Y-109647857D01*
X177671428Y-109647857D01*
X177000000Y-66040000D02*
X177000000Y-140970000D01*
X174460000Y-66040000D02*
X179700000Y-66040000D01*
X174460000Y-140970000D02*
X179700000Y-140970000D01*
X177000000Y-140970000D02*
X176413579Y-139843496D01*
X177000000Y-140970000D02*
X177586421Y-139843496D01*
X177000000Y-66040000D02*
X176413579Y-67166504D01*
X177000000Y-66040000D02*
X177586421Y-67166504D01*
X124220425Y-148929991D02*
X124077585Y-148858528D01*
X124006173Y-148787082D01*
X123934780Y-148644207D01*
X123934797Y-148572779D01*
X124006260Y-148429939D01*
X124077706Y-148358528D01*
X124220580Y-148287134D01*
X124506295Y-148287203D01*
X124649134Y-148358666D01*
X124720546Y-148430112D01*
X124791940Y-148572987D01*
X124791922Y-148644415D01*
X124720459Y-148787255D01*
X124649013Y-148858666D01*
X124506139Y-148930060D01*
X124220425Y-148929991D01*
X124077550Y-149001385D01*
X124006104Y-149072796D01*
X123934641Y-149215636D01*
X123934572Y-149501350D01*
X124005966Y-149644225D01*
X124077377Y-149715670D01*
X124220217Y-149787134D01*
X124505931Y-149787203D01*
X124648805Y-149715809D01*
X124720251Y-149644398D01*
X124791715Y-149501558D01*
X124791784Y-149215844D01*
X124720390Y-149072969D01*
X124648979Y-149001523D01*
X124506139Y-148930060D01*
X125363403Y-148430268D02*
X125434849Y-148358857D01*
X125577723Y-148287463D01*
X125934866Y-148287549D01*
X126077706Y-148359013D01*
X126149117Y-148430458D01*
X126220511Y-148573333D01*
X126220476Y-148716190D01*
X126148996Y-148930458D01*
X125291645Y-149787393D01*
X126220217Y-149787619D01*
X126863108Y-149644917D02*
X126934520Y-149716363D01*
X126863074Y-149787774D01*
X126791663Y-149716328D01*
X126863108Y-149644917D01*
X126863074Y-149787774D01*
X128292009Y-148288121D02*
X127577723Y-148287948D01*
X127506121Y-149002216D01*
X127577567Y-148930805D01*
X127720442Y-148859411D01*
X128077585Y-148859497D01*
X128220424Y-148930961D01*
X128291836Y-149002406D01*
X128363230Y-149145281D01*
X128363143Y-149502424D01*
X128291680Y-149645264D01*
X128220234Y-149716675D01*
X128077359Y-149788069D01*
X127720217Y-149787982D01*
X127577377Y-149716519D01*
X127505966Y-149645073D01*
X129292009Y-148288363D02*
X129434866Y-148288398D01*
X129577706Y-148359861D01*
X129649117Y-148431307D01*
X129720511Y-148574181D01*
X129791870Y-148859913D01*
X129791784Y-149217056D01*
X129720286Y-149502753D01*
X129648823Y-149645593D01*
X129577377Y-149717004D01*
X129434502Y-149788398D01*
X129291645Y-149788363D01*
X129148805Y-149716900D01*
X129077394Y-149645454D01*
X129006000Y-149502580D01*
X128934641Y-149216848D01*
X128934727Y-148859705D01*
X129006225Y-148574008D01*
X129077688Y-148431168D01*
X129149134Y-148359757D01*
X129292009Y-148288363D01*
X130720580Y-148288709D02*
X130863437Y-148288744D01*
X131006277Y-148360207D01*
X131077688Y-148431653D01*
X131149082Y-148574528D01*
X131220442Y-148860259D01*
X131220355Y-149217402D01*
X131148857Y-149503099D01*
X131077394Y-149645939D01*
X131005948Y-149717350D01*
X130863074Y-149788744D01*
X130720217Y-149788709D01*
X130577377Y-149717246D01*
X130505965Y-149645800D01*
X130434572Y-149502926D01*
X130363212Y-149217194D01*
X130363299Y-148860051D01*
X130434797Y-148574354D01*
X130506260Y-148431515D01*
X130577706Y-148360103D01*
X130720580Y-148288709D01*
X133005931Y-149789264D02*
X133006173Y-148789264D01*
X133006139Y-148932121D02*
X133077584Y-148860709D01*
X133220459Y-148789316D01*
X133434745Y-148789367D01*
X133577584Y-148860831D01*
X133648978Y-149003705D01*
X133648788Y-149789419D01*
X133648978Y-149003705D02*
X133720442Y-148860865D01*
X133863316Y-148789471D01*
X134077602Y-148789523D01*
X134220442Y-148860987D01*
X134291835Y-149003861D01*
X134291645Y-149789575D01*
X135005931Y-149789748D02*
X135006173Y-148789748D01*
X135006139Y-148932606D02*
X135077584Y-148861194D01*
X135220459Y-148789800D01*
X135434745Y-148789852D01*
X135577584Y-148861316D01*
X135648978Y-149004190D01*
X135648788Y-149789904D01*
X135648978Y-149004190D02*
X135720442Y-148861350D01*
X135863316Y-148789956D01*
X136077602Y-148790008D01*
X136220441Y-148861471D01*
X136291835Y-149004346D01*
X136291645Y-149790060D01*
X88899462Y-147000000D02*
X171399462Y-147020000D01*
X88900000Y-144780000D02*
X88899320Y-147586421D01*
X171400000Y-144800000D02*
X171399320Y-147606421D01*
X171399462Y-147020000D02*
X170272816Y-147606148D01*
X171399462Y-147020000D02*
X170273100Y-146433306D01*
X88899462Y-147000000D02*
X90025824Y-147586694D01*
X88899462Y-147000000D02*
X90026108Y-146413852D01*
D12*
X150487680Y-82369740D02*
X150487680Y-124642960D01*
X141892320Y-82369740D02*
X150487680Y-82369740D01*
X141892320Y-124642960D02*
X141892320Y-82369740D01*
X150487680Y-124642960D02*
X141892320Y-124642960D01*
D13*
X93560000Y-100050000D02*
X98760000Y-100050000D01*
X93560000Y-72050000D02*
X93560000Y-100050000D01*
X98760000Y-69450000D02*
X98760000Y-100050000D01*
X93560000Y-72050000D02*
X96160000Y-72050000D01*
X96160000Y-72050000D02*
X96160000Y-69450000D01*
X96160000Y-69450000D02*
X98760000Y-69450000D01*
X93560000Y-70780000D02*
X93560000Y-69450000D01*
X93560000Y-69450000D02*
X94890000Y-69450000D01*
X110240000Y-102630000D02*
X111570000Y-102630000D01*
X110240000Y-103960000D02*
X110240000Y-102630000D01*
X110240000Y-105230000D02*
X112900000Y-105230000D01*
X112900000Y-105230000D02*
X112900000Y-105290000D01*
X110240000Y-105230000D02*
X110240000Y-105290000D01*
X110240000Y-105290000D02*
X112900000Y-105290000D01*
X98100000Y-105180000D02*
X100760000Y-105180000D01*
X98100000Y-105120000D02*
X98100000Y-105180000D01*
X100760000Y-105120000D02*
X100760000Y-105180000D01*
X98100000Y-105120000D02*
X100760000Y-105120000D01*
X98100000Y-103850000D02*
X98100000Y-102520000D01*
X98100000Y-102520000D02*
X99430000Y-102520000D01*
X94490000Y-102510000D02*
X95820000Y-102510000D01*
X94490000Y-103840000D02*
X94490000Y-102510000D01*
X94490000Y-105110000D02*
X97150000Y-105110000D01*
X97150000Y-105110000D02*
X97150000Y-105170000D01*
X94490000Y-105110000D02*
X94490000Y-105170000D01*
X94490000Y-105170000D02*
X97150000Y-105170000D01*
X132810000Y-104460000D02*
X135470000Y-104460000D01*
X132810000Y-104400000D02*
X132810000Y-104460000D01*
X135470000Y-104400000D02*
X135470000Y-104460000D01*
X132810000Y-104400000D02*
X135470000Y-104400000D01*
X132810000Y-103130000D02*
X132810000Y-101800000D01*
X132810000Y-101800000D02*
X134140000Y-101800000D01*
X109390000Y-75480000D02*
X110720000Y-75480000D01*
X109390000Y-76810000D02*
X109390000Y-75480000D01*
X109390000Y-78080000D02*
X112050000Y-78080000D01*
X112050000Y-78080000D02*
X112050000Y-78140000D01*
X109390000Y-78080000D02*
X109390000Y-78140000D01*
X109390000Y-78140000D02*
X112050000Y-78140000D01*
X116220000Y-78570000D02*
X118880000Y-78570000D01*
X116220000Y-78510000D02*
X116220000Y-78570000D01*
X118880000Y-78510000D02*
X118880000Y-78570000D01*
X116220000Y-78510000D02*
X118880000Y-78510000D01*
X116220000Y-77240000D02*
X116220000Y-75910000D01*
X116220000Y-75910000D02*
X117550000Y-75910000D01*
X121980000Y-69980000D02*
X123310000Y-69980000D01*
X121980000Y-71310000D02*
X121980000Y-69980000D01*
X121980000Y-72580000D02*
X124640000Y-72580000D01*
X124640000Y-72580000D02*
X124640000Y-72640000D01*
X121980000Y-72580000D02*
X121980000Y-72640000D01*
X121980000Y-72640000D02*
X124640000Y-72640000D01*
X129160000Y-104470000D02*
X131820000Y-104470000D01*
X129160000Y-104410000D02*
X129160000Y-104470000D01*
X131820000Y-104410000D02*
X131820000Y-104470000D01*
X129160000Y-104410000D02*
X131820000Y-104410000D01*
X129160000Y-103140000D02*
X129160000Y-101810000D01*
X129160000Y-101810000D02*
X130490000Y-101810000D01*
X162940000Y-96390000D02*
X164270000Y-96390000D01*
X162940000Y-97720000D02*
X162940000Y-96390000D01*
X162940000Y-98990000D02*
X165600000Y-98990000D01*
X165600000Y-98990000D02*
X165600000Y-99050000D01*
X162940000Y-98990000D02*
X162940000Y-99050000D01*
X162940000Y-99050000D02*
X165600000Y-99050000D01*
X162920000Y-95390000D02*
X165580000Y-95390000D01*
X162920000Y-95330000D02*
X162920000Y-95390000D01*
X165580000Y-95330000D02*
X165580000Y-95390000D01*
X162920000Y-95330000D02*
X165580000Y-95330000D01*
X162920000Y-94060000D02*
X162920000Y-92730000D01*
X162920000Y-92730000D02*
X164250000Y-92730000D01*
X162910000Y-89090000D02*
X164240000Y-89090000D01*
X162910000Y-90420000D02*
X162910000Y-89090000D01*
X162910000Y-91690000D02*
X165570000Y-91690000D01*
X165570000Y-91690000D02*
X165570000Y-91750000D01*
X162910000Y-91690000D02*
X162910000Y-91750000D01*
X162910000Y-91750000D02*
X165570000Y-91750000D01*
X162920000Y-88110000D02*
X165580000Y-88110000D01*
X162920000Y-88050000D02*
X162920000Y-88110000D01*
X165580000Y-88050000D02*
X165580000Y-88110000D01*
X162920000Y-88050000D02*
X165580000Y-88050000D01*
X162920000Y-86780000D02*
X162920000Y-85450000D01*
X162920000Y-85450000D02*
X164250000Y-85450000D01*
X159310000Y-85430000D02*
X160640000Y-85430000D01*
X159310000Y-86760000D02*
X159310000Y-85430000D01*
X159310000Y-88030000D02*
X161970000Y-88030000D01*
X161970000Y-88030000D02*
X161970000Y-88090000D01*
X159310000Y-88030000D02*
X159310000Y-88090000D01*
X159310000Y-88090000D02*
X161970000Y-88090000D01*
X162920000Y-80880000D02*
X165580000Y-80880000D01*
X162920000Y-80820000D02*
X162920000Y-80880000D01*
X165580000Y-80820000D02*
X165580000Y-80880000D01*
X162920000Y-80820000D02*
X165580000Y-80820000D01*
X162920000Y-79550000D02*
X162920000Y-78220000D01*
X162920000Y-78220000D02*
X164250000Y-78220000D01*
X162920000Y-81820000D02*
X164250000Y-81820000D01*
X162920000Y-83150000D02*
X162920000Y-81820000D01*
X162920000Y-84420000D02*
X165580000Y-84420000D01*
X165580000Y-84420000D02*
X165580000Y-84480000D01*
X162920000Y-84420000D02*
X162920000Y-84480000D01*
X162920000Y-84480000D02*
X165580000Y-84480000D01*
X162920000Y-77260000D02*
X165580000Y-77260000D01*
X162920000Y-77200000D02*
X162920000Y-77260000D01*
X165580000Y-77200000D02*
X165580000Y-77260000D01*
X162920000Y-77200000D02*
X165580000Y-77200000D01*
X162920000Y-75930000D02*
X162920000Y-74600000D01*
X162920000Y-74600000D02*
X164250000Y-74600000D01*
X109400000Y-69520000D02*
X110730000Y-69520000D01*
X109400000Y-70850000D02*
X109400000Y-69520000D01*
X109400000Y-72120000D02*
X112060000Y-72120000D01*
X112060000Y-72120000D02*
X112060000Y-72180000D01*
X109400000Y-72120000D02*
X109400000Y-72180000D01*
X109400000Y-72180000D02*
X112060000Y-72180000D01*
X92670000Y-112780000D02*
X95330000Y-112780000D01*
X92670000Y-112720000D02*
X92670000Y-112780000D01*
X95330000Y-112720000D02*
X95330000Y-112780000D01*
X92670000Y-112720000D02*
X95330000Y-112720000D01*
X92670000Y-111450000D02*
X92670000Y-110120000D01*
X92670000Y-110120000D02*
X94000000Y-110120000D01*
X162950000Y-102710000D02*
X165610000Y-102710000D01*
X162950000Y-102650000D02*
X162950000Y-102710000D01*
X165610000Y-102650000D02*
X165610000Y-102710000D01*
X162950000Y-102650000D02*
X165610000Y-102650000D01*
X162950000Y-101380000D02*
X162950000Y-100050000D01*
X162950000Y-100050000D02*
X164280000Y-100050000D01*
X92670000Y-118670000D02*
X94000000Y-118670000D01*
X92670000Y-120000000D02*
X92670000Y-118670000D01*
X92670000Y-121270000D02*
X95330000Y-121270000D01*
X95330000Y-121270000D02*
X95330000Y-121330000D01*
X92670000Y-121270000D02*
X92670000Y-121330000D01*
X92670000Y-121330000D02*
X95330000Y-121330000D01*
D14*
X145762133Y-80672819D02*
X145762133Y-81398533D01*
X145713752Y-81543676D01*
X145616990Y-81640438D01*
X145471847Y-81688819D01*
X145375085Y-81688819D01*
X146778133Y-81688819D02*
X146197561Y-81688819D01*
X146487847Y-81688819D02*
X146487847Y-80672819D01*
X146391085Y-80817961D01*
X146294323Y-80914723D01*
X146197561Y-80963104D01*
D10*
X95826666Y-67902380D02*
X95826666Y-68616666D01*
X95779047Y-68759523D01*
X95683809Y-68854761D01*
X95540952Y-68902380D01*
X95445714Y-68902380D01*
X96445714Y-68330952D02*
X96350476Y-68283333D01*
X96302857Y-68235714D01*
X96255238Y-68140476D01*
X96255238Y-68092857D01*
X96302857Y-67997619D01*
X96350476Y-67950000D01*
X96445714Y-67902380D01*
X96636190Y-67902380D01*
X96731428Y-67950000D01*
X96779047Y-67997619D01*
X96826666Y-68092857D01*
X96826666Y-68140476D01*
X96779047Y-68235714D01*
X96731428Y-68283333D01*
X96636190Y-68330952D01*
X96445714Y-68330952D01*
X96350476Y-68378571D01*
X96302857Y-68426190D01*
X96255238Y-68521428D01*
X96255238Y-68711904D01*
X96302857Y-68807142D01*
X96350476Y-68854761D01*
X96445714Y-68902380D01*
X96636190Y-68902380D01*
X96731428Y-68854761D01*
X96779047Y-68807142D01*
X96826666Y-68711904D01*
X96826666Y-68521428D01*
X96779047Y-68426190D01*
X96731428Y-68378571D01*
X96636190Y-68330952D01*
X111236666Y-101082380D02*
X111236666Y-101796666D01*
X111189047Y-101939523D01*
X111093809Y-102034761D01*
X110950952Y-102082380D01*
X110855714Y-102082380D01*
X112141428Y-101415714D02*
X112141428Y-102082380D01*
X111903333Y-101034761D02*
X111665238Y-101749047D01*
X112284285Y-101749047D01*
X99096666Y-100972380D02*
X99096666Y-101686666D01*
X99049047Y-101829523D01*
X98953809Y-101924761D01*
X98810952Y-101972380D01*
X98715714Y-101972380D01*
X100049047Y-100972380D02*
X99572857Y-100972380D01*
X99525238Y-101448571D01*
X99572857Y-101400952D01*
X99668095Y-101353333D01*
X99906190Y-101353333D01*
X100001428Y-101400952D01*
X100049047Y-101448571D01*
X100096666Y-101543809D01*
X100096666Y-101781904D01*
X100049047Y-101877142D01*
X100001428Y-101924761D01*
X99906190Y-101972380D01*
X99668095Y-101972380D01*
X99572857Y-101924761D01*
X99525238Y-101877142D01*
X95486666Y-100962380D02*
X95486666Y-101676666D01*
X95439047Y-101819523D01*
X95343809Y-101914761D01*
X95200952Y-101962380D01*
X95105714Y-101962380D01*
X96391428Y-100962380D02*
X96200952Y-100962380D01*
X96105714Y-101010000D01*
X96058095Y-101057619D01*
X95962857Y-101200476D01*
X95915238Y-101390952D01*
X95915238Y-101771904D01*
X95962857Y-101867142D01*
X96010476Y-101914761D01*
X96105714Y-101962380D01*
X96296190Y-101962380D01*
X96391428Y-101914761D01*
X96439047Y-101867142D01*
X96486666Y-101771904D01*
X96486666Y-101533809D01*
X96439047Y-101438571D01*
X96391428Y-101390952D01*
X96296190Y-101343333D01*
X96105714Y-101343333D01*
X96010476Y-101390952D01*
X95962857Y-101438571D01*
X95915238Y-101533809D01*
X133806666Y-100252380D02*
X133806666Y-100966666D01*
X133759047Y-101109523D01*
X133663809Y-101204761D01*
X133520952Y-101252380D01*
X133425714Y-101252380D01*
X134330476Y-101252380D02*
X134520952Y-101252380D01*
X134616190Y-101204761D01*
X134663809Y-101157142D01*
X134759047Y-101014285D01*
X134806666Y-100823809D01*
X134806666Y-100442857D01*
X134759047Y-100347619D01*
X134711428Y-100300000D01*
X134616190Y-100252380D01*
X134425714Y-100252380D01*
X134330476Y-100300000D01*
X134282857Y-100347619D01*
X134235238Y-100442857D01*
X134235238Y-100680952D01*
X134282857Y-100776190D01*
X134330476Y-100823809D01*
X134425714Y-100871428D01*
X134616190Y-100871428D01*
X134711428Y-100823809D01*
X134759047Y-100776190D01*
X134806666Y-100680952D01*
X109710476Y-74242380D02*
X109710476Y-74956666D01*
X109662857Y-75099523D01*
X109567619Y-75194761D01*
X109424761Y-75242380D01*
X109329523Y-75242380D01*
X110710476Y-75242380D02*
X110139047Y-75242380D01*
X110424761Y-75242380D02*
X110424761Y-74242380D01*
X110329523Y-74385238D01*
X110234285Y-74480476D01*
X110139047Y-74528095D01*
X111329523Y-74242380D02*
X111424761Y-74242380D01*
X111520000Y-74290000D01*
X111567619Y-74337619D01*
X111615238Y-74432857D01*
X111662857Y-74623333D01*
X111662857Y-74861428D01*
X111615238Y-75051904D01*
X111567619Y-75147142D01*
X111520000Y-75194761D01*
X111424761Y-75242380D01*
X111329523Y-75242380D01*
X111234285Y-75194761D01*
X111186666Y-75147142D01*
X111139047Y-75051904D01*
X111091428Y-74861428D01*
X111091428Y-74623333D01*
X111139047Y-74432857D01*
X111186666Y-74337619D01*
X111234285Y-74290000D01*
X111329523Y-74242380D01*
X116740476Y-74362380D02*
X116740476Y-75076666D01*
X116692857Y-75219523D01*
X116597619Y-75314761D01*
X116454761Y-75362380D01*
X116359523Y-75362380D01*
X117740476Y-75362380D02*
X117169047Y-75362380D01*
X117454761Y-75362380D02*
X117454761Y-74362380D01*
X117359523Y-74505238D01*
X117264285Y-74600476D01*
X117169047Y-74648095D01*
X118692857Y-75362380D02*
X118121428Y-75362380D01*
X118407142Y-75362380D02*
X118407142Y-74362380D01*
X118311904Y-74505238D01*
X118216666Y-74600476D01*
X118121428Y-74648095D01*
X122500476Y-68432380D02*
X122500476Y-69146666D01*
X122452857Y-69289523D01*
X122357619Y-69384761D01*
X122214761Y-69432380D01*
X122119523Y-69432380D01*
X123500476Y-69432380D02*
X122929047Y-69432380D01*
X123214761Y-69432380D02*
X123214761Y-68432380D01*
X123119523Y-68575238D01*
X123024285Y-68670476D01*
X122929047Y-68718095D01*
X123881428Y-68527619D02*
X123929047Y-68480000D01*
X124024285Y-68432380D01*
X124262380Y-68432380D01*
X124357619Y-68480000D01*
X124405238Y-68527619D01*
X124452857Y-68622857D01*
X124452857Y-68718095D01*
X124405238Y-68860952D01*
X123833809Y-69432380D01*
X124452857Y-69432380D01*
X129680476Y-100262380D02*
X129680476Y-100976666D01*
X129632857Y-101119523D01*
X129537619Y-101214761D01*
X129394761Y-101262380D01*
X129299523Y-101262380D01*
X130680476Y-101262380D02*
X130109047Y-101262380D01*
X130394761Y-101262380D02*
X130394761Y-100262380D01*
X130299523Y-100405238D01*
X130204285Y-100500476D01*
X130109047Y-100548095D01*
X131013809Y-100262380D02*
X131632857Y-100262380D01*
X131299523Y-100643333D01*
X131442380Y-100643333D01*
X131537619Y-100690952D01*
X131585238Y-100738571D01*
X131632857Y-100833809D01*
X131632857Y-101071904D01*
X131585238Y-101167142D01*
X131537619Y-101214761D01*
X131442380Y-101262380D01*
X131156666Y-101262380D01*
X131061428Y-101214761D01*
X131013809Y-101167142D01*
X166670476Y-96712380D02*
X166670476Y-97426666D01*
X166622857Y-97569523D01*
X166527619Y-97664761D01*
X166384761Y-97712380D01*
X166289523Y-97712380D01*
X167670476Y-97712380D02*
X167099047Y-97712380D01*
X167384761Y-97712380D02*
X167384761Y-96712380D01*
X167289523Y-96855238D01*
X167194285Y-96950476D01*
X167099047Y-96998095D01*
X168527619Y-97045714D02*
X168527619Y-97712380D01*
X168289523Y-96664761D02*
X168051428Y-97379047D01*
X168670476Y-97379047D01*
X166680476Y-93302380D02*
X166680476Y-94016666D01*
X166632857Y-94159523D01*
X166537619Y-94254761D01*
X166394761Y-94302380D01*
X166299523Y-94302380D01*
X167680476Y-94302380D02*
X167109047Y-94302380D01*
X167394761Y-94302380D02*
X167394761Y-93302380D01*
X167299523Y-93445238D01*
X167204285Y-93540476D01*
X167109047Y-93588095D01*
X168585238Y-93302380D02*
X168109047Y-93302380D01*
X168061428Y-93778571D01*
X168109047Y-93730952D01*
X168204285Y-93683333D01*
X168442380Y-93683333D01*
X168537619Y-93730952D01*
X168585238Y-93778571D01*
X168632857Y-93873809D01*
X168632857Y-94111904D01*
X168585238Y-94207142D01*
X168537619Y-94254761D01*
X168442380Y-94302380D01*
X168204285Y-94302380D01*
X168109047Y-94254761D01*
X168061428Y-94207142D01*
X166460476Y-89742380D02*
X166460476Y-90456666D01*
X166412857Y-90599523D01*
X166317619Y-90694761D01*
X166174761Y-90742380D01*
X166079523Y-90742380D01*
X167460476Y-90742380D02*
X166889047Y-90742380D01*
X167174761Y-90742380D02*
X167174761Y-89742380D01*
X167079523Y-89885238D01*
X166984285Y-89980476D01*
X166889047Y-90028095D01*
X168317619Y-89742380D02*
X168127142Y-89742380D01*
X168031904Y-89790000D01*
X167984285Y-89837619D01*
X167889047Y-89980476D01*
X167841428Y-90170952D01*
X167841428Y-90551904D01*
X167889047Y-90647142D01*
X167936666Y-90694761D01*
X168031904Y-90742380D01*
X168222380Y-90742380D01*
X168317619Y-90694761D01*
X168365238Y-90647142D01*
X168412857Y-90551904D01*
X168412857Y-90313809D01*
X168365238Y-90218571D01*
X168317619Y-90170952D01*
X168222380Y-90123333D01*
X168031904Y-90123333D01*
X167936666Y-90170952D01*
X167889047Y-90218571D01*
X167841428Y-90313809D01*
X156890476Y-86372380D02*
X156890476Y-87086666D01*
X156842857Y-87229523D01*
X156747619Y-87324761D01*
X156604761Y-87372380D01*
X156509523Y-87372380D01*
X157890476Y-87372380D02*
X157319047Y-87372380D01*
X157604761Y-87372380D02*
X157604761Y-86372380D01*
X157509523Y-86515238D01*
X157414285Y-86610476D01*
X157319047Y-86658095D01*
X158223809Y-86372380D02*
X158890476Y-86372380D01*
X158461904Y-87372380D01*
X166220476Y-86082380D02*
X166220476Y-86796666D01*
X166172857Y-86939523D01*
X166077619Y-87034761D01*
X165934761Y-87082380D01*
X165839523Y-87082380D01*
X167220476Y-87082380D02*
X166649047Y-87082380D01*
X166934761Y-87082380D02*
X166934761Y-86082380D01*
X166839523Y-86225238D01*
X166744285Y-86320476D01*
X166649047Y-86368095D01*
X167791904Y-86510952D02*
X167696666Y-86463333D01*
X167649047Y-86415714D01*
X167601428Y-86320476D01*
X167601428Y-86272857D01*
X167649047Y-86177619D01*
X167696666Y-86130000D01*
X167791904Y-86082380D01*
X167982380Y-86082380D01*
X168077619Y-86130000D01*
X168125238Y-86177619D01*
X168172857Y-86272857D01*
X168172857Y-86320476D01*
X168125238Y-86415714D01*
X168077619Y-86463333D01*
X167982380Y-86510952D01*
X167791904Y-86510952D01*
X167696666Y-86558571D01*
X167649047Y-86606190D01*
X167601428Y-86701428D01*
X167601428Y-86891904D01*
X167649047Y-86987142D01*
X167696666Y-87034761D01*
X167791904Y-87082380D01*
X167982380Y-87082380D01*
X168077619Y-87034761D01*
X168125238Y-86987142D01*
X168172857Y-86891904D01*
X168172857Y-86701428D01*
X168125238Y-86606190D01*
X168077619Y-86558571D01*
X167982380Y-86510952D01*
X166610476Y-78732380D02*
X166610476Y-79446666D01*
X166562857Y-79589523D01*
X166467619Y-79684761D01*
X166324761Y-79732380D01*
X166229523Y-79732380D01*
X167610476Y-79732380D02*
X167039047Y-79732380D01*
X167324761Y-79732380D02*
X167324761Y-78732380D01*
X167229523Y-78875238D01*
X167134285Y-78970476D01*
X167039047Y-79018095D01*
X168086666Y-79732380D02*
X168277142Y-79732380D01*
X168372380Y-79684761D01*
X168420000Y-79637142D01*
X168515238Y-79494285D01*
X168562857Y-79303809D01*
X168562857Y-78922857D01*
X168515238Y-78827619D01*
X168467619Y-78780000D01*
X168372380Y-78732380D01*
X168181904Y-78732380D01*
X168086666Y-78780000D01*
X168039047Y-78827619D01*
X167991428Y-78922857D01*
X167991428Y-79160952D01*
X168039047Y-79256190D01*
X168086666Y-79303809D01*
X168181904Y-79351428D01*
X168372380Y-79351428D01*
X168467619Y-79303809D01*
X168515238Y-79256190D01*
X168562857Y-79160952D01*
X166610476Y-82712380D02*
X166610476Y-83426666D01*
X166562857Y-83569523D01*
X166467619Y-83664761D01*
X166324761Y-83712380D01*
X166229523Y-83712380D01*
X167039047Y-82807619D02*
X167086666Y-82760000D01*
X167181904Y-82712380D01*
X167420000Y-82712380D01*
X167515238Y-82760000D01*
X167562857Y-82807619D01*
X167610476Y-82902857D01*
X167610476Y-82998095D01*
X167562857Y-83140952D01*
X166991428Y-83712380D01*
X167610476Y-83712380D01*
X168229523Y-82712380D02*
X168324761Y-82712380D01*
X168420000Y-82760000D01*
X168467619Y-82807619D01*
X168515238Y-82902857D01*
X168562857Y-83093333D01*
X168562857Y-83331428D01*
X168515238Y-83521904D01*
X168467619Y-83617142D01*
X168420000Y-83664761D01*
X168324761Y-83712380D01*
X168229523Y-83712380D01*
X168134285Y-83664761D01*
X168086666Y-83617142D01*
X168039047Y-83521904D01*
X167991428Y-83331428D01*
X167991428Y-83093333D01*
X168039047Y-82902857D01*
X168086666Y-82807619D01*
X168134285Y-82760000D01*
X168229523Y-82712380D01*
X166540476Y-74972380D02*
X166540476Y-75686666D01*
X166492857Y-75829523D01*
X166397619Y-75924761D01*
X166254761Y-75972380D01*
X166159523Y-75972380D01*
X166969047Y-75067619D02*
X167016666Y-75020000D01*
X167111904Y-74972380D01*
X167350000Y-74972380D01*
X167445238Y-75020000D01*
X167492857Y-75067619D01*
X167540476Y-75162857D01*
X167540476Y-75258095D01*
X167492857Y-75400952D01*
X166921428Y-75972380D01*
X167540476Y-75972380D01*
X168492857Y-75972380D02*
X167921428Y-75972380D01*
X168207142Y-75972380D02*
X168207142Y-74972380D01*
X168111904Y-75115238D01*
X168016666Y-75210476D01*
X167921428Y-75258095D01*
M02*
